<svg width="280" height="280" viewBox="0 0 280 280" fill="none" xmlns="http://www.w3.org/2000/svg">
<path d="M120.827 23.0133L127.71 32.7369L139.592 18.6709L151.474 32.7369L158.355 23.0122L139.592 2.59022e-05L120.827 23.0133Z" fill="#1B2228" fill-opacity="0.3"/>
<path d="M127.708 71.8307L139.59 57.7647L151.472 71.8307L158.354 62.107L139.59 39.0938L120.825 62.107L127.708 71.8307Z" fill="#1B2228" fill-opacity="0.3"/>
<path d="M127.708 110.925L139.59 96.8587L151.472 110.925L158.353 101.2L139.59 78.1878L120.825 101.201L127.708 110.925Z" fill="#1B2228" fill-opacity="0.3"/>
<path d="M127.708 150.018L139.59 135.952L151.472 150.018L158.353 140.294L139.59 117.282L120.825 140.295L127.708 150.018Z" fill="#1B2228" fill-opacity="0.3"/>
<path d="M127.708 189.112L139.59 175.046L151.472 189.112L158.353 179.387L139.59 156.375L120.824 179.387L127.708 189.112Z" fill="#1B2228" fill-opacity="0.3"/>
<path d="M127.708 228.206L139.59 214.14L151.472 228.206L158.353 218.481L139.59 195.469L120.824 218.481L127.708 228.206Z" fill="#1B2228" fill-opacity="0.3"/>
<path d="M127.708 267.299L139.59 253.233L151.472 267.299L158.353 257.575L139.59 234.563L120.824 257.575L127.708 267.299Z" fill="#1B2228" fill-opacity="0.3"/>
</svg>