<svg width="1352" height="2009" viewBox="0 0 1352 2009" fill="none" xmlns="http://www.w3.org/2000/svg">
<g opacity="0.1">
<path d="M542.365 1872.7L529.247 1999.56L478.563 2008.1L485.306 1929.32L485.356 1928.73L484.767 1928.78L404.641 1935.41L413.309 1885.6L542.365 1872.7Z" stroke="#FFFAFB"/>
<path d="M623.171 1793.44L610.053 1920.31L559.37 1928.84L566.113 1850.07L566.163 1849.48L565.573 1849.53L485.447 1856.16L494.116 1806.34L623.171 1793.44Z" stroke="#FFFAFB"/>
<path d="M703.98 1714.19L690.862 1841.05L640.179 1849.59L646.921 1770.82L646.972 1770.23L646.382 1770.28L566.256 1776.91L574.925 1727.09L703.98 1714.19Z" stroke="#FFFAFB"/>
<path d="M784.789 1634.94L771.671 1761.8L720.987 1770.34L727.73 1691.56L727.78 1690.97L727.19 1691.02L647.064 1697.65L655.733 1647.84L784.789 1634.94Z" stroke="#FFFAFB"/>
<path d="M865.595 1555.68L852.477 1682.55L801.794 1691.08L808.536 1612.31L808.587 1611.72L807.997 1611.77L727.871 1618.4L736.54 1568.58L865.595 1555.68Z" stroke="#FFFAFB"/>
<path d="M946.404 1476.43L933.286 1603.29L882.602 1611.83L889.345 1533.06L889.396 1532.47L888.806 1532.52L808.68 1539.15L817.348 1489.33L946.404 1476.43Z" stroke="#FFFAFB"/>
<path d="M1027.21 1397.18L1014.09 1524.04L963.411 1532.57L970.154 1453.8L970.204 1453.21L969.614 1453.26L889.488 1459.89L898.157 1410.08L1027.21 1397.18Z" stroke="#FFFAFB"/>
<path d="M1108.02 1317.92L1094.9 1444.79L1044.22 1453.32L1050.96 1374.55L1051.01 1373.96L1050.42 1374.01L970.295 1380.64L978.964 1330.82L1108.02 1317.92Z" stroke="#FFFAFB"/>
<path d="M1188.83 1238.67L1175.71 1365.53L1125.02 1374.07L1131.77 1295.3L1131.82 1294.71L1131.23 1294.75L1051.1 1301.38L1059.77 1251.57L1188.83 1238.67Z" stroke="#FFFAFB"/>
<path d="M1269.63 1159.42L1256.52 1286.28L1205.83 1294.81L1212.58 1216.04L1212.63 1215.45L1212.04 1215.5L1131.91 1222.13L1140.58 1172.32L1269.63 1159.42Z" stroke="#FFFAFB"/>
<path d="M1350.44 1080.16L1337.32 1207.03L1286.64 1215.56L1293.38 1136.79L1293.43 1136.2L1292.84 1136.25L1212.72 1142.88L1221.39 1093.06L1350.44 1080.16Z" stroke="#FFFAFB"/>
<path d="M461.556 1656.89L448.438 1783.75L397.755 1792.29L404.497 1713.51L404.548 1712.92L403.958 1712.97L323.832 1719.6L332.501 1669.79L461.556 1656.89Z" stroke="#FFFAFB"/>
<path d="M542.363 1577.63L529.245 1704.5L478.561 1713.03L485.304 1634.26L485.355 1633.67L484.765 1633.72L404.639 1640.35L413.307 1590.53L542.363 1577.63Z" stroke="#FFFAFB"/>
<path d="M623.171 1498.38L610.053 1625.24L559.37 1633.78L566.113 1555.01L566.163 1554.42L565.573 1554.47L485.447 1561.1L494.116 1511.28L623.171 1498.38Z" stroke="#FFFAFB"/>
<path d="M703.978 1419.13L690.86 1545.99L640.177 1554.52L646.919 1475.75L646.97 1475.16L646.38 1475.21L566.254 1481.84L574.923 1432.03L703.978 1419.13Z" stroke="#FFFAFB"/>
<path d="M784.787 1339.87L771.669 1466.74L720.985 1475.27L727.728 1396.5L727.778 1395.91L727.188 1395.96L647.062 1402.59L655.731 1352.77L784.787 1339.87Z" stroke="#FFFAFB"/>
<path d="M865.595 1260.62L852.477 1387.48L801.794 1396.02L808.536 1317.25L808.587 1316.66L807.997 1316.7L727.871 1323.33L736.54 1273.52L865.595 1260.62Z" stroke="#FFFAFB"/>
<path d="M946.402 1181.37L933.284 1308.23L882.6 1316.76L889.343 1237.99L889.394 1237.4L888.804 1237.45L808.678 1244.08L817.346 1194.27L946.402 1181.37Z" stroke="#FFFAFB"/>
<path d="M1027.21 1102.11L1014.09 1228.98L963.409 1237.51L970.152 1158.74L970.202 1158.15L969.612 1158.2L889.486 1164.83L898.155 1115.01L1027.21 1102.11Z" stroke="#FFFAFB"/>
<path d="M1108.02 1022.86L1094.9 1149.72L1044.22 1158.26L1050.96 1079.48L1051.01 1078.89L1050.42 1078.94L970.293 1085.57L978.962 1035.76L1108.02 1022.86Z" stroke="#FFFAFB"/>
<path d="M1188.82 943.605L1175.71 1070.47L1125.02 1079L1131.76 1000.23L1131.82 999.641L1131.23 999.69L1051.1 1006.32L1059.77 956.504L1188.82 943.605Z" stroke="#FFFAFB"/>
<path d="M1269.63 864.351L1256.51 991.215L1205.83 999.75L1212.57 920.977L1212.62 920.388L1212.03 920.436L1131.91 927.067L1140.58 877.251L1269.63 864.351Z" stroke="#FFFAFB"/>
<path d="M380.75 1441.08L367.632 1567.94L316.948 1576.48L323.691 1497.7L323.741 1497.11L323.151 1497.16L243.025 1503.79L251.694 1453.98L380.75 1441.08Z" stroke="#FFFAFB"/>
<path d="M461.556 1361.82L448.438 1488.69L397.755 1497.22L404.497 1418.45L404.548 1417.86L403.958 1417.91L323.832 1424.54L332.501 1374.72L461.556 1361.82Z" stroke="#FFFAFB"/>
<path d="M542.365 1282.57L529.247 1409.43L478.563 1417.97L485.306 1339.2L485.356 1338.61L484.767 1338.65L404.641 1345.28L413.309 1295.47L542.365 1282.57Z" stroke="#FFFAFB"/>
<path d="M623.171 1203.32L610.053 1330.18L559.37 1338.71L566.113 1259.94L566.163 1259.35L565.573 1259.4L485.447 1266.03L494.116 1216.22L623.171 1203.32Z" stroke="#FFFAFB"/>
<path d="M703.98 1124.06L690.862 1250.93L640.179 1259.46L646.921 1180.69L646.972 1180.1L646.382 1180.15L566.256 1186.78L574.925 1136.96L703.98 1124.06Z" stroke="#FFFAFB"/>
<path d="M784.789 1044.81L771.671 1171.67L720.987 1180.21L727.73 1101.43L727.78 1100.85L727.19 1100.89L647.064 1107.52L655.733 1057.71L784.789 1044.81Z" stroke="#FFFAFB"/>
<path d="M865.595 965.555L852.477 1092.42L801.794 1100.95L808.536 1022.18L808.587 1021.59L807.997 1021.64L727.871 1028.27L736.54 978.455L865.595 965.555Z" stroke="#FFFAFB"/>
<path d="M946.404 886.301L933.286 1013.17L882.602 1021.7L889.345 942.928L889.396 942.338L888.806 942.387L808.68 949.017L817.348 899.201L946.404 886.301Z" stroke="#FFFAFB"/>
<path d="M1027.21 807.048L1014.09 933.912L963.409 942.446L970.152 863.674L970.202 863.084L969.612 863.133L889.486 869.763L898.155 819.947L1027.21 807.048Z" stroke="#FFFAFB"/>
<path d="M1108.02 727.794L1094.9 854.658L1044.22 863.193L1050.96 784.421L1051.01 783.831L1050.42 783.88L970.293 790.51L978.962 740.694L1108.02 727.794Z" stroke="#FFFAFB"/>
<path d="M1188.83 648.541L1175.71 775.405L1125.02 783.939L1131.77 705.167L1131.82 704.577L1131.23 704.626L1051.1 711.256L1059.77 661.44L1188.83 648.541Z" stroke="#FFFAFB"/>
<path d="M299.941 1225.27L286.823 1352.13L236.139 1360.66L242.882 1281.89L242.933 1281.3L242.343 1281.35L162.217 1287.98L170.886 1238.17L299.941 1225.27Z" stroke="#FFFAFB"/>
<path d="M380.75 1146.01L367.632 1272.88L316.948 1281.41L323.691 1202.64L323.741 1202.05L323.151 1202.1L243.025 1208.73L251.694 1158.91L380.75 1146.01Z" stroke="#FFFAFB"/>
<path d="M461.556 1066.76L448.438 1193.62L397.755 1202.16L404.497 1123.38L404.548 1122.8L403.958 1122.84L323.832 1129.47L332.501 1079.66L461.556 1066.76Z" stroke="#FFFAFB"/>
<path d="M542.363 987.505L529.245 1114.37L478.561 1122.9L485.304 1044.13L485.355 1043.54L484.765 1043.59L404.639 1050.22L413.307 1000.4L542.363 987.505Z" stroke="#FFFAFB"/>
<path d="M623.171 908.252L610.053 1035.12L559.37 1043.65L566.113 964.878L566.163 964.288L565.573 964.337L485.447 970.967L494.116 921.151L623.171 908.252Z" stroke="#FFFAFB"/>
<path d="M704.328 828.559L691.21 955.423L640.526 963.957L647.269 885.185L647.319 884.595L646.729 884.644L566.604 891.274L575.272 841.458L704.328 828.559Z" stroke="#FFFAFB"/>
<path d="M784.787 749.744L771.669 876.608L720.985 885.142L727.728 806.37L727.778 805.78L727.188 805.829L647.062 812.459L655.731 762.643L784.787 749.744Z" stroke="#FFFAFB"/>
<path d="M865.593 670.49L852.475 797.354L801.792 805.889L808.535 727.116L808.585 726.527L807.995 726.575L727.869 733.206L736.538 683.39L865.593 670.49Z" stroke="#FFFAFB"/>
<path d="M946.4 591.236L933.282 718.1L882.598 726.635L889.341 647.863L889.392 647.273L888.802 647.322L808.676 653.952L817.345 604.136L946.4 591.236Z" stroke="#FFFAFB"/>
<path d="M1027.21 511.983L1014.09 638.847L963.407 647.381L970.15 568.609L970.2 568.019L969.61 568.068L889.484 574.698L898.153 524.882L1027.21 511.983Z" stroke="#FFFAFB"/>
<path d="M1108.02 432.73L1094.9 559.594L1044.22 568.128L1050.96 489.356L1051.01 488.766L1050.42 488.815L970.293 495.445L978.962 445.629L1108.02 432.73Z" stroke="#FFFAFB"/>
<path d="M219.132 1009.46L206.014 1136.32L155.331 1144.85L162.074 1066.08L162.124 1065.49L161.534 1065.54L81.4082 1072.17L90.0769 1022.35L219.132 1009.46Z" stroke="#FFFAFB"/>
<path d="M299.939 930.202L286.821 1057.07L236.137 1065.6L242.88 986.828L242.931 986.238L242.341 986.287L162.215 992.917L170.884 943.101L299.939 930.202Z" stroke="#FFFAFB"/>
<path d="M380.748 850.948L367.63 977.812L316.946 986.346L323.689 907.574L323.739 906.984L323.149 907.033L243.023 913.663L251.692 863.847L380.748 850.948Z" stroke="#FFFAFB"/>
<path d="M461.554 771.694L448.436 898.558L397.753 907.093L404.495 828.32L404.546 827.731L403.956 827.779L323.83 834.41L332.499 784.594L461.554 771.694Z" stroke="#FFFAFB"/>
<path d="M542.363 692.441L529.245 819.305L478.561 827.839L485.304 749.067L485.355 748.477L484.765 748.526L404.639 755.156L413.307 705.34L542.363 692.441Z" stroke="#FFFAFB"/>
<path d="M623.171 613.187L610.053 740.051L559.37 748.586L566.113 669.814L566.163 669.224L565.573 669.273L485.447 675.903L494.116 626.087L623.171 613.187Z" stroke="#FFFAFB"/>
<path d="M703.978 533.934L690.86 660.798L640.177 669.332L646.919 590.56L646.97 589.97L646.38 590.019L566.254 596.649L574.923 546.833L703.978 533.934Z" stroke="#FFFAFB"/>
<path d="M784.785 454.68L771.667 581.544L720.983 590.078L727.726 511.306L727.776 510.716L727.187 510.765L647.061 517.395L655.729 467.579L784.785 454.68Z" stroke="#FFFAFB"/>
<path d="M865.593 375.426L852.475 502.29L801.792 510.825L808.535 432.052L808.585 431.463L807.995 431.512L727.869 438.142L736.538 388.326L865.593 375.426Z" stroke="#FFFAFB"/>
<path d="M946.4 296.173L933.282 423.037L882.598 431.571L889.341 352.799L889.392 352.209L888.802 352.258L808.676 358.888L817.345 309.072L946.4 296.173Z" stroke="#FFFAFB"/>
<path d="M1027.21 216.919L1014.09 343.783L963.407 352.317L970.15 273.545L970.2 272.956L969.61 273.004L889.484 279.635L898.153 229.819L1027.21 216.919Z" stroke="#FFFAFB"/>
<path d="M138.328 793.644L125.21 920.508L74.5262 929.043L81.2689 850.271L81.3194 849.681L80.7295 849.73L0.603509 856.36L9.27225 806.544L138.328 793.644Z" stroke="#FFFAFB"/>
<path d="M219.134 714.391L206.016 841.255L155.333 849.789L162.076 771.017L162.126 770.427L161.536 770.476L81.4101 777.106L90.0789 727.29L219.134 714.391Z" stroke="#FFFAFB"/>
<path d="M299.943 635.137L286.825 762.001L236.141 770.536L242.884 691.763L242.935 691.174L242.345 691.222L162.219 697.853L170.887 648.037L299.943 635.137Z" stroke="#FFFAFB"/>
<path d="M380.75 555.884L367.632 682.748L316.948 691.282L323.691 612.51L323.741 611.92L323.151 611.969L243.025 618.599L251.694 568.783L380.75 555.884Z" stroke="#FFFAFB"/>
<path d="M461.558 476.63L448.44 603.494L397.757 612.028L404.499 533.256L404.55 532.666L403.96 532.715L323.834 539.345L332.503 489.529L461.558 476.63Z" stroke="#FFFAFB"/>
<path d="M542.367 397.376L529.249 524.24L478.565 532.775L485.308 454.002L485.358 453.413L484.769 453.461L404.643 460.092L413.311 410.276L542.367 397.376Z" stroke="#FFFAFB"/>
<path d="M623.173 318.123L610.055 444.987L559.372 453.521L566.115 374.749L566.165 374.159L565.575 374.208L485.449 380.838L494.118 331.022L623.173 318.123Z" stroke="#FFFAFB"/>
<path d="M703.982 238.869L690.864 365.733L640.18 374.267L646.923 295.495L646.974 294.905L646.384 294.954L566.258 301.584L574.927 251.768L703.982 238.869Z" stroke="#FFFAFB"/>
<path d="M784.789 159.616L771.671 286.48L720.987 295.014L727.73 216.242L727.78 215.652L727.19 215.701L647.064 222.331L655.733 172.515L784.789 159.616Z" stroke="#FFFAFB"/>
<path d="M865.595 80.3619L852.477 207.226L801.794 215.76L808.536 136.988L808.587 136.398L807.997 136.447L727.871 143.077L736.54 93.2613L865.595 80.3619Z" stroke="#FFFAFB"/>
<path d="M946.404 1.10831L933.286 127.972L882.602 136.507L889.345 57.7345L889.396 57.1447L888.806 57.1936L808.68 63.8237L817.348 14.0077L946.404 1.10831Z" stroke="#FFFAFB"/>
</g>
</svg>