<svg width="162" height="45" viewBox="0 0 162 45" fill="none" xmlns="http://www.w3.org/2000/svg">
<g clip-path="url(#clip0_1_411)">
<path d="M17.5237 3.73688C17.5177 3.24578 17.6142 2.75869 17.8075 2.30571C18.0007 1.85273 18.2866 1.44348 18.6472 1.10328C18.9938 0.749204 19.4105 0.468626 19.8718 0.278858C20.333 0.0890896 20.829 -0.0058428 21.329 -8.10515e-05C21.8333 -0.00744976 22.3338 0.0852509 22.8007 0.272463C23.2676 0.459676 23.6912 0.737545 24.0461 1.08941C24.4116 1.42909 24.7011 1.83966 24.8965 2.29507C25.0918 2.75048 25.1886 3.2408 25.1807 3.7349C25.1879 4.23052 25.0909 4.72226 24.8956 5.17935C24.7004 5.63644 24.4112 6.04902 24.0461 6.39128C23.6931 6.74658 23.2702 7.02762 22.8031 7.21731C22.336 7.40699 21.8344 7.50135 21.329 7.49464C20.827 7.49992 20.3294 7.40263 19.8677 7.20893C19.406 7.01523 18.9904 6.72937 18.6472 6.36949C17.8982 5.62269 17.5237 4.74515 17.5237 3.73688ZM18.0966 34.8954L18.0714 12.8084L24.5816 12.1616L24.6099 34.8954H18.0966Z" fill="#1B2228"/>
<path d="M52.5753 34.5982C52.5753 36.9257 52.4341 38.562 52.1517 39.5068C51.8814 40.4307 51.3808 41.2739 50.6954 41.9602C49.7184 42.9962 48.4654 43.7618 46.9364 44.257C45.4075 44.7523 43.5504 44.9999 41.3651 44.9999C37.7121 44.9999 34.9382 44.4294 33.0435 43.2884C31.1487 42.1474 30.117 40.4141 29.9482 38.0885H37.1241C37.231 38.943 37.6284 39.5732 38.3163 39.9793C39.0041 40.3854 40.0204 40.5881 41.3651 40.5874C43.1382 40.5874 44.4181 40.1371 45.2047 39.2365C45.9914 38.3358 46.3851 36.8349 46.3858 34.7339V31.5823C45.5117 32.9471 44.4611 33.96 43.234 34.621C42.0069 35.2819 40.5509 35.6121 38.8659 35.6114C35.7797 35.6114 33.3114 34.5497 31.461 32.4261C29.6107 30.3026 28.6862 27.4396 28.6875 23.837C28.6875 20.175 29.5892 17.3083 31.3925 15.2369C33.1958 13.1656 35.6869 12.1299 38.8659 12.1299C40.5018 12.1299 41.9578 12.5016 43.234 13.2451C44.5102 13.9886 45.5762 15.0804 46.4322 16.5205V12.8757H52.5753V34.5982ZM46.6611 23.8825C46.6611 21.9314 46.1568 20.3929 45.1483 19.267C44.1397 18.1412 42.764 17.5783 41.0212 17.5783C39.2327 17.5783 37.8342 18.1376 36.8256 19.2562C35.817 20.3747 35.3128 21.9168 35.3128 23.8825C35.3128 25.8489 35.8096 27.3798 36.8034 28.4752C37.7972 29.5707 39.188 30.1184 40.9758 30.1184C42.7643 30.1184 44.1589 29.5707 45.1594 28.4752C46.1598 27.3798 46.6604 25.8489 46.6611 23.8825Z" fill="#1B2228"/>
<path d="M56.6973 34.9629V0.710239L63.0936 0.0634766V12.4678C63.0936 13.1579 63.0707 13.8446 63.025 14.528C62.9793 15.2114 62.912 15.8756 62.8233 16.5208C64.168 14.9743 65.5168 13.8561 66.8696 13.1661C68.2224 12.4761 69.7316 12.1308 71.3971 12.1301C73.1399 12.1301 74.611 12.4229 75.8105 13.0086C76.9958 13.58 77.9697 14.5008 78.5962 15.6422C78.9447 16.2948 79.1883 16.9964 79.3183 17.7222C79.4636 18.496 79.5362 19.708 79.5362 21.3581V34.9629H72.9967V24.0402C72.9967 21.3231 72.6759 19.5294 72.0345 18.6591C71.393 17.7889 70.2924 17.3537 68.7324 17.3537C67.8709 17.3444 67.0192 17.5334 66.2453 17.9054C65.5661 18.2379 64.9684 18.7111 64.4935 19.2925C64.0187 19.8739 63.678 20.5496 63.495 21.2729C63.3195 21.9484 63.2314 22.9765 63.2307 24.3572V34.9629H56.6973Z" fill="#1B2228"/>
<path d="M96.2572 12.8729H90.1009V5.53369L83.5664 6.18045V34.9589H90.1009V19.2831H95.5986L96.2572 12.8729Z" fill="#1B2228"/>
<path d="M0 12.873V34.959H6.52439V19.2832H13.306L13.9646 12.873H0Z" fill="#1B2228"/>
<path d="M106.136 12.8662V24.3722C106.136 26.3043 106.518 27.6866 107.282 28.5192C108.047 29.3519 109.291 29.7682 111.014 29.7682C112.725 29.7682 113.966 29.3482 114.738 28.5083C115.51 27.6685 115.895 26.2897 115.895 24.3722V12.8662H122.366V24.3722C122.366 28.2224 121.451 31.0578 119.619 32.8782C117.788 34.6987 114.949 35.6092 111.105 35.6099C107.184 35.6099 104.304 34.7033 102.465 32.8901C100.627 31.0769 99.707 28.2376 99.707 24.3722V12.8662H106.136Z" fill="#1B2228"/>
<path d="M126.496 44.3928V12.8658H132.694V16.478C133.542 15.022 134.584 13.9325 135.82 13.2095C137.057 12.4865 138.491 12.126 140.123 12.1279C143.287 12.1279 145.762 13.1573 147.548 15.2162C149.334 17.275 150.227 20.1473 150.227 23.8331C150.227 27.3861 149.326 30.2363 147.525 32.3836C145.723 34.5309 143.355 35.6049 140.418 35.6055C138.647 35.6055 137.145 35.2823 135.911 34.6359C134.677 33.9894 133.62 32.9759 132.739 31.5952C132.815 32.1452 132.872 32.7434 132.91 33.3899C132.947 34.0363 132.966 34.7758 132.967 35.6085V44.3918L126.496 44.3928ZM132.399 23.7707C132.399 25.7476 132.895 27.2861 133.886 28.3861C134.877 29.4862 136.258 30.0362 138.03 30.0362C139.801 30.0362 141.182 29.4862 142.173 28.3861C143.164 27.2861 143.66 25.7476 143.661 23.7707C143.661 21.7937 143.157 20.2367 142.148 19.0997C141.139 17.9627 139.751 17.3938 137.982 17.3932C136.271 17.3932 134.913 17.9656 133.906 19.1106C132.899 20.2556 132.397 21.8089 132.399 23.7707Z" fill="#1B2228"/>
<path d="M145.753 1.59867L144.707 7.60177L154.258 6.81239L153.454 16.1919L159.567 15.1638L161.13 0.0634766L145.753 1.59867Z" fill="#1B2228"/>
<path d="M149.734 39.4526H154.195V40.4649H152.65V44.393H151.284V40.4649H149.739L149.734 39.4526ZM155.216 39.4526H157.018L158.186 42.4517L159.317 39.4526H161.132V44.393H159.887V40.6907L158.476 44.393H157.914L156.461 40.6907V44.393H155.218L155.216 39.4526Z" fill="#1B2228"/>
</g>
<defs>
<clipPath id="clip0_1_411">
<rect width="161.129" height="45" fill="white"/>
</clipPath>
</defs>
</svg>