<svg width="282" height="282" viewBox="0 0 282 282" fill="none" xmlns="http://www.w3.org/2000/svg">
<path d="M69.4671 210.216C53.4485 205.761 38.8933 197.149 27.2781 185.252C-9.31698 147.886 -8.69424 87.9246 28.6691 51.3262C53.7158 26.7976 88.9079 18.9889 120.412 27.7547C95.5383 52.269 87.074 87.1824 95.1605 118.77L94.9405 118.985C69.897 143.512 61.3575 178.535 69.4671 210.216Z" fill="#FFB830"/>
<path d="M161.207 186.643C136.164 211.171 100.972 218.98 69.467 210.216C61.3574 178.535 69.897 143.512 94.9405 118.985L95.1604 118.77C99.3081 134.866 107.614 149.59 119.246 161.465C130.877 173.339 145.426 181.948 161.433 186.427L161.207 186.643Z" fill="#FFB830"/>
<path d="M227.474 254.3C190.107 290.899 130.146 290.278 93.5479 252.909C81.8967 241.051 73.5889 226.322 69.4671 210.216C100.972 218.98 136.164 211.172 161.207 186.643L161.425 186.427C192.84 195.167 227.917 187.429 252.941 163.07C261.057 194.749 252.517 229.773 227.474 254.3Z" fill="#FF003D"/>
<path d="M186.679 95.4121C155.266 86.6714 120.189 94.4104 95.1636 118.77C87.0772 87.1823 95.5414 52.2721 120.415 27.7594C136.422 32.2388 150.97 40.8474 162.601 52.7222C174.231 64.597 182.536 79.3206 186.682 95.417L186.679 95.4121Z" fill="#007FFF"/>
<path d="M161.433 186.428C145.425 181.948 130.877 173.339 119.245 161.465C107.613 149.59 99.3072 134.866 95.1595 118.77C120.188 94.4104 155.265 86.6715 186.675 95.4122C194.765 126.995 186.299 161.908 161.433 186.428Z" fill="#1B2228"/>
<path d="M252.948 163.076C227.918 187.436 192.841 195.173 161.433 186.434C186.307 161.915 194.773 127.006 186.686 95.4236C202.691 99.9042 217.237 108.513 228.867 120.386C240.497 132.26 248.801 146.982 252.948 163.076Z" fill="#FF003D"/>
<path d="M253.168 162.854L252.949 163.076C248.802 146.98 240.497 132.257 228.866 120.382C217.235 108.507 202.688 99.8987 186.681 95.4186C182.536 79.3209 174.231 64.5958 162.6 52.7198C150.969 40.8438 136.421 32.2343 120.413 27.7546L120.633 27.5376C157.999 -9.06075 217.963 -8.43797 254.559 28.9253C291.154 66.2885 290.534 126.256 253.168 162.854Z" fill="#007FFF"/>
<path d="M120 133.368L149.66 130.923L147.164 160L166.147 156.813L171 110L123.248 114.76L120 133.368Z" fill="#FFFAFB"/>
</svg>