<svg width="52" height="39" viewBox="0 0 52 39" fill="none" xmlns="http://www.w3.org/2000/svg">
<path d="M5.91461 11.9355V21.7897C5.91461 23.4466 6.23291 24.6308 6.86951 25.3422C7.50611 26.0536 8.54488 26.4104 9.98583 26.4126C11.4123 26.4126 12.4478 26.053 13.0922 25.3338C13.7365 24.6145 14.0587 23.4332 14.0587 21.7897V11.9355H19.4498V21.7897C19.4498 25.089 18.686 27.5178 17.1584 29.0761C15.6308 30.6345 13.2632 31.4148 10.0558 31.417C6.78507 31.417 4.38256 30.6401 2.84829 29.0862C1.31401 27.5324 0.546875 25.1002 0.546875 21.7897V11.9355H5.91461Z" fill="#1B2228"/>
<path d="M22.9004 38.9401V11.9352H28.0665V15.0289C28.7753 13.7821 29.6435 12.8494 30.6712 12.231C31.7616 11.598 33.0029 11.2778 34.2608 11.3051C36.8994 11.3051 38.9636 12.1868 40.4534 13.9501C41.9433 15.7135 42.6888 18.1742 42.6899 21.3323C42.6899 24.3762 41.9383 26.8173 40.4351 28.6557C38.9319 30.4941 36.9561 31.4144 34.5074 31.4167C33.0287 31.4167 31.7755 31.1394 30.7479 30.5849C29.7202 30.0303 28.8431 29.1615 28.1165 27.9785C28.1798 28.449 28.227 28.9616 28.2581 29.5161C28.2892 30.0706 28.3053 30.7042 28.3065 31.4167V38.9401H22.9004ZM27.8248 21.2752C27.8248 22.968 28.2381 24.2854 29.0647 25.2276C29.8913 26.1698 31.0434 26.6409 32.521 26.6409C33.9997 26.6409 35.1524 26.1698 35.9789 25.2276C36.8055 24.2854 37.2188 22.968 37.2188 21.2752C37.2188 19.5813 36.7988 18.247 35.9589 17.2723C35.119 16.2977 33.9608 15.8109 32.4843 15.812C31.0567 15.812 29.9229 16.3022 29.083 17.2824C28.2431 18.2627 27.8237 19.5936 27.8248 21.2752Z" fill="#1B2228"/>
<path d="M38.9611 2.28454L38.0879 7.42504L46.0553 6.7495L45.3854 14.7837L50.4848 13.9032L51.788 0.96875L38.9611 2.28454Z" fill="#1B2228"/>
</svg>
