<svg width="225" height="67" viewBox="0 0 225 67" fill="none" xmlns="http://www.w3.org/2000/svg">
<path d="M197.979 29.2042L189.535 52.7551L188.505 55.6229V36.789H180.066L188.505 13.2381L189.535 10.3704V29.2042H197.979Z" fill="#1B2228"/>
<path d="M126.329 53.7372H117.202L110.305 28.2042L103.403 53.7372H94.2754L102.531 23.192L105.739 11.313H114.866L118.074 23.192L126.329 53.7372Z" fill="#1B2228"/>
<path d="M213.901 21.1098L214.007 53.7372H205.039L205.15 21.1098H196.094V11.313H224.377L221.5 21.1098H213.901Z" fill="#1B2228"/>
<path d="M141.28 44.7028V11.313H131.986V53.7372H154.613V44.7028H141.28Z" fill="#1B2228"/>
<path d="M180.069 21.0699L182.896 11.313H160.27V53.7372H168.849V36.0439H173.872L176.1 28.3976H168.86V21.0699H180.069Z" fill="#1B2228"/>
<path d="M80.4747 26.9754L76.6456 26.6157H76.3903L64.2107 25.4736L69.4411 12.8025L70.9103 9.24498C71.1081 8.86482 71.1827 8.43191 71.1237 8.00694C71.0647 7.58196 70.875 7.18623 70.5813 6.87521L63.2747 0.650992C63.0718 0.434323 62.8249 0.264202 62.5508 0.152207C62.2767 0.0402123 61.9819 -0.0110266 61.6864 0.00197797C61.3908 0.0149825 61.1016 0.0919251 60.8382 0.227569C60.5749 0.363212 60.3437 0.554373 60.1603 0.788039L56.6432 4.46547L46.6533 14.9553C46.3507 15.3335 45.9281 15.5956 45.4564 15.6976L44.8153 15.8347L35.0864 17.9817C34.7358 18.0545 34.4107 18.2201 34.1448 18.4614L24.5009 27.1296L24.0585 27.5407C23.8017 27.7774 23.4893 27.9444 23.1508 28.0261L6.13233 33.3367L1.48628 34.7985C1.48628 34.7985 2.92151 41.1769 10.472 42.5874C11.0847 42.6901 11.7541 42.7758 12.4519 42.8272L11.652 43.5524L9.64381 45.3397L0 52.6831L6.09829 53.4026L8.28233 53.6767L9.58141 53.8309L5.9281 55.4469L4.79354 55.9494L4.06174 56.2749L4.62903 56.3092H4.78219L18.153 57.3427L20.3881 57.514L22.2205 57.6511L20.3087 59.7296H34.2298L33.7874 60.3007L32.199 62.4135L43.8339 60.2321L43.4936 66.936L48.7182 62.9388L51.2824 60.9802L73.0263 39.2126L81.7228 30.5101L84.8485 27.4094L80.4747 26.9754ZM37.7356 23.8119L31.314 24.954L35.8523 20.4828L42.9547 19.158L37.7356 23.8119ZM75.3635 31.0868L56.0305 51.3584L53.5515 53.9851L60.5064 35.9748L43.9701 34.3874L64.3923 12.9624L66.8713 10.3471L59.9221 28.3687L75.7096 29.8648L76.4584 29.9334L75.3635 31.0868Z" fill="#1B2228"/>
</svg>