<svg width="184" height="67" viewBox="0 0 184 67" fill="none" xmlns="http://www.w3.org/2000/svg">
<path d="M7.94449 63.1967C7.57531 63.2376 7.20384 63.2563 6.83225 63.2526C6.42356 63.2819 6.01301 63.2296 5.62626 63.0988C5.23951 62.968 4.8849 62.7615 4.58465 62.4924C4.3077 62.1884 4.0968 61.8339 3.96446 61.4498C3.83212 61.0657 3.78101 60.6599 3.81419 60.2565C3.76295 59.4977 4.02067 58.7496 4.5325 58.1715C4.78667 57.9212 5.09345 57.7263 5.43218 57.6C5.77092 57.4737 6.13375 57.4189 6.49628 57.4392C6.92334 57.4372 7.34528 57.5289 7.73015 57.7075C8.1237 57.911 8.44616 58.2221 8.65701 58.6019L9.42745 58.0876C9.21826 57.6064 8.84119 57.2109 8.36157 56.9697C7.80297 56.6937 7.18157 56.5572 6.55421 56.5728C6.05098 56.5415 5.54658 56.6135 5.07429 56.7841C4.60199 56.9546 4.17253 57.2198 3.81419 57.5622C3.13849 58.3249 2.79584 59.3108 2.85838 60.3124C2.78822 60.8221 2.84048 61.3406 3.01112 61.8278C3.18176 62.315 3.4662 62.7577 3.84248 63.1219C4.21875 63.4861 4.67678 63.7619 5.18113 63.928C5.68549 64.0941 6.22267 64.1461 6.75116 64.0799C7.13928 64.0799 7.5332 64.0799 7.94449 64.0351C8.34643 64.0083 8.74548 63.9503 9.13781 63.8619L9.02195 63.0234C8.66719 63.1043 8.30724 63.1622 7.94449 63.1967Z" fill="#1B2228"/>
<path d="M10.6584 2.82837H22.3555L32.9966 40.5388H26.1238L22.8345 28.9015H10.0813L6.84977 40.5388H0L10.6584 2.82837ZM21.1321 22.7099L17.2889 9.01997H15.6731L11.8876 22.7099H21.1321Z" fill="#1B2228"/>
<path d="M35.8242 0.00012207H42.4235V40.5388H35.8242V0.00012207Z" fill="#1B2228"/>
<path d="M47.1387 0.00012207H53.738V40.5388H47.1387V0.00012207Z" fill="#1B2228"/>
<path d="M58.4512 26.3942H64.7184L64.7745 27.0046C64.991 29.4769 65.721 31.4309 66.9643 32.8667C68.2077 34.3025 70.181 35.0223 72.8843 35.0261C73.8453 35.0284 74.8047 34.9456 75.7519 34.7785C76.5746 34.6392 77.3682 34.3568 78.0986 33.9435C78.7498 33.5747 79.299 33.0416 79.6948 32.3945C80.1129 31.6693 80.3191 30.8357 80.2885 29.9932C80.296 29.3263 80.1957 28.6627 79.9917 28.0296C79.7903 27.4132 79.4256 26.8668 78.9387 26.4518C77.8425 25.4414 76.5417 24.694 75.1302 24.2635C73.5956 23.7683 72.0909 23.3537 70.616 23.0197C68.8508 22.6271 67.1297 22.0482 65.4801 21.2922C63.9349 20.5601 62.5671 19.4842 61.4756 18.1423C60.8053 17.3616 60.3491 16.4116 60.1539 15.3897C59.9615 14.4426 59.8621 13.478 59.857 12.5105C59.8227 10.9049 60.1545 9.31341 60.8259 7.86341C61.4563 6.55946 62.3728 5.42397 63.5031 4.54652C64.6941 3.62976 66.0435 2.95366 67.4796 2.55409C69.062 2.10023 70.6982 1.87541 72.341 1.88611C76.3474 1.88611 79.4932 2.91879 81.7783 4.98417C84.0634 7.04954 85.2974 9.96333 85.4804 13.7255L85.5364 14.3359H79.2636L79.1572 13.8349C78.9591 12.2396 78.245 10.759 77.1297 9.63126C76.0992 8.69455 74.5571 8.22619 72.5035 8.22619C71.7237 8.22335 70.9454 8.29662 70.1792 8.44501C69.4792 8.57235 68.804 8.81544 68.1797 9.16482C67.6282 9.4698 67.1557 9.90619 66.8019 10.4374C66.4434 11.0138 66.2637 11.6886 66.2866 12.3723C66.2608 13.1436 66.5233 13.8958 67.0203 14.4741C67.6076 15.0979 68.3155 15.5883 69.0982 15.9138C69.5687 16.1326 70.0616 16.3399 70.588 16.5242C71.1145 16.7084 71.6577 16.8927 72.2346 17.1C72.8115 17.3073 73.4724 17.4513 74.0997 17.5952C74.727 17.7392 75.371 17.9119 76.0207 18.0962C77.3134 18.475 78.5849 18.9268 79.8293 19.4495C81.0796 19.9664 82.2466 20.675 83.2905 21.5513C84.4224 22.485 85.3235 23.6807 85.9201 25.0408C86.5168 26.4008 86.7922 27.8867 86.7238 29.3771C86.7228 29.9556 86.6778 30.5332 86.5893 31.1046C86.4997 31.6805 86.3989 32.2563 86.2925 32.8322C85.9384 34.4031 85.224 35.8641 84.209 37.0934C83.1545 38.3269 81.8785 39.3397 80.4509 40.0763C79.3631 40.6642 78.1844 41.0538 76.9673 41.228C75.7942 41.3933 74.6116 41.4779 73.4276 41.4814C70.5474 41.4981 67.7006 40.8466 65.0993 39.5753C63.3745 38.6807 61.8858 37.3702 60.7604 35.7558C59.6349 34.1414 58.9061 32.271 58.636 30.3042C58.5113 29.2302 58.4496 28.1495 58.4512 27.0679V26.3942Z" fill="#1B2228"/>
<path d="M106.8 39.7599C105.092 40.8888 103.114 41.4856 101.095 41.4809C99.6242 41.4979 98.1663 41.1869 96.8181 40.5688C95.5614 39.9974 94.4226 39.1752 93.4652 38.1479C92.5297 37.1473 91.7868 35.9669 91.2774 34.6714C90.7667 33.3883 90.5046 32.0116 90.5062 30.6212C90.4951 29.2554 90.7656 27.9031 91.2993 26.6571C91.8084 25.467 92.5544 24.4049 93.4871 23.5421C94.4677 22.6462 95.6071 21.9619 96.84 21.5285C98.1989 21.0414 99.6266 20.799 101.063 20.8114C101.839 20.8108 102.612 20.9228 103.36 21.1441C104.114 21.3647 104.847 21.6605 105.548 22.0276L105.493 19.6009H91.5673V13.1987H111.805V34.637H114.075V40.9474H107.429L106.8 39.7599ZM96.49 30.8851C96.4805 31.4799 96.5911 32.0701 96.8145 32.6168C97.0379 33.1636 97.3691 33.6546 97.7863 34.0575C98.2257 34.4882 98.7417 34.8239 99.3048 35.0454C99.8678 35.2668 100.467 35.3698 101.068 35.3483C102.308 35.3855 103.521 34.9675 104.498 34.1665C104.95 33.8127 105.316 33.3507 105.564 32.8189C105.812 32.2871 105.936 31.7009 105.925 31.1089C105.964 29.7438 105.491 28.4173 104.607 27.4144C104.136 26.9089 103.567 26.5148 102.939 26.2585C102.31 26.0023 101.637 25.8898 100.964 25.9286C100.343 25.8881 99.7212 25.9955 99.1452 26.2429C98.5693 26.4903 98.0542 26.8712 97.6386 27.357C96.8579 28.3466 96.4494 29.6015 96.49 30.8851Z" fill="#1B2228"/>
<path d="M118.466 19.3987H114.074V13.131H118.466V0H139.529V6.23934H124.707V13.1593H133.77V19.3987H124.663V40.5387H118.466V19.3987Z" fill="#1B2228"/>
<path d="M160.492 32.016L160.106 32.9047C159.126 35.3503 157.462 37.4641 155.312 38.9954C154.214 39.764 153.014 40.3756 151.746 40.8124C150.406 41.2697 148.998 41.4956 147.583 41.4804C145.618 41.5073 143.674 41.0791 141.904 40.2294C140.263 39.4383 138.792 38.3389 137.57 36.9916C135.792 35.0161 134.596 32.5899 134.113 29.9802C133.63 27.3704 133.879 24.6785 134.833 22.2008C135.457 20.5294 136.396 18.9924 137.599 17.6724C138.82 16.3412 140.28 15.2489 141.904 14.4516C143.672 13.5951 145.617 13.1665 147.583 13.2006C149.548 13.1737 151.492 13.6019 153.262 14.4516C154.898 15.2368 156.361 16.3372 157.567 17.6894C159.901 20.3684 161.195 23.7924 161.213 27.3405C161.214 28.0982 161.159 28.855 161.048 29.6047L160.941 30.1707H140.921C141.384 31.6072 142.225 32.8935 143.357 33.8953C144.364 34.7597 145.614 35.2918 146.936 35.4186C148.258 35.5453 149.588 35.2603 150.74 34.6029C151.69 34.0378 152.496 33.2632 153.097 32.3387L153.313 32.0104L160.492 32.016ZM154.131 24.4593C153.629 23.0576 152.781 21.8042 151.666 20.814C150.543 19.8202 149.084 19.2864 147.583 19.3196C146.06 19.2893 144.581 19.8331 143.443 20.8423C142.314 21.8264 141.456 23.081 140.949 24.4876L154.131 24.4593Z" fill="#1B2228"/>
<path d="M170.738 12.637L164.982 13.3801V9.20233L170.679 9.89036L166.122 6.76943L169.369 3.78061L172.733 7.74369L172.049 2.82837H176.771L176.028 7.68865L179.392 3.78061L182.698 6.79145L178.141 9.91238L183.838 9.22434V13.4021L178.064 12.637L182.704 15.89L179.339 18.8458L175.98 14.8827L176.777 19.7981H172.055L172.751 14.8607L169.386 18.8238L166.122 15.89L170.738 12.637Z" fill="#1B2228"/>
<path d="M20.6417 56.5659L18.2302 62.7407L18.1457 62.9392C18.0499 63.203 17.931 63.4593 17.79 63.7055C17.6576 63.9859 17.5025 64.2568 17.3258 64.516C17.0646 64.9234 16.711 65.2749 16.2889 65.547C15.8919 65.7831 15.4434 65.9374 14.9746 65.999L14.239 66.0928L14.2873 66.9363L15.1494 66.8315C15.7026 66.7699 16.235 66.6007 16.7109 66.3353C17.1937 66.0139 17.6033 65.6094 17.9166 65.1445C18.3526 64.4908 18.7142 63.7981 18.9958 63.077L21.6847 56.5659H20.6417ZM18.0854 62.9392L15.1916 56.5659H14.1426L17.4404 63.7331H18.2422V62.9668L18.0854 62.9392Z" fill="#1B2228"/>
<path d="M32.2924 56.8324C32.0371 56.5166 31.7274 56.27 31.3844 56.1094C31.0415 55.9488 30.6733 55.8781 30.3052 55.902C29.1529 55.902 28.4563 56.431 28.231 57.483H27.7598L28.1593 59.5018C28.1593 57.7019 28.8541 56.8019 30.2438 56.8019C30.508 56.7853 30.772 56.8389 31.0166 56.9588C31.2611 57.0787 31.48 57.262 31.6573 57.4952C32.0173 58.0626 32.1985 58.7619 32.1695 59.4714C32.1953 59.9681 32.1374 60.4659 31.9994 60.9357C31.8613 61.4055 31.6458 61.838 31.3654 62.2078C31.0579 62.5408 30.6974 62.7973 30.3051 62.9623C29.9128 63.1273 29.4966 63.1975 29.0812 63.1686C28.8572 63.1736 28.6332 63.1635 28.4103 63.1382C28.3319 63.1481 28.253 63.1481 28.1747 63.1382C28.0395 63.1256 27.9056 63.097 27.7752 63.053L27.3552 63.953C27.601 63.9956 27.8674 64.0381 28.0876 64.0503C28.3308 64.0822 28.5753 64.0984 28.82 64.0989C29.9378 64.1767 31.038 63.7413 31.8929 62.8828C32.2695 62.4445 32.5622 61.9152 32.7513 61.3308C32.9404 60.7464 33.0214 60.1206 32.9889 59.4958C33.0438 58.536 32.7955 57.5864 32.2924 56.8324ZM27.3398 52.7947V63.9226L28.1593 63.7888V52.7947H27.3398Z" fill="#1B2228"/>
<path d="M45.2455 59.9397C45.3073 59.0449 45.011 58.1604 44.4137 57.4566C44.1147 57.159 43.7494 56.9256 43.3435 56.7726C42.9375 56.6196 42.5006 56.5508 42.0631 56.5709C41.5914 56.545 41.1196 56.6199 40.6839 56.7899C40.2482 56.96 39.8602 57.2206 39.5497 57.5519C38.9093 58.3258 38.5943 59.2904 38.6637 60.2648C38.6292 60.7794 38.7041 61.2952 38.884 61.7828C39.064 62.2705 39.3455 62.7203 39.7125 63.1067C40.1147 63.4556 40.5899 63.7236 41.1083 63.8943C41.6268 64.065 42.1775 64.1346 42.7261 64.0989C43.0757 64.0989 43.4433 64.0989 43.805 64.054C44.1679 64.0295 44.5284 63.9808 44.8839 63.9083L44.7392 63.0675C44.437 63.132 44.1311 63.1807 43.8231 63.2132C43.4976 63.2132 43.2203 63.2525 42.9009 63.2525C42.0188 63.3015 41.1519 63.0233 40.49 62.4789C39.9786 61.9856 39.6859 61.3311 39.6703 60.646H45.2334C45.2554 60.4111 45.2595 60.1751 45.2455 59.9397ZM39.6402 59.8725C39.6402 59.2661 39.8516 58.676 40.2429 58.1909C40.4617 57.9446 40.7387 57.7487 41.0524 57.6184C41.366 57.4881 41.7078 57.427 42.051 57.4398C42.3575 57.4246 42.6637 57.4742 42.9466 57.5849C43.2295 57.6956 43.4818 57.8644 43.6844 58.0788C44.1122 58.5999 44.3259 59.2459 44.2871 59.9005L39.6402 59.8725Z" fill="#1B2228"/>
<path d="M57.0053 57.2398C56.8104 57.0047 56.5684 56.8222 56.2984 56.7067C56.0284 56.5912 55.7378 56.5458 55.4491 56.5741C54.2768 56.5741 53.6232 57.2512 53.4727 58.5998H53.011L53.4001 60.9214C53.3565 60.0262 53.5207 59.1334 53.8773 58.3267C54.0157 58.0381 54.2264 57.7989 54.4848 57.6376C54.7431 57.4763 55.0381 57.3994 55.335 57.4162C55.5237 57.3982 55.7136 57.4301 55.8887 57.5093C56.0639 57.5885 56.2191 57.7127 56.3413 57.8715C56.5744 58.3184 56.6793 58.832 56.6422 59.3452H57.4981C57.5574 58.6023 57.3835 57.8595 57.0053 57.2398ZM53.3742 58.5998L53.2134 56.7107H52.5338V64.108H53.3897V58.8502L53.3742 58.5998ZM53.0474 56.7107H51.1488V57.5414H53.0837L53.0474 56.7107ZM50.9102 63.2886V64.1023H55.2831V63.2886H50.9102Z" fill="#1B2228"/>
<path d="M69.2903 60.7827C68.848 60.3977 68.3137 60.1417 67.743 60.0412L66.4825 59.7178C66.1115 59.6518 65.7589 59.5034 65.4492 59.2829C65.3513 59.2106 65.2717 59.1152 65.2171 59.0045C65.1625 58.8939 65.1345 58.7714 65.1354 58.6474C65.1328 58.4475 65.1923 58.252 65.3052 58.0895C65.4181 57.927 65.5785 57.806 65.7629 57.7441C66.4216 57.5194 67.1151 57.423 67.808 57.4598C68.046 57.4598 68.2949 57.4598 68.5546 57.4598C68.8142 57.4598 69.1334 57.4988 69.4851 57.5267L69.5933 56.7127C69.2741 56.6737 68.9765 56.6347 68.7114 56.6179C68.4463 56.6012 68.1704 56.5789 67.8458 56.5789C66.9002 56.516 65.9534 56.6821 65.0813 57.064C64.8063 57.2154 64.5794 57.4452 64.4278 57.726C64.2762 58.0068 64.2063 58.3267 64.2265 58.6474C64.2197 58.8614 64.2572 59.0746 64.3365 59.2726C64.4158 59.4706 64.535 59.649 64.6863 59.7959C65.115 60.1574 65.6245 60.4027 66.1687 60.5095L67.743 60.9165C68.0575 60.9745 68.351 61.119 68.5924 61.3347C68.702 61.4497 68.783 61.5903 68.8283 61.7446C68.8737 61.8989 68.8821 62.0622 68.8529 62.2205C68.8236 62.3789 68.7576 62.5276 68.6604 62.6539C68.5632 62.7803 68.4378 62.8804 68.2949 62.9459C67.6872 63.1555 67.0468 63.2463 66.4067 63.2135C66.0729 63.2264 65.7386 63.2171 65.4059 63.1857C65.0048 63.1542 64.6056 63.1002 64.2102 63.024L64.1074 63.8881C64.4265 63.9635 64.75 64.0176 65.0759 64.0498C65.4437 64.0498 65.8765 64.0944 66.3905 64.0944C67.2731 64.1591 68.1572 63.9922 68.9603 63.6094C69.2192 63.4533 69.4311 63.2264 69.5724 62.9538C69.7138 62.6812 69.779 62.3735 69.761 62.065C69.7749 61.8291 69.7402 61.5929 69.659 61.3719C69.5779 61.1508 69.4522 60.95 69.2903 60.7827Z" fill="#1B2228"/>
<path d="M82.0095 59.9266C82.0711 59.0349 81.7758 58.1536 81.1802 57.4523C80.8821 57.1557 80.5179 56.9231 80.1132 56.7707C79.7084 56.6183 79.2728 56.5498 78.8366 56.5698C78.3621 56.5469 77.8883 56.6256 77.4517 56.7999C77.0152 56.9742 76.6275 57.2395 76.3188 57.5752C75.6835 58.3482 75.3679 59.3074 75.4294 60.2784C75.3974 60.7923 75.4749 61.3069 75.6574 61.7929C75.84 62.2788 76.1239 62.7265 76.493 63.1102C76.8939 63.458 77.3676 63.7253 77.8845 63.8954C78.4015 64.0655 78.9506 64.1347 79.4976 64.0988C79.8462 64.0988 80.2067 64.0988 80.5733 64.0541C80.9312 64.0303 81.2868 63.9818 81.6369 63.9089L81.5047 63.0711C81.2015 63.1358 80.8945 63.1843 80.5853 63.2163C80.2668 63.2163 79.9844 63.2554 79.6719 63.2554C78.7924 63.3048 77.9279 63.0276 77.2682 62.4846C76.757 61.9929 76.4613 61.3417 76.439 60.6582H82.0035C82.0249 60.4148 82.0269 60.1703 82.0095 59.9266ZM76.4029 59.8595C76.4162 59.2529 76.6373 58.6659 77.0339 58.184C77.2517 57.9382 77.5279 57.7428 77.8407 57.6129C78.1535 57.4831 78.4944 57.4224 78.8366 57.4355C79.1431 57.42 79.4495 57.4692 79.7326 57.5794C80.0157 57.6897 80.2682 57.8582 80.4711 58.0722C80.8977 58.5915 81.1108 59.2352 81.072 59.8875L76.4029 59.8595Z" fill="#1B2228"/>
<path d="M92.7545 63.2052C92.3802 63.2461 92.0037 63.2648 91.627 63.2613C91.2195 63.2932 90.8095 63.2418 90.424 63.1103C90.0384 62.9788 89.686 62.7702 89.3896 62.4982C88.8975 61.8817 88.6243 61.1283 88.6107 60.3501C88.5971 59.5718 88.8438 58.81 89.3141 58.1778C89.5768 57.9239 89.8926 57.7271 90.2403 57.6003C90.588 57.4736 90.9597 57.4199 91.3307 57.4428C91.7591 57.4407 92.1824 57.5328 92.5685 57.7121C92.9562 57.9216 93.2745 58.2329 93.4867 58.6098L94.2771 58.0936C94.0579 57.6109 93.6745 57.2149 93.1903 56.9714C92.6346 56.693 92.0146 56.5559 91.3888 56.5731C90.8839 56.5417 90.3779 56.614 89.9041 56.7851C89.4303 56.9563 88.9994 57.2225 88.64 57.5662C87.9642 58.3326 87.6225 59.3222 87.6869 60.3268C87.651 60.8351 87.721 61.3453 87.8927 61.8271C88.0643 62.309 88.3343 62.7527 88.6865 63.1322C89.0773 63.4755 89.5366 63.7382 90.0362 63.9042C90.5358 64.0701 91.0653 64.1358 91.5922 64.0973C91.9874 64.0973 92.3825 64.0973 92.7893 64.0524C93.1926 64.0255 93.5929 63.9673 93.9865 63.8785L93.8703 63.0368C93.5028 63.1176 93.13 63.1739 92.7545 63.2052Z" fill="#1B2228"/>
<path d="M105.545 63.1706V60.971H104.642V62.2565V62.5365L104.748 64.0334L106.533 63.9648V63.2678L105.545 63.1706ZM104.642 56.5659V61.8737H104.898L105.545 61.9137V56.5659H104.642ZM104.898 61.8851L104.725 60.971L104.642 60.5425C104.709 61.2721 104.532 62.0035 104.139 62.6164C103.947 62.8261 103.712 62.9896 103.45 63.0952C103.189 63.2009 102.908 63.2462 102.627 63.2278C102.149 63.2585 101.677 63.0942 101.316 62.7707C101.151 62.5982 101.024 62.392 100.942 62.1655C100.86 61.9391 100.826 61.6975 100.842 61.4566V56.5659H99.9383V61.4566C99.9176 61.8111 99.9656 62.1662 100.08 62.5016C100.193 62.8369 100.371 63.1459 100.602 63.4106C100.843 63.6523 101.131 63.8389 101.448 63.9581C101.764 64.0772 102.101 64.1263 102.438 64.1019C102.928 64.1206 103.41 63.9785 103.816 63.6963C104.196 63.4224 104.466 63.0162 104.575 62.5536H105.021L104.898 61.8851Z" fill="#1B2228"/>
<path d="M118.186 57.2394C117.963 57.005 117.687 56.8229 117.379 56.7075C117.071 56.592 116.739 56.5462 116.41 56.5736C115.077 56.5736 114.331 57.2508 114.16 58.5995H113.615L114.071 60.9213C114.015 60.0255 114.203 59.1313 114.616 58.3263C114.773 58.0377 115.014 57.7986 115.309 57.6372C115.604 57.4759 115.941 57.399 116.28 57.4158C116.495 57.3978 116.712 57.4297 116.912 57.5089C117.112 57.5881 117.289 57.7123 117.428 57.8711C117.697 58.317 117.817 58.8315 117.772 59.345H118.779C118.837 58.5987 118.628 57.8557 118.186 57.2394ZM114.041 58.5995L113.852 56.7102H113.076V64.108H114.053V58.8499L114.041 58.5995ZM113.65 56.7102H111.501V57.541H113.698L113.65 56.7102ZM111.246 63.2886V64.1023H116.244V63.2886H111.246Z" fill="#1B2228"/>
<path d="M127.42 63.2395V64.1078H130.101V63.2395H127.42ZM126.586 56.6205V64.0835H127.562V56.6205H126.586ZM127.592 53.0439C127.515 52.9628 127.423 52.8988 127.321 52.856C127.219 52.8131 127.11 52.7923 127 52.7949C126.89 52.793 126.781 52.8142 126.679 52.857C126.577 52.8998 126.485 52.9633 126.408 53.0439C126.329 53.1222 126.266 53.2167 126.224 53.3213C126.183 53.4258 126.162 53.5381 126.165 53.6511C126.161 53.7642 126.181 53.8769 126.223 53.9816C126.265 54.0863 126.328 54.1807 126.408 54.2583C126.485 54.3388 126.577 54.4024 126.679 54.4452C126.781 54.488 126.89 54.5092 127 54.5073C127.11 54.5099 127.219 54.4891 127.321 54.4462C127.423 54.4034 127.515 54.3394 127.592 54.2583C127.674 54.1816 127.74 54.0878 127.785 53.9832C127.83 53.8786 127.853 53.7654 127.852 53.6511C127.852 53.537 127.828 53.4242 127.784 53.3197C127.739 53.2152 127.673 53.1213 127.592 53.0439ZM123.952 56.2197V57.1063H127.562V56.2197H123.952ZM123.502 63.2395V64.1078H126.745V63.2395H123.502Z" fill="#1B2228"/>
<path d="M141.308 63.0495L140.536 63.165C140.278 63.165 140.032 63.165 139.758 63.165C139.49 63.1917 139.219 63.1556 138.964 63.0591C138.71 62.9626 138.477 62.8081 138.282 62.6058C137.928 62.1286 137.757 61.5207 137.807 60.9099V59.6456H136.889V60.9281C136.826 61.7873 137.068 62.64 137.566 63.3109C137.837 63.5954 138.161 63.8128 138.516 63.9482C138.871 64.0836 139.249 64.1337 139.624 64.095C139.948 64.095 140.251 64.095 140.536 64.0464C140.821 63.9978 141.095 63.9735 141.414 63.9188L141.308 63.0495ZM136.889 53.7373V60.2656H137.807V53.7373H136.889ZM134.814 56.1079V56.9954H141.145V56.1079H134.814Z" fill="#1B2228"/>
<path d="M152.772 56.5659L150.66 62.7407L150.581 62.9392C150.499 63.2028 150.397 63.4591 150.275 63.7055C150.156 63.9875 150.015 64.2586 149.853 64.516C149.626 64.9253 149.316 65.2773 148.945 65.547C148.6 65.7813 148.211 65.9355 147.804 65.999L147.155 66.0928L147.192 66.9363L147.957 66.8315C148.438 66.7699 148.901 66.6006 149.314 66.3353C149.742 66.0198 150.102 65.6141 150.37 65.1445C150.762 64.495 151.082 63.8015 151.326 63.077L153.67 56.5659H152.772ZM150.523 62.9392L148.005 56.5659H147.07L149.958 63.7331H150.666V62.9668L150.523 62.9392Z" fill="#1B2228"/>
</svg>