<svg width="182" height="74" viewBox="0 0 182 74" fill="none" xmlns="http://www.w3.org/2000/svg">
<path d="M55.7727 48.625H17.7937C17.7086 48.625 17.615 48.625 17.5469 48.6676V48.8549C17.5469 49.2805 17.5469 49.2805 17.964 49.2805H55.4237C56.0367 49.2805 56.0367 49.2805 56.0197 48.6676C55.943 48.625 55.8494 48.625 55.7727 48.625Z" fill="#1B2228"/>
<path d="M17.7937 22.5054C17.7086 22.5054 17.615 22.5054 17.5469 22.548V22.7353C17.5469 23.161 17.5469 23.161 17.964 23.161H55.4237C56.0367 23.161 56.0367 23.161 56.0197 22.548C55.9516 22.4799 55.8579 22.5054 55.7813 22.5054H17.7937Z" fill="#1B2228"/>
<path d="M17.9127 46.0031C17.9127 45.935 17.8531 45.918 17.7935 45.918H17.5552C17.3013 45.9309 17.0472 45.8962 16.806 45.8158C16.7095 45.7866 16.6218 45.734 16.5505 45.6627C16.4792 45.5914 16.4266 45.5037 16.3973 45.4072C16.3146 45.1092 16.3146 44.7943 16.3973 44.4962C16.6198 43.6307 16.8898 42.778 17.2061 41.9422C17.6148 40.7588 18.0575 39.5754 18.4151 38.3835H24.4256C24.9932 39.8478 25.5608 41.3178 26.1284 42.7935C26.4093 43.5172 26.6817 44.2579 26.9797 44.99C27.1415 45.4242 27.1159 45.5094 26.7498 45.8414C26.7077 45.927 26.6707 46.0152 26.6392 46.1053H32.1048C32.1048 46.1053 32.0282 46.0031 31.9687 46.0031C31.8525 45.9945 31.7358 45.9945 31.6196 46.0031C31.1255 46.0535 30.6286 45.9389 30.2066 45.677C29.7846 45.4152 29.4611 45.0209 29.2869 44.5558C28.8016 43.3725 28.3163 42.1976 27.8481 41.0057C27.0648 39.005 26.3071 37.0043 25.5324 35.0462L23.3104 29.291C22.9443 28.312 22.5612 27.3499 22.1695 26.3879C22.1499 26.2818 22.1036 26.1824 22.0351 26.0991C21.9666 26.0157 21.8781 25.951 21.7779 25.9111C21.594 26.0536 21.4647 26.255 21.4118 26.4815C20.7818 28.1843 20.1603 29.887 19.5473 31.5897C18.6449 34.0416 17.7425 36.485 16.8486 38.9369L15.0692 43.7896C14.9851 44.0162 14.8885 44.2378 14.7798 44.4537C14.7444 44.6118 14.6646 44.7565 14.5499 44.8708C14.4156 45.2129 14.1849 45.5087 13.8859 45.7222C13.5273 45.9664 13.1022 46.0942 12.6684 46.0883H12.1661C12.115 46.0883 12.0469 46.0883 12.0554 46.1904C12.0639 46.2926 12.0554 46.1904 12.0554 46.1904H17.9127C17.9376 46.1904 17.9614 46.1806 17.979 46.163C17.9965 46.1454 18.0064 46.1216 18.0064 46.0968C18.0064 46.072 17.9965 46.0481 17.979 46.0306C17.9614 46.013 17.9376 46.0031 17.9127 46.0031ZM18.8577 37.115C19.3232 35.7074 19.7857 34.2885 20.2455 32.8582C20.4668 32.1856 20.6797 31.5045 20.9095 30.832C21.0118 30.4298 21.1544 30.0391 21.3352 29.6656C21.4853 29.897 21.5921 30.1537 21.6502 30.4233C22.2972 32.2367 22.9358 34.0671 23.5743 35.8805C23.7446 36.3743 23.9148 36.8596 24.0936 37.3448H19.0195C18.7641 37.3874 18.7641 37.3108 18.8408 37.115H18.8577Z" fill="#1B2228"/>
<path d="M52.7498 29.1543C52.3837 28.1752 52.0091 27.2132 51.6175 26.2512C51.5409 26.0554 51.4557 25.8425 51.2173 25.7744C51.0334 25.9169 50.9042 26.1183 50.8513 26.3448C50.2213 28.0475 49.6083 29.7502 48.9868 31.453L46.288 38.8002C45.7204 40.4177 45.1273 42.0353 44.5086 43.6529C44.4245 43.8794 44.3279 44.1011 44.2192 44.317C44.1838 44.475 44.1041 44.6198 43.9893 44.7341C43.8577 45.0777 43.6264 45.3741 43.3253 45.5855C42.9698 45.8295 42.5475 45.9574 42.1163 45.9516H41.6055C41.5545 45.9516 41.4864 45.9516 41.4949 46.0537C41.5034 46.1559 41.4949 46.0537 41.4949 46.0537H47.3522C47.3522 45.9856 47.2926 45.9686 47.233 45.9686H47.0031C46.7464 45.9819 46.4895 45.9473 46.2454 45.8664C46.149 45.8372 46.0612 45.7846 45.9899 45.7133C45.9186 45.642 45.866 45.5542 45.8368 45.4578C45.7475 45.1607 45.7475 44.8439 45.8368 44.5468C46.0525 43.6803 46.3198 42.8274 46.637 41.9928C47.0457 40.8094 47.4884 39.626 47.846 38.4341H53.865C54.4184 39.8984 54.9803 41.3713 55.5678 42.8441C55.8402 43.5678 56.1126 44.3084 56.4191 45.0406C56.5809 45.4748 56.5554 45.5599 56.1893 45.892C56.1477 45.9768 56.1135 46.0651 56.0871 46.1559H61.5443C61.5443 46.0707 61.4677 46.0537 61.4166 46.0537C61.2975 46.0454 61.1781 46.0454 61.059 46.0537C60.5649 46.1041 60.0681 45.9894 59.646 45.7276C59.224 45.4657 58.9006 45.0715 58.7263 44.6064C58.241 43.423 57.7558 42.2482 57.2875 41.0563C56.5043 39.0556 55.7466 37.0549 54.9719 35.0968C54.1971 33.1386 53.499 31.0699 52.7498 29.1543ZM48.493 37.3784C48.2716 37.3784 48.2546 37.3103 48.3142 37.1145C48.7796 35.7069 49.2422 34.288 49.702 32.8577C49.9233 32.1851 50.1361 31.504 50.366 30.8315C50.4682 30.4293 50.6108 30.0386 50.7917 29.6651C50.9418 29.8965 51.0485 30.1532 51.1067 30.4228C51.7537 32.2362 52.3922 34.0666 53.0307 35.88C53.201 36.3738 53.3798 36.8591 53.55 37.3443L48.493 37.3784Z" fill="#1B2228"/>
<path d="M32.8119 26.2941C32.8119 26.2515 32.7608 26.2175 32.7182 26.2004H32.5139C31.4497 26.2004 30.394 26.2771 29.3298 26.2515C28.8828 26.2088 28.4337 26.1918 27.9847 26.2004H27.4228C27.3632 26.2004 27.2695 26.2004 27.2695 26.3026C27.2695 26.4048 27.3632 26.3877 27.4228 26.3877C27.6143 26.379 27.8062 26.3962 27.9932 26.4388C28.3338 26.4702 28.6542 26.6139 28.9041 26.8475C29.1595 27.0944 29.3469 27.3838 29.5767 27.6477C29.5767 27.6988 29.6448 27.7669 29.6874 27.8265C30.3174 28.7715 30.9474 29.725 31.5434 30.6956C32.6161 32.3983 33.6632 34.1691 34.7189 35.9144C35.3835 36.9234 35.7223 38.1121 35.6895 39.3198C35.6895 40.3585 35.6895 41.3971 35.6895 42.4358C35.6895 43.0317 35.6895 43.6362 35.6299 44.2236C35.6186 44.6746 35.505 45.117 35.2978 45.5177C35.2408 45.6203 35.1615 45.7087 35.0657 45.7765C34.9699 45.8443 34.8601 45.8897 34.7445 45.9093C34.4979 45.9263 34.2504 45.9263 34.0038 45.9093C33.9357 45.9093 33.842 45.9093 33.842 45.9945C33.842 46.0796 33.842 46.037 33.842 46.0455H40.44C40.44 45.9774 40.3804 45.9604 40.3208 45.9604H39.9973H39.2141C38.9702 45.9501 38.736 45.8619 38.546 45.7086C38.356 45.5554 38.2201 45.3452 38.1584 45.1091C37.9968 44.5188 37.9278 43.9071 37.954 43.2957C37.954 41.6525 37.954 40.0094 37.954 38.3578C37.9557 37.7661 38.0957 37.1831 38.3627 36.6551C38.8906 35.5909 39.495 34.5693 40.0654 33.5476C40.7721 32.3132 41.5212 31.0957 42.2789 29.8953C42.9095 28.8758 43.6273 27.913 44.4244 27.0177C44.6683 26.7969 44.9554 26.6291 45.2676 26.525C45.5797 26.421 45.9101 26.3829 46.2378 26.4133C46.214 26.3821 46.1829 26.3572 46.1473 26.3408C46.1117 26.3245 46.0726 26.3172 46.0335 26.3196C46.0715 26.3215 46.1087 26.3316 46.1425 26.3492C46.1763 26.3669 46.2059 26.3916 46.2293 26.4218C46.3059 26.4218 46.3314 26.3366 46.2293 26.2941C46.143 26.2403 46.0403 26.2191 45.9398 26.2345C44.9692 26.2345 44.0072 26.3196 43.0367 26.2771C42.611 26.2771 42.1853 26.2175 41.7851 26.2345C41.5723 26.2345 41.351 26.1579 41.1382 26.3366C41.2307 26.3923 41.3366 26.4217 41.4446 26.4218C41.5509 26.4166 41.6569 26.4367 41.754 26.4804C41.851 26.5241 41.9363 26.5903 42.0028 26.6734C42.0693 26.7565 42.115 26.8542 42.1364 26.9585C42.1578 27.0627 42.1541 27.1706 42.1257 27.2731C42.0443 27.6098 41.9303 27.9377 41.7851 28.2522C41.3595 29.1631 40.8231 30.006 40.3208 30.8829C39.2737 32.7133 38.1839 34.5267 37.2134 36.4082C37.1623 36.3316 37.1027 36.2549 37.0601 36.1783L35.5192 33.5561C35.0084 32.7048 34.5061 31.8534 34.0038 31.0021C33.5015 30.1507 32.9907 29.2994 32.4969 28.3884C32.1872 27.9062 31.984 27.3634 31.9009 26.7964H31.6285C31.5689 26.7964 31.4837 26.7964 31.4582 26.7453C31.4326 26.6942 31.4582 26.7453 31.4582 26.7027C31.4582 26.6602 31.4582 26.7027 31.4582 26.7453C31.4582 26.7879 31.5689 26.7879 31.6285 26.7879H31.9009C31.9532 26.6719 32.0355 26.572 32.1393 26.4984C32.3131 26.4219 32.5047 26.3954 32.6927 26.4218C32.6126 26.3717 32.5225 26.3397 32.4287 26.3281C32.5228 26.3383 32.6132 26.3703 32.6927 26.4218C32.6927 26.4218 32.7948 26.3281 32.8119 26.2941ZM44.5436 26.5154C44.6999 26.4463 44.8623 26.3922 45.0288 26.3537C44.8623 26.3922 44.6999 26.4463 44.5436 26.5154H44.4584H44.5436Z" fill="#1B2228"/>
<path d="M38.1149 21.3818C38.0298 21.3818 37.9361 21.3818 37.834 21.3818C37.8511 21.4115 37.876 21.4359 37.906 21.4525C37.936 21.469 37.97 21.4769 38.0042 21.4755C38.6336 21.5651 39.2742 21.5391 39.8943 21.3988C40.7577 21.213 41.6104 20.98 42.4483 20.7007C42.9499 20.5407 43.4715 20.4519 43.9978 20.4368C44.4439 20.4205 44.8889 20.4898 45.3089 20.6411C45.3089 20.5049 45.1812 20.5134 45.1131 20.4794C44.3822 20.2193 43.5897 20.1866 42.84 20.3857C41.8354 20.5986 40.8818 20.9647 39.8857 21.1945C39.3116 21.3636 38.7116 21.427 38.1149 21.3818Z" fill="#1B2228"/>
<path d="M29.9169 20.4707C30.6189 20.5763 31.309 20.7502 31.9772 20.99C32.9999 21.3503 34.077 21.5317 35.1613 21.5263C35.4542 21.5104 35.7422 21.4442 36.0126 21.3305H35.8849C35.2931 21.4837 34.6719 21.4837 34.0801 21.3305C33.3014 21.1762 32.5335 20.9715 31.7814 20.7175C31.1775 20.5003 30.5479 20.3629 29.9084 20.3089C29.2838 20.2248 28.6489 20.3505 28.1035 20.6665C28.1801 20.6665 28.2738 20.6665 28.3504 20.6154C28.8557 20.4528 29.3904 20.4034 29.9169 20.4707Z" fill="#1B2228"/>
<path d="M36.3702 19.8492C36.5064 19.8492 36.5405 20.0365 36.6852 20.0365C36.6279 19.9244 36.5466 19.8265 36.4469 19.7496C36.3472 19.6728 36.2318 19.619 36.1088 19.5921C35.9859 19.5653 35.8585 19.566 35.7359 19.5943C35.6133 19.6225 35.4984 19.6776 35.3996 19.7556C35.2487 19.9528 35.0677 20.1252 34.8633 20.2664C35.1698 20.2664 35.4683 20.1679 35.7146 19.9854C35.9083 19.8592 36.1423 19.8106 36.3702 19.8492Z" fill="#1B2228"/>
<path d="M36.873 20.0365C36.9651 19.9368 37.0865 19.869 37.2197 19.843C37.3529 19.817 37.4909 19.8341 37.6137 19.8918C37.7787 19.9517 37.9383 20.0257 38.0905 20.1132C38.174 20.1776 38.2709 20.2225 38.374 20.2446C38.4771 20.2667 38.5839 20.2654 38.6864 20.2409C38.6105 20.2308 38.5382 20.2022 38.4758 20.1577C38.4135 20.1132 38.363 20.054 38.3288 19.9854C38.2443 19.8393 38.1182 19.7217 37.9666 19.6474C37.815 19.5731 37.6448 19.5456 37.4775 19.5683C37.3411 19.5757 37.2102 19.6245 37.1023 19.7082C36.9943 19.7918 36.9143 19.9063 36.873 20.0365Z" fill="#1B2228"/>
<path d="M36.3956 19.4663C36.5489 19.5259 36.6169 19.6876 36.7276 19.7472C36.8383 19.8068 36.8809 19.4918 37.0682 19.5089C37.1108 19.5089 37.1618 19.4407 37.1533 19.3811C37.1448 19.3216 37.1022 19.313 37.0511 19.296C37.0001 19.279 36.8128 19.2194 36.7957 19.0661C36.8703 19.0408 36.9511 19.0408 37.0256 19.0661C37.0256 18.9725 36.949 18.9299 36.9149 18.9299C36.8809 18.9299 36.8383 18.9725 36.7957 19.0661H36.6595C36.6595 19.2534 36.4978 19.2534 36.3956 19.3045C36.2935 19.3556 36.2764 19.4237 36.3956 19.4663Z" fill="#1B2228"/>
<path d="M36.787 18.4105L36.8381 18.2828C36.9999 17.9507 36.9999 17.9507 36.7615 17.6357C36.6508 17.7209 36.6253 17.8656 36.472 17.8997C36.3188 17.9337 36.4124 17.9848 36.472 18.0103C36.5316 18.0359 36.6423 18.2572 36.787 18.4105Z" fill="#1B2228"/>
<path d="M38.0474 19.0148C38.1666 19.0148 38.3709 19.0574 38.3368 18.7935C38.3368 18.7339 38.439 18.7168 38.5156 18.7509C38.5923 18.785 38.5752 18.8616 38.6518 18.8446C38.6518 18.6658 38.5242 18.5721 38.3624 18.6573C38.2006 18.7424 38.1581 18.6998 38.0474 18.5977C38.107 18.8275 37.9452 18.9212 37.8516 19.0574L38.0474 19.0148Z" fill="#1B2228"/>
<path d="M36.8546 20.6497C36.8377 20.5226 36.8377 20.3937 36.8546 20.2666C36.8546 20.19 36.8546 20.1389 36.7609 20.1304C36.7524 20.3092 36.6417 20.5305 36.8546 20.6497Z" fill="#1B2228"/>
<path d="M34.9396 18.7339H34.8808C34.8757 18.7474 34.8757 18.7623 34.8808 18.7758C34.8808 18.7758 34.8808 18.8178 34.9228 18.7758C34.9647 18.7339 34.9396 18.7758 34.9396 18.7339Z" fill="#1B2228"/>
<path d="M36.123 21.2453C36.1454 21.2491 36.1683 21.2453 36.1883 21.2346C36.2082 21.2238 36.224 21.2067 36.2331 21.186C36.1654 21.169 36.14 21.2114 36.123 21.2453Z" fill="#1B2228"/>
<path d="M36.6841 20.0366C36.6823 20.0545 36.6852 20.0725 36.6927 20.0888C36.7001 20.1051 36.7117 20.1192 36.7263 20.1295C36.7263 20.0873 36.7179 20.0535 36.6841 20.0366Z" fill="#1B2228"/>
<path d="M36.5234 51.8257C36.5827 51.8257 36.6166 51.8257 36.6166 51.741C36.6166 51.6563 36.5742 51.741 36.5658 51.741V51.7918L36.5234 51.8257Z" fill="#1B2228"/>
<path d="M37.8087 51.0684C37.9534 51.2557 38.1747 51.3324 38.328 51.5026C38.4143 51.6017 38.4692 51.7242 38.4859 51.8545C38.5026 51.9848 38.4802 52.1172 38.4217 52.2348C38.3195 52.4391 38.1577 52.5072 37.8512 52.4476C37.8109 52.4389 37.7691 52.4398 37.7292 52.4501C37.6893 52.4605 37.6524 52.48 37.6214 52.5072C37.696 52.5928 37.7509 52.6936 37.7822 52.8027C37.8135 52.9118 37.8205 53.0264 37.8026 53.1385C37.7848 53.2506 37.7425 53.3574 37.6788 53.4513C37.6151 53.5452 37.5316 53.624 37.4341 53.6821C37.2649 53.7863 37.1198 53.9251 37.0083 54.0895C36.8967 54.2538 36.8213 54.44 36.787 54.6356C36.7035 54.2729 36.4881 53.9543 36.1826 53.7417C36.0006 53.621 35.8584 53.4492 35.7739 53.2479C35.7375 53.1207 35.7333 52.9865 35.7615 52.8572C35.7898 52.7279 35.8496 52.6077 35.9357 52.5072C35.9017 52.4763 35.8596 52.4558 35.8143 52.4483C35.769 52.4407 35.7224 52.4464 35.6803 52.4647C35.6344 52.4839 35.5852 52.4938 35.5355 52.4938C35.4858 52.4938 35.4367 52.4839 35.3908 52.4647C35.3038 52.4422 35.2265 52.3916 35.1711 52.3208C35.1157 52.25 35.0852 52.1629 35.0843 52.073C35.055 51.9553 35.0603 51.8317 35.0996 51.7169C35.1388 51.6021 35.2104 51.5011 35.3057 51.426C35.4993 51.3217 35.6747 51.1866 35.825 51.0259C35.195 51.1876 35.0928 51.2387 34.8885 51.4516C34.7899 51.568 34.7283 51.7113 34.7116 51.8629C34.6949 52.0146 34.7239 52.1678 34.7949 52.3029C34.8655 52.4186 34.9716 52.5085 35.0973 52.5591C35.2231 52.6097 35.3619 52.6184 35.493 52.5839C35.5441 52.5839 35.5866 52.5413 35.6121 52.5839C35.6377 52.6264 35.6121 52.652 35.6121 52.6775C35.5484 52.7551 35.5019 52.8453 35.4758 52.9422C35.4497 53.0391 35.4445 53.1405 35.4606 53.2396C35.4767 53.3387 35.5137 53.4332 35.5692 53.5168C35.6247 53.6005 35.6974 53.6713 35.7824 53.7247C36.1826 54.0056 36.6338 54.2355 36.8296 54.8144C36.9008 54.519 37.08 54.2608 37.3319 54.0908C37.5022 53.9545 37.6809 53.8439 37.8597 53.7077C37.9528 53.6586 38.0328 53.5878 38.0927 53.5014C38.1527 53.4149 38.191 53.3153 38.2043 53.2109C38.2177 53.1066 38.2058 53.0005 38.1695 52.9017C38.1332 52.803 38.0737 52.7144 37.996 52.6435L37.9449 52.5668C38.0045 52.5243 38.0555 52.5668 38.1066 52.5668C38.2022 52.5937 38.3028 52.5977 38.4002 52.5783C38.4976 52.5589 38.589 52.5168 38.667 52.4554C38.745 52.394 38.8075 52.315 38.8492 52.2249C38.8908 52.1348 38.9106 52.0361 38.9069 51.9368C38.8643 51.4686 38.4301 51.1025 37.8087 51.0684Z" fill="#1B2228"/>
<path d="M36.3613 51.0177C36.2592 51.0177 36.2166 51.1624 36.1911 51.3071C36.3188 51.1539 36.4039 51.1539 36.438 51.3071C36.472 51.4604 36.4976 51.4689 36.5827 51.4774C36.6678 51.4859 36.6764 51.5966 36.6594 51.6732L36.7104 51.6221C36.7486 51.6831 36.7665 51.7546 36.7615 51.8264C36.7615 51.9371 36.7615 52.0648 36.6679 52.0989C36.5742 52.1329 36.6083 52.0989 36.5827 52.0989C36.421 52.0989 36.3103 52.167 36.3444 52.3373C36.3632 52.4094 36.3859 52.4804 36.4124 52.5501C36.4124 52.6352 36.4124 52.6863 36.3273 52.7289C36.2422 52.7714 36.2166 52.7289 36.1741 52.6693C36.1315 52.6097 36.174 52.5501 36.0889 52.5501C36.0646 52.5879 36.0495 52.6309 36.0446 52.6756C36.0398 52.7203 36.0455 52.7655 36.0612 52.8077C36.0769 52.8498 36.1022 52.8877 36.1351 52.9184C36.1679 52.949 36.2075 52.9716 36.2507 52.9843C36.303 52.9975 36.3542 53.0145 36.4039 53.0354C36.5912 53.146 36.753 53.4866 37.0169 53.146C37.2127 53.146 37.3149 52.9758 37.4766 52.9077C37.6384 52.8396 37.5958 52.6863 37.4766 52.5501C37.4085 52.6267 37.4085 52.78 37.2638 52.7289C37.1191 52.6778 37.1616 52.5671 37.2042 52.4564C37.23 52.4093 37.2446 52.3569 37.2468 52.3032C37.2468 52.184 37.2468 52.0478 37.0509 52.0733C36.8551 52.0989 36.8722 52.0733 36.8552 52.0052C36.8381 51.9371 36.8552 51.9371 36.8552 51.9116C36.8426 51.8699 36.8426 51.8255 36.8552 51.7839C36.8597 51.77 36.8597 51.7551 36.8552 51.7413L36.9403 51.6902C36.8892 51.5881 36.7445 51.4774 36.9999 51.4348C37.068 51.4348 37.085 51.3582 37.1105 51.3071C37.1361 51.256 37.2212 51.1113 37.3659 51.3071C37.3659 51.1454 37.3149 51.0262 37.2042 51.0006C37.0935 50.9751 37.0339 51.1624 36.8892 51.2475C36.9301 51.1836 36.9466 51.1071 36.9357 51.0321C36.9247 50.957 36.8871 50.8884 36.8296 50.8389C36.8296 50.8389 36.7615 50.8389 36.7274 50.8389C36.6934 50.8389 36.6253 51.0772 36.6508 51.239C36.5316 51.1794 36.5061 50.9836 36.3613 51.0177ZM36.7785 52.0478C36.8551 52.2777 36.9062 52.4479 36.9658 52.6097C36.9912 52.716 36.9912 52.8269 36.9658 52.9332C36.9658 53.0439 36.8892 53.1801 36.753 53.1716C36.6168 53.1631 36.5657 53.0439 36.5487 52.8992C36.5734 52.5984 36.6512 52.3044 36.7785 52.0308V52.0478Z" fill="#1B2228"/>
<path d="M35.8516 51.7836L35.6558 51.9539C35.6047 51.9965 35.5366 52.039 35.4685 51.9539C35.445 51.9251 35.4322 51.889 35.4322 51.8517C35.4322 51.8145 35.445 51.7784 35.4685 51.7496C35.5041 51.6874 35.544 51.6276 35.5877 51.5708C35.4004 51.6304 35.3153 51.7155 35.3067 51.8688C35.2993 51.9381 35.3122 52.008 35.344 52.07C35.3758 52.132 35.425 52.1834 35.4855 52.2178C35.6605 52.283 35.8514 52.2918 36.0316 52.2429C36.2117 52.1941 36.3721 52.09 36.4901 51.9454C36.4901 51.8688 36.3624 51.988 36.3284 51.8773C36.2943 51.7666 36.0304 51.6134 35.8516 51.7836Z" fill="#1B2228"/>
<path d="M37.8595 51.9283C37.8071 51.8844 37.7587 51.836 37.7148 51.7836C37.6713 51.7341 37.6131 51.6999 37.5487 51.6861C37.4843 51.6723 37.4172 51.6796 37.3572 51.707H37.3146V51.8091C37.3188 51.8345 37.3188 51.8604 37.3146 51.8858H37.221C37.213 51.882 37.2043 51.88 37.1955 51.88C37.1867 51.88 37.1779 51.882 37.1699 51.8858C37.3778 52.0698 37.6419 52.1779 37.9191 52.1923C38.0174 52.1916 38.1124 52.1562 38.1871 52.0923C38.2619 52.0284 38.3117 51.9402 38.3278 51.8432C38.3278 51.6644 38.2767 51.5027 38.0553 51.4941C38.0553 51.4941 38.1149 51.5793 38.1405 51.6304C38.1583 51.6447 38.1726 51.6629 38.1824 51.6835C38.1923 51.7041 38.1974 51.7267 38.1974 51.7495C38.1974 51.7724 38.1923 51.795 38.1824 51.8156C38.1726 51.8362 38.1583 51.8544 38.1405 51.8687C37.9872 52.0305 37.9276 52.0305 37.8595 51.9283Z" fill="#1B2228"/>
<path d="M27.3541 66.5975C27.2628 66.5342 27.1623 66.4854 27.0561 66.4527C26.9378 66.4324 26.8169 66.4324 26.6985 66.4527C26.5806 66.4623 26.4666 66.5002 26.3665 66.5634C26.2668 66.6406 26.1951 66.7482 26.1622 66.8699C26.1062 67.0122 26.1062 67.1704 26.1622 67.3126C26.2406 67.4649 26.351 67.5985 26.4857 67.7042L26.5879 67.7894C26.6753 67.8573 26.7552 67.9344 26.8262 68.0192C26.8713 68.0694 26.9009 68.1315 26.9114 68.198C26.928 68.2593 26.928 68.324 26.9114 68.3853C26.8966 68.4456 26.8671 68.5013 26.8255 68.5474C26.7839 68.5934 26.7315 68.6284 26.673 68.6492C26.5342 68.6914 26.3861 68.6914 26.2473 68.6492L26.0345 68.5556C25.9783 68.5195 25.9292 68.4733 25.8898 68.4194L25.9664 68.0107L25.762 67.9511L25.5918 68.4364C25.6582 68.5177 25.7355 68.5893 25.8216 68.6492C25.9276 68.7272 26.0455 68.7876 26.1707 68.828C26.2832 68.8652 26.4013 68.8825 26.5197 68.8791H26.5879C26.7128 68.8652 26.8325 68.8214 26.9369 68.7514C27.0357 68.6717 27.1095 68.5653 27.1497 68.4449C27.1697 68.3466 27.1697 68.2453 27.1497 68.1469C27.129 68.0422 27.0855 67.9434 27.0221 67.8575C26.9322 67.7409 26.8261 67.6377 26.7071 67.551L26.6049 67.4573C26.5079 67.3895 26.4289 67.2989 26.375 67.1934C26.3556 67.1492 26.3455 67.1013 26.3455 67.053C26.3455 67.0046 26.3556 66.9568 26.375 66.9125C26.3883 66.8584 26.4146 66.8083 26.4517 66.7668C26.4888 66.7252 26.5356 66.6934 26.5879 66.6741C26.707 66.6363 26.8349 66.6363 26.9539 66.6741C27.0602 66.7068 27.1568 66.7653 27.2349 66.8444L27.1583 67.2445L27.3626 67.3126L27.5243 66.8444C27.4791 66.7547 27.4219 66.6716 27.3541 66.5975Z" fill="#1B2228"/>
<path d="M30.9627 67.6614L31.2436 67.7465L30.1539 68.6575V68.4361C30.1539 68.2829 30.205 68.1381 30.239 67.9934L30.3157 67.5762H30.6732V67.3975L29.8304 67.2612V67.44L30.1624 67.5251L30.0858 67.9423L30.0347 68.2233L29.9666 68.5893C29.9666 68.7426 29.907 68.8958 29.8815 69.0491C29.8559 69.2023 29.8219 69.3215 29.7964 69.4662H29.4473V69.645L30.4093 69.8323V69.6535L30.0688 69.5599V69.4833C30.0688 69.4066 30.0688 69.33 30.0688 69.2619C30.0688 69.1938 30.0688 69.0831 30.1199 69.0065L30.5625 68.6404L30.9371 69.7387H30.6477V69.9175L31.5416 70.0877V69.9089L31.2436 69.8238L30.7839 68.4957L31.5331 67.8742H31.8481V67.6954L30.9967 67.5422L30.9627 67.6614Z" fill="#1B2228"/>
<path d="M33.8753 68.0614L34.2243 68.1125V68.5297L34.1733 69.1852C34.1733 69.2959 34.1733 69.4066 34.1733 69.5173V69.6535V70.0792H33.8242V70.2579L34.8033 70.3261V70.1473L34.4627 70.0962C34.4627 69.9685 34.4627 69.8408 34.4627 69.7046V69.2363V69.0575C34.4627 68.8958 34.4627 68.7425 34.4627 68.5893V68.2743V68.1636H34.8118V67.9763L33.8327 67.9082L33.8753 68.0614Z" fill="#1B2228"/>
<path d="M38.9844 70.0962L38.2352 68.9043L38.8227 68.1381L39.1292 68.087V67.9082H38.2778V68.087H38.5673L37.7159 69.2193V69.0575C37.7159 68.9128 37.7159 68.7766 37.7159 68.6404C37.7159 68.5042 37.7159 68.3594 37.7159 68.2147H38.065V68.0359L37.0859 68.0785V68.2062H37.435V68.6319C37.435 68.7851 37.435 68.9383 37.435 69.1001V69.2874V69.7471C37.435 69.8919 37.435 70.0281 37.435 70.1728H37.0859V70.3516H38.065V70.1643H37.7159V69.8663C37.7159 69.7727 37.7159 69.6875 37.7159 69.6024L38.065 69.1427L38.678 70.1302H38.3885V70.3175H39.2994V70.1302L38.9844 70.0962Z" fill="#1B2228"/>
<path d="M42.9853 67.6614C42.7326 67.5005 42.4268 67.4455 42.1339 67.5082L41.1719 67.6784V67.8572H41.5209L41.5976 68.2744C41.5976 68.4361 41.6571 68.5894 41.6827 68.7597V68.8363C41.6827 69.0236 41.7508 69.2024 41.7764 69.3641L41.8529 69.7983L41.5124 69.8834V70.0622L42.4233 69.9005C42.6428 69.8665 42.8505 69.7788 43.0278 69.6451C43.1888 69.5224 43.3078 69.3529 43.3684 69.1598C43.4207 68.9473 43.4207 68.7253 43.3684 68.5128C43.3642 68.3525 43.3281 68.1948 43.2623 68.0486C43.1966 67.9025 43.1024 67.7708 42.9853 67.6614ZM43.0534 69.296C42.9786 69.4019 42.8823 69.4907 42.7708 69.5567C42.6593 69.6228 42.5351 69.6645 42.4064 69.6791H42.1509C42.1509 69.577 42.1084 69.4663 42.0828 69.3556V69.2449C42.0828 69.0832 42.0233 68.9044 41.9892 68.7171L41.9381 68.4617L41.887 68.1467L41.8104 67.721L42.1083 67.6699C42.2283 67.6384 42.3537 67.6336 42.4758 67.6556C42.5978 67.6777 42.7136 67.7261 42.815 67.7976C43.0142 67.9762 43.1413 68.2215 43.1725 68.4872C43.2358 68.7622 43.1933 69.0509 43.0534 69.296Z" fill="#1B2228"/>
<path d="M47.5896 68.3427L46.2275 66.4697L46.0061 66.5038V68.8195L45.7422 68.9301L45.7933 69.1089L46.5595 68.862L46.5084 68.6918L46.2189 68.7514V68.1299L46.9511 67.9L47.3172 68.4023L46.9937 68.5385L47.0447 68.7088L47.9642 68.4193L47.9131 68.2491L47.5896 68.3427ZM46.2189 67.9511V66.9295L46.8234 67.7808L46.2189 67.9511Z" fill="#1B2228"/>
<path d="M8.41055 25.6895H5.85648L5.79688 25.8853L7.82311 27.3667L7.76351 27.6732L7.94226 27.7328L8.20618 26.8814L8.02742 26.8218L7.89118 27.1198L7.33783 26.7196L7.59322 25.9279H8.28282L8.18918 26.3025L8.37646 26.3536L8.69146 25.366L8.5127 25.3064L8.41055 25.6895ZM6.28215 25.996H7.41442L7.20158 26.6686L6.28215 25.996Z" fill="#1B2228"/>
<path d="M8.77642 23.3652L8.69125 23.5781L9.14249 23.8505L8.80193 24.7019L8.37625 24.5401L7.9591 24.3698L7.78029 24.3017L7.24393 24.0804L6.84382 23.9356L6.96302 23.5696L6.78422 23.5015L6.39258 24.4805L6.57138 24.5486L6.73314 24.2081L7.16734 24.3783L7.8229 24.6423L8.29114 24.8381L8.72534 25.0084L8.60614 25.3744L8.78494 25.4425L9.48301 23.7398L8.77642 23.3652Z" fill="#1B2228"/>
<path d="M8.36032 22.9057C8.56531 23.0136 8.79273 23.0719 9.02435 23.0759C9.24591 23.071 9.46147 23.0031 9.64582 22.8801C9.8424 22.7533 9.99891 22.5732 10.0971 22.3608C10.16 22.237 10.2058 22.1053 10.2333 21.9692C10.2463 21.8247 10.2463 21.6794 10.2333 21.535L10.046 21.4413L9.71395 21.2796C9.62529 21.2411 9.53988 21.1955 9.45855 21.1433L9.55219 20.905L9.38191 20.8198L8.94771 21.6712L9.11799 21.7563L9.39895 21.3817L9.67991 21.5179L9.99491 21.6712L10.0971 21.7223C10.1059 21.8043 10.1059 21.8871 10.0971 21.9692C10.0729 22.0634 10.0387 22.1547 9.99491 22.2416C9.92132 22.407 9.79967 22.5464 9.64582 22.6417C9.49815 22.7338 9.32585 22.7783 9.15208 22.7694C8.94442 22.7639 8.74069 22.7115 8.55612 22.6162C8.36544 22.5262 8.19685 22.3954 8.06231 22.2331C7.95374 22.0956 7.88591 21.9304 7.86652 21.7563C7.85396 21.5763 7.89232 21.3963 7.9772 21.237C8.05055 21.0812 8.16539 20.9486 8.30919 20.8539L8.76043 21.0071L8.86259 20.8028L8.32623 20.5559C8.22074 20.6238 8.12361 20.7038 8.0368 20.7943C7.94256 20.9029 7.86244 21.0231 7.7984 21.1519C7.69634 21.3607 7.64947 21.5923 7.6622 21.8244C7.67966 22.0463 7.75929 22.2588 7.89203 22.4374C8.00722 22.6296 8.1681 22.7905 8.36032 22.9057Z" fill="#1B2228"/>
<path d="M8.77765 19.7643L9.17776 19.9942L10.2249 20.6157L10.6251 20.8541L10.4548 21.1946L10.6166 21.2883L11.6042 19.6281L11.0252 19.245L10.9146 19.4323L11.2976 19.7388L10.7783 20.5901L10.3867 20.3603C10.2419 20.2837 10.0887 20.19 9.92696 20.0878L10.2164 19.5941L10.5484 19.7388L10.6421 19.577L9.85884 19.1088L9.75668 19.2705L10.0376 19.4919L9.74816 19.9857L9.32248 19.7303L8.92237 19.4919L9.40765 18.6831L9.85884 18.8704L9.96952 18.6746L9.35657 18.3511L8.39453 19.9687L8.56481 20.0623L8.77765 19.7643Z" fill="#1B2228"/>
<path d="M10.0111 17.7633L10.3943 18.0272L10.9732 18.4359L11.3478 18.6913H11.3904L11.7735 18.9552L11.5777 19.2872L11.7309 19.3979L12.3354 18.5465L12.1821 18.4359L11.9437 18.7338L11.5691 18.4784L11.169 18.1975L11.3052 17.9931C11.3508 17.9238 11.4085 17.8632 11.4755 17.8144C11.5197 17.7812 11.5735 17.7633 11.6287 17.7633C11.707 17.7668 11.7843 17.7812 11.8586 17.8058L12.4886 18.0102C12.5528 18.0271 12.6202 18.0271 12.6844 18.0102C12.7563 17.9716 12.8176 17.9161 12.8632 17.8484C12.8632 17.7973 12.9228 17.7548 12.9398 17.7207C12.9568 17.6867 12.9398 17.6441 12.9909 17.6185L12.8462 17.5164L12.6248 17.7803L11.9778 17.593C11.8761 17.5606 11.7695 17.5462 11.6628 17.5504H11.5266C11.5597 17.422 11.5597 17.2873 11.5266 17.1588C11.4918 16.9949 11.394 16.8511 11.2541 16.7587C11.1762 16.6965 11.0845 16.654 10.9867 16.6348C10.8889 16.6155 10.7879 16.62 10.6923 16.648C10.4996 16.7581 10.3451 16.9245 10.2495 17.1248L9.66211 17.9761L9.81535 18.0868L10.0111 17.7633ZM10.1729 17.5079L10.3773 17.2269C10.4616 17.0867 10.5905 16.9788 10.7433 16.9204C10.8088 16.9067 10.8765 16.908 10.9414 16.9243C11.0063 16.9405 11.0666 16.9712 11.1179 17.0141C11.1773 17.0515 11.2277 17.1013 11.2659 17.1601C11.3041 17.2189 11.3292 17.2852 11.3393 17.3546C11.3542 17.513 11.3085 17.6712 11.2116 17.7973L10.9987 18.0953L10.5645 17.7888L10.1729 17.5079Z" fill="#1B2228"/>
<path d="M11.5004 15.7372L11.858 16.0267C11.9943 16.1288 12.1304 16.231 12.2582 16.3417L12.4199 16.4609L12.7605 16.7418L12.8116 16.7844L13.1776 17.0738L12.9648 17.3888L13.1095 17.508L13.7651 16.6567L13.6204 16.5375L13.3564 16.8099L12.9988 16.529L12.7179 16.3076L12.437 16.0863L12.0453 15.7713C11.9176 15.6691 11.7984 15.5754 11.6878 15.4733L11.8921 15.1668L11.7474 15.0476L11.0918 15.899L11.2365 16.0096L11.5004 15.7372Z" fill="#1B2228"/>
<path d="M13.6546 16.4696L13.7908 16.5973L14.3697 15.9503L14.2335 15.8311L13.9951 16.0439L13.6546 15.4224L14.2164 14.8009L14.8465 15.0734L14.6166 15.3799L14.7528 15.5076L15.4509 14.7328L15.3147 14.6051L15.0508 14.852L12.7436 13.8474L12.6074 14.0007L13.8418 16.1801L13.6546 16.4696ZM12.982 14.2901L14.0121 14.7498L13.5439 15.2692L12.982 14.2901Z" fill="#1B2228"/>
<path d="M14.1065 12.7916L15.5793 14.3581L15.358 14.6049L15.4941 14.7412L16.1837 14.0856L16.0561 13.9494L15.7326 14.2048L14.481 12.8597L16.967 13.3875L17.0862 13.2768L15.4516 11.5401L15.673 11.2847L15.5452 11.1484L14.8472 11.7955L14.9834 11.9402L15.2984 11.6848L16.5328 13.0129L14.115 12.4851L13.7148 12.8682L13.8425 13.0044L14.1065 12.7916Z" fill="#1B2228"/>
<path d="M30.6824 4.49061L31.5337 5.69102V5.82724C31.5337 5.89534 31.5337 5.95494 31.5337 6.00602C31.5337 6.0571 31.5337 6.18481 31.5337 6.26994C31.5337 6.35508 31.5337 6.40616 31.5337 6.48278L31.1251 6.58494V6.77224L32.2404 6.56792V6.38913L31.8232 6.4317C31.8232 6.36359 31.8232 6.29548 31.7806 6.22737C31.738 6.15926 31.7806 6.06562 31.7806 5.97197V5.9294C31.7806 5.84426 31.7806 5.75061 31.7295 5.63994L32.1467 4.20966L32.4702 4.11601V3.92871L31.5593 4.09047V4.27777H31.9168L31.5848 5.45264L30.8696 4.46507L31.3634 4.35439V4.16709L30.3418 4.35439V4.54169L30.6824 4.49061Z" fill="#1B2228"/>
<path d="M33.0675 5.89529C33.1836 6.07051 33.3416 6.21392 33.5273 6.31246C33.6723 6.3861 33.8328 6.42405 33.9955 6.42314H34.0891C34.2915 6.40599 34.4842 6.32893 34.6425 6.20178C34.8055 6.06491 34.9314 5.88925 35.0086 5.69097C35.0881 5.46149 35.1143 5.21694 35.0852 4.97583C35.0673 4.72897 34.9915 4.4898 34.8639 4.27772C34.7505 4.10023 34.5918 3.95622 34.4041 3.86055C34.2226 3.76919 34.019 3.73083 33.8167 3.74988C33.6145 3.77372 33.4229 3.85331 33.2634 3.97974C33.0965 4.10943 32.9696 4.28352 32.8972 4.48204C32.8136 4.71353 32.7874 4.96183 32.8206 5.2057C32.8398 5.45232 32.9155 5.69121 33.042 5.90381L33.0675 5.89529ZM34.2169 4.00528C34.3274 4.05862 34.4259 4.13394 34.5063 4.22664C34.59 4.33165 34.6561 4.44953 34.7021 4.57569C34.7472 4.71125 34.7787 4.85101 34.7958 4.99286C34.8129 5.13993 34.8129 5.28849 34.7958 5.43556C34.7727 5.56624 34.7296 5.69258 34.6681 5.81016C34.6115 5.91617 34.5332 6.00902 34.4382 6.08259C34.3369 6.15112 34.2196 6.19219 34.0977 6.20178C33.976 6.21953 33.8519 6.20179 33.7401 6.1507C33.6318 6.09764 33.5361 6.02219 33.4592 5.92935C33.3773 5.82624 33.3113 5.71145 33.2634 5.58881C33.2174 5.45057 33.1859 5.3079 33.1697 5.16313C33.1483 5.01918 33.1483 4.87288 33.1697 4.72894C33.19 4.59599 33.2302 4.46685 33.2889 4.34583C33.3454 4.23981 33.4238 4.14697 33.5188 4.07339C33.6207 4.0062 33.7377 3.96525 33.8593 3.9542C33.9809 3.93916 34.1043 3.95679 34.2169 4.00528Z" fill="#1B2228"/>
<path d="M35.7318 3.86942C35.7318 4.00564 35.7318 4.15037 35.7318 4.33767C35.7318 4.52496 35.7318 4.67821 35.7318 4.84848V5.25713C35.7244 5.45688 35.7653 5.65547 35.851 5.83605C35.9167 5.98115 36.0312 6.09864 36.1746 6.16808C36.3116 6.23763 36.4636 6.2727 36.6172 6.27025C36.7417 6.27486 36.8658 6.25209 36.9805 6.20354C37.0952 6.155 37.1979 6.08186 37.2813 5.9893C37.4495 5.76134 37.5282 5.47965 37.5027 5.19754V3.84388L37.8347 3.80131V3.61401H36.8727V3.80131H37.2984V5.06983C37.3253 5.312 37.2746 5.55647 37.1536 5.76795C37.0912 5.83825 37.0134 5.89324 36.9263 5.92867C36.8392 5.9641 36.7451 5.97902 36.6513 5.97227C36.5359 5.97528 36.4217 5.94891 36.3193 5.89565C36.2188 5.84189 36.1404 5.75449 36.0979 5.64876C36.0333 5.4925 36.0042 5.32384 36.0128 5.15497V4.84848C36.0128 4.72929 36.0128 4.61861 36.0128 4.50794V4.35469C36.0128 4.20145 36.0128 4.04821 36.0128 3.89496H36.4129V3.63955H35.3828V3.84388L35.7318 3.86942Z" fill="#1B2228"/>
<path d="M38.3872 3.85246H39.0257V4.31219V4.48246C39.0257 4.60165 39.0257 4.71233 39.0257 4.83152V5.20611C39.0257 5.31679 39.0257 5.42747 39.0257 5.53814C39.0257 5.64882 39.0257 5.84463 39.0257 5.99787H38.6085V6.19369L39.7323 6.26179V6.0745L39.1959 6.05747V5.59774C39.1959 5.42747 39.1959 5.25719 39.1959 5.08692L39.2385 4.36327C39.2385 4.21003 39.2385 4.0653 39.2385 3.91205H39.8685L39.9111 4.41435H40.1324V3.75881L38.0636 3.6311L37.9785 4.33773H38.1999L38.3872 3.85246Z" fill="#1B2228"/>
<path d="M41.3166 6.30434L40.942 6.21921C40.942 6.07448 40.9845 5.92123 41.0101 5.75948C41.0356 5.59772 41.0101 5.41042 41.0867 5.20609L42.3637 5.38488C42.3637 5.5211 42.3212 5.6488 42.3042 5.76799V5.92975C42.3042 6.09151 42.3041 6.25326 42.236 6.40651H41.8529V6.59381L42.9001 6.74705V6.55975L42.5255 6.47462C42.5255 6.32137 42.5255 6.16813 42.5936 6.01488C42.6617 5.86164 42.5936 5.70839 42.6532 5.56366L42.6958 5.31677L42.7468 4.92515V4.80596L42.8235 4.35474H43.1981V4.16744L42.1764 4.0142V4.20149L42.5425 4.28663C42.5425 4.42285 42.5425 4.57609 42.4829 4.72082C42.4233 4.86555 42.4404 5.02731 42.4148 5.18907L41.1378 5.00177C41.1378 4.85704 41.1889 4.70379 41.2059 4.55055L41.2825 4.09933H41.6571V3.91203L40.6184 3.75879V3.94609L40.9845 4.03122C40.9845 4.18447 40.942 4.33771 40.925 4.49096L40.8483 4.99326L40.7462 5.69137C40.7462 5.8361 40.7462 5.98083 40.678 6.12556H40.2949V6.31286L41.3336 6.4661L41.3166 6.30434Z" fill="#1B2228"/>
<path d="M53.268 10.3142L53.0125 10.1014L53.5574 9.67572L54.247 10.144L54.0682 10.7995L53.7362 10.6207L53.6255 10.774L54.4769 11.3529L54.579 11.1997L54.2981 10.9698L54.9451 8.57747L54.7833 8.4668L52.8167 9.99072L52.5358 9.84599L52.4336 9.99924L53.1573 10.4845L53.268 10.3142ZM53.7192 9.54802L54.5705 8.84991L54.2726 9.93964L53.7192 9.54802Z" fill="#1B2228"/>
<path d="M54.6328 11.3018C54.6751 11.4096 54.7294 11.5125 54.7946 11.6082C54.873 11.7236 54.9709 11.8245 55.084 11.9062C55.2043 12.0024 55.3436 12.0721 55.4927 12.1105C55.5577 12.1188 55.6235 12.1188 55.6885 12.1105C55.7563 12.1187 55.8249 12.1187 55.8928 12.1105C56.0235 12.068 56.137 11.9844 56.2163 11.8722C56.2861 11.788 56.3355 11.689 56.361 11.5827C56.3895 11.4739 56.3895 11.3595 56.361 11.2507C56.313 11.1 56.2443 10.9567 56.1567 10.825L56.0801 10.6888C56.0124 10.5833 55.9687 10.4641 55.9524 10.3397C55.9456 10.2869 55.9496 10.2332 55.9643 10.182C55.9789 10.1307 56.0039 10.083 56.0376 10.0417C56.0727 9.9909 56.1198 9.94952 56.1748 9.9213C56.2297 9.89308 56.2908 9.87888 56.3526 9.87999C56.4873 9.88603 56.6162 9.93698 56.7186 10.0247C56.8162 10.0991 56.8949 10.1953 56.9485 10.3057L56.7272 10.6888L56.8974 10.825L57.238 10.4163C57.2047 10.32 57.1589 10.2284 57.1018 10.1439C57.0408 10.0432 56.9596 9.95625 56.8634 9.8885C56.7572 9.80575 56.6357 9.74497 56.5058 9.70972C56.3824 9.6672 56.2485 9.66578 56.1242 9.70568C55.9999 9.74558 55.8918 9.82465 55.8162 9.93107C55.7089 10.0591 55.6568 10.2244 55.6714 10.3908C55.693 10.5734 55.7572 10.7483 55.8588 10.9016L55.9269 11.0293C55.9906 11.1307 56.0421 11.2393 56.0801 11.3528C56.1041 11.4218 56.1041 11.4968 56.0801 11.5657C56.0717 11.6354 56.042 11.7008 55.995 11.753C55.9576 11.8108 55.9057 11.8578 55.8444 11.8892C55.7831 11.9206 55.7147 11.9353 55.6459 11.9318C55.4892 11.9233 55.3396 11.8634 55.2203 11.7615C55.1521 11.7111 55.0918 11.6509 55.0414 11.5827C54.9959 11.5258 54.9587 11.4627 54.9308 11.3954L55.1606 11.0123L54.9904 10.8761L54.6328 11.3018Z" fill="#1B2228"/>
<path d="M57.3041 12.0935L57.3722 12.2297C57.4281 12.3328 57.4737 12.4411 57.5084 12.5532C57.5251 12.626 57.5251 12.7017 57.5084 12.7745C57.4875 12.8408 57.4527 12.9017 57.4062 12.9533C57.3658 13.0069 57.3128 13.0496 57.2519 13.0778C57.191 13.1061 57.1241 13.1188 57.0572 13.1151C56.9003 13.0918 56.7546 13.0204 56.64 12.9108C56.5742 12.8572 56.5168 12.794 56.4697 12.7235C56.4268 12.6645 56.395 12.5981 56.3761 12.5276L56.623 12.153L56.4612 12.0168L56.0781 12.417C56.1133 12.5275 56.1619 12.6333 56.2228 12.732C56.2936 12.8503 56.3827 12.9566 56.4868 13.047C56.5999 13.15 56.7333 13.2283 56.8784 13.2768C56.957 13.3074 57.041 13.3219 57.1253 13.3194H57.2785C57.4113 13.2853 57.5303 13.211 57.6191 13.1066C57.6948 13.0273 57.7503 12.9309 57.7808 12.8256C57.8148 12.7175 57.8148 12.6017 57.7808 12.4936C57.7437 12.3379 57.6834 12.1887 57.602 12.0509L57.5339 11.9147C57.4735 11.801 57.4359 11.6767 57.4232 11.5486C57.4215 11.4954 57.4304 11.4424 57.4494 11.3927C57.4684 11.343 57.4971 11.2976 57.5339 11.2591C57.5718 11.2124 57.6199 11.1751 57.6745 11.15C57.7291 11.1249 57.7888 11.1127 57.8489 11.1144C57.9852 11.1334 58.1127 11.1927 58.215 11.2847C58.3064 11.3658 58.3766 11.4681 58.4194 11.5826L58.181 11.9487L58.3427 12.0935L58.7003 11.7103C58.6709 11.6126 58.631 11.5184 58.5811 11.4294C58.5223 11.3249 58.4443 11.2325 58.3512 11.157C58.2536 11.0653 58.1375 10.9956 58.0107 10.9526C57.891 10.9188 57.7643 10.9188 57.6446 10.9526C57.5099 10.982 57.3896 11.0573 57.3041 11.1655C57.1968 11.2883 57.1364 11.4451 57.1338 11.6082C57.16 11.7791 57.2178 11.9436 57.3041 12.0935Z" fill="#1B2228"/>
<path d="M57.9257 13.4984C57.8711 13.702 57.8711 13.9163 57.9257 14.1199C57.9717 14.3167 58.072 14.4966 58.2152 14.6392C58.355 14.7878 58.5357 14.8915 58.7345 14.9372C58.8165 14.946 58.8993 14.946 58.9814 14.9372C59.1086 14.9376 59.2351 14.9175 59.356 14.8776C59.5889 14.7985 59.7992 14.6641 59.969 14.486C60.1506 14.321 60.2881 14.1132 60.3691 13.8815C60.4236 13.6779 60.4236 13.4636 60.3691 13.26C60.3297 13.0602 60.2319 12.8765 60.0881 12.7322C59.9441 12.5908 59.7648 12.4908 59.5688 12.4427C59.3623 12.3882 59.1453 12.3882 58.9388 12.4427C58.7079 12.522 58.4982 12.6531 58.3258 12.8258C58.1371 13.0121 57.9993 13.2437 57.9257 13.4984ZM58.1385 13.8219C58.1643 13.6922 58.2133 13.5682 58.2832 13.4558C58.3564 13.3293 58.4483 13.2145 58.5557 13.1153C58.6576 13.0133 58.772 12.9246 58.8962 12.8514C59.0133 12.7849 59.1395 12.7361 59.2708 12.7066C59.3887 12.6813 59.5106 12.6813 59.6284 12.7066C59.7456 12.7356 59.8519 12.7977 59.9349 12.8854C60.0229 12.9716 60.0848 13.0807 60.1137 13.2004C60.1436 13.3177 60.1436 13.4407 60.1137 13.558C60.0856 13.6898 60.0368 13.8162 59.969 13.9326C59.8909 14.0557 59.7995 14.1699 59.6965 14.2731C59.5936 14.3776 59.476 14.4665 59.3474 14.5371C59.2354 14.6058 59.1111 14.652 58.9814 14.6733C58.8635 14.6986 58.7416 14.6986 58.6238 14.6733C58.5077 14.6373 58.4024 14.5729 58.3173 14.486C58.2301 14.3979 58.1657 14.2897 58.13 14.171C58.1087 14.0553 58.1116 13.9364 58.1385 13.8219Z" fill="#1B2228"/>
<path d="M59.7745 15.4222C59.6917 15.6272 59.6624 15.8498 59.6894 16.0693C59.7337 16.296 59.8364 16.5073 59.9874 16.6822C60.0703 16.7835 60.1645 16.875 60.2683 16.9547C60.378 17.0338 60.4984 17.0969 60.6259 17.142L61.0941 16.7759L60.9494 16.5971L60.5408 16.8525C60.4652 16.8182 60.3938 16.7753 60.3279 16.7248C60.2595 16.6718 60.1967 16.6119 60.1406 16.546C60.0292 16.415 59.9556 16.256 59.9278 16.0863C59.903 15.9122 59.9297 15.7346 60.0044 15.5755C60.0954 15.3854 60.2295 15.2193 60.3961 15.0902C60.554 14.9526 60.7399 14.851 60.9409 14.7922C61.1108 14.745 61.2904 14.745 61.4603 14.7922C61.6255 14.8532 61.7721 14.9558 61.8859 15.0902C61.9866 15.2097 62.0541 15.3536 62.0817 15.5074L61.7667 15.8649L61.9115 16.0437L62.3542 15.6521C62.3299 15.5228 62.2899 15.397 62.235 15.2775C62.1791 15.1651 62.1105 15.0594 62.0307 14.9625C61.8857 14.7835 61.6942 14.648 61.4773 14.5709C61.2657 14.5112 61.0418 14.5112 60.8302 14.5709C60.5939 14.6193 60.374 14.7278 60.1917 14.8859C60.0118 15.0288 59.8688 15.2127 59.7745 15.4222Z" fill="#1B2228"/>
<path d="M62.3615 16.6738L62.0209 16.9207L61.8592 17.0399L61.4505 17.3464L61.0759 17.6188L60.829 17.3294L60.6758 17.44L61.3058 18.2914L61.4591 18.1807L61.2547 17.8572L61.6293 17.5762L62.0295 17.2783L62.1827 17.125L62.5999 16.8185L62.9745 16.5546L63.2213 16.8356L63.3746 16.7249L62.7446 15.8735L62.5913 15.9842L62.7957 16.2992L62.4211 16.5802L62.3615 16.6738Z" fill="#1B2228"/>
<path d="M61.5446 18.2657L61.3828 18.3679L61.8596 19.1L62.0128 18.9979L61.8681 18.7084L62.5321 18.5381L62.9834 19.2363L62.5492 19.7726L62.3193 19.4661L62.1575 19.5683L62.7194 20.4196L62.8812 20.3175L62.7109 20.0025L64.2604 18.0614L64.1497 17.8911L61.7149 18.5126L61.5446 18.2657ZM63.1111 19.0745L62.728 18.4785L63.8177 18.1891L63.1111 19.0745Z" fill="#1B2228"/>
<path d="M64.3363 19.5345L64.8045 19.3472L65.111 19.9006L64.7108 20.1304L64.2596 20.3773L63.6382 20.7264L63.2295 20.9392L63.0081 20.5987L62.8379 20.6838L63.3827 21.6714L63.553 21.5863L63.3742 21.2032L63.7829 20.9818C63.9276 20.8967 64.0724 20.8115 64.2256 20.7349L64.8556 20.3859L65.2557 20.1645L65.5622 20.7179L65.1621 21.0244L65.2642 21.2202L65.8772 20.8456L64.8726 19.0237L64.2256 19.3387L64.3363 19.5345Z" fill="#1B2228"/>
<path d="M65.673 25.2725C65.8564 25.2701 66.038 25.2356 66.2094 25.1704C66.4475 25.1002 66.6641 24.9714 66.8394 24.7958C66.9865 24.6447 67.0896 24.4563 67.1374 24.2509C67.1972 24.0567 67.1972 23.8491 67.1374 23.655C67.0707 23.4627 66.9494 23.2941 66.7883 23.1697C66.6247 23.0377 66.4268 22.955 66.2179 22.9313C65.9718 22.9063 65.7232 22.9353 65.4895 23.0162C65.2557 23.097 65.0424 23.2279 64.8643 23.3995C64.7171 23.5472 64.6139 23.7329 64.5663 23.9359C64.5065 24.1301 64.5065 24.3377 64.5663 24.5319C64.6269 24.7249 64.7459 24.8944 64.9069 25.0171C65.0738 25.149 65.2743 25.2316 65.4858 25.2555L65.673 25.2725ZM65.29 24.932C65.1741 24.8982 65.0667 24.8402 64.975 24.7617C64.8836 24.6805 64.8134 24.5782 64.7706 24.4637C64.7372 24.344 64.7372 24.2174 64.7706 24.0977C64.7939 23.9829 64.8434 23.8751 64.9154 23.7827C64.9946 23.6751 65.0927 23.5828 65.2048 23.5102C65.3282 23.4315 65.4595 23.3659 65.5965 23.3144C65.7337 23.2665 65.877 23.2379 66.0221 23.2293H66.1243C66.2234 23.2206 66.3231 23.2206 66.4222 23.2293C66.5381 23.2631 66.6455 23.3211 66.7372 23.3995C66.8298 23.4779 66.8979 23.5814 66.9331 23.6975C66.9662 23.8144 66.9662 23.9382 66.9331 24.0551C66.9067 24.1756 66.8544 24.2889 66.7799 24.3871C66.6979 24.4898 66.6002 24.5789 66.4904 24.651C66.3679 24.7314 66.2365 24.7971 66.0987 24.8469C65.9619 24.8963 65.8184 24.925 65.673 24.932C65.5462 24.9528 65.4168 24.9528 65.29 24.932Z" fill="#1B2228"/>
<path d="M65.9627 21.7135L65.5456 21.9178L64.9071 22.2158L64.4473 22.4371L64.0216 22.633L63.8343 22.3009L63.6641 22.3861L64.1153 23.3396L64.2855 23.2544L64.1493 22.9054L64.5665 22.7011L65.0263 22.4797L65.205 22.3946L65.6733 22.1817L66.0905 21.9859L66.2777 22.318L66.448 22.2328L65.9968 21.2793L65.8265 21.3644L65.9627 21.7135Z" fill="#1B2228"/>
<path d="M68.0823 26.4132L67.895 26.4643L67.9801 26.8644L66.2519 27.3923L67.7843 25.4512L67.6225 24.9233L67.4437 24.9829L67.5204 25.315L65.4686 25.9365L65.3409 25.6385L65.1621 25.6896L65.4345 26.6005L65.6218 26.5494L65.5282 26.1493L67.2905 25.6129L65.7155 27.6136L65.7666 27.7669L68.0482 27.0688L68.1759 27.3752L68.3547 27.3157L68.0823 26.4132Z" fill="#1B2228"/>
<path d="M36.7785 8.88382C29.4378 9.01183 22.441 12.0178 17.2951 17.2543C12.1491 22.4908 9.26562 29.5389 9.26562 36.8807C9.26562 44.2225 12.1491 51.2706 17.2951 56.5071C22.441 61.7436 29.4378 64.7495 36.7785 64.8775C42.308 64.8709 47.7117 63.2268 52.3079 60.1526C56.904 57.0785 60.4868 52.7119 62.6041 47.6038C64.7215 42.4958 65.2786 36.8751 64.2051 31.4508C63.1317 26.0264 60.4758 21.0416 56.5725 17.1249C53.9831 14.5092 50.9 12.4338 47.5021 11.0191C44.1042 9.60437 40.4591 8.87858 36.7785 8.88382ZM36.7785 63.8474C31.4437 63.8474 26.2288 62.2653 21.7933 59.3014C17.3578 56.3374 13.9009 52.1246 11.8598 47.1958C9.81864 42.267 9.28502 36.8436 10.3264 31.6115C11.3678 26.3794 13.9373 21.5737 17.7101 17.802C21.4829 14.0304 26.2895 11.4624 31.5219 10.4226C36.7543 9.38293 42.1776 9.91826 47.1057 11.9609C52.0339 14.0036 56.2456 17.4619 59.2081 21.8983C62.1707 26.3348 63.7512 31.5502 63.7495 36.8849C63.7405 44.0345 60.8957 50.8886 55.8393 55.9433C50.783 60.998 43.9281 63.8406 36.7785 63.8474Z" fill="#1B2228"/>
<path d="M71.0968 22.6332C67.5342 14.1779 60.957 7.34788 52.642 3.46899C44.327 -0.409895 34.8673 -1.06094 26.0992 1.64224C17.3312 4.34542 9.88033 10.21 5.19289 18.0975C0.505455 25.9851 -1.0841 35.3329 0.732729 44.3265C2.54956 53.3201 7.64316 61.3178 15.0249 66.7672C22.4065 72.2166 31.5497 74.7289 40.6795 73.8165C49.8093 72.9041 58.2743 68.632 64.4316 61.8295C70.5888 55.027 73.999 46.1794 74 37.0041C74.0079 32.0674 73.0205 27.1797 71.0968 22.6332ZM37.0937 72.6504C30.0415 72.6504 23.1476 70.5591 17.284 66.6409C11.4204 62.7227 6.85051 57.1537 4.15213 50.6382C1.45375 44.1226 0.748162 36.9532 2.1246 30.0366C3.50104 23.12 6.89769 16.7669 11.885 11.7809C16.8722 6.79479 23.2261 3.39967 30.143 2.02488C37.0599 0.650094 44.2292 1.35739 50.7441 4.05733C57.259 6.75726 62.8269 11.3285 66.7437 17.1931C70.6605 23.0576 72.7502 29.9519 72.7485 37.0041C72.7372 46.4561 68.9769 55.5177 62.2925 62.2004C55.6081 68.8832 46.5457 72.6414 37.0937 72.6504Z" fill="#1B2228"/>
<path d="M79.068 23.4642L82.1534 15.0237C82.2802 14.6703 82.3799 14.4937 82.4524 14.4937C82.5249 14.4937 82.6246 14.6568 82.7514 14.983C83.5307 17.0308 84.5863 19.7627 85.9183 23.1788C86.2808 24.0849 86.7021 24.5969 87.1823 24.7147C87.3364 24.7509 87.4859 24.7691 87.6309 24.7691C87.7215 24.7691 87.7668 24.7962 87.7668 24.8506C87.7668 24.9231 87.6762 24.9593 87.495 24.9593C86.607 24.9593 85.8956 24.9503 85.361 24.9322C85.0892 24.9231 84.9533 24.8914 84.9533 24.837C84.9533 24.7917 84.985 24.76 85.0484 24.7419C85.1843 24.7056 85.2115 24.5833 85.13 24.3749L83.8659 21.0313C83.8388 20.9769 83.798 20.9498 83.7436 20.9498H80.8214C80.7579 20.9498 80.7126 20.986 80.6855 21.0585L79.87 23.4642C79.7431 23.8357 79.6797 24.1393 79.6797 24.3749C79.6797 24.6377 79.8518 24.7691 80.1962 24.7691H80.3321C80.4227 24.7691 80.468 24.7962 80.468 24.8506C80.468 24.9231 80.4 24.9593 80.2641 24.9593C80.1373 24.9593 79.9379 24.9503 79.6661 24.9322C79.3942 24.9231 79.2402 24.9186 79.204 24.9186C79.1949 24.9186 79.0001 24.9231 78.6195 24.9322C78.2389 24.9503 77.9218 24.9593 77.6681 24.9593C77.4959 24.9593 77.4098 24.9231 77.4098 24.8506C77.4098 24.7962 77.4506 24.7691 77.5322 24.7691C77.659 24.7691 77.7904 24.76 77.9263 24.7419C78.3975 24.6784 78.7781 24.2526 79.068 23.4642ZM80.9709 20.4605H83.5669C83.6213 20.4605 83.6394 20.4287 83.6213 20.3653L82.3301 16.6955C82.2938 16.5958 82.2576 16.546 82.2213 16.546C82.1941 16.546 82.1624 16.5958 82.1262 16.6955L80.9301 20.3653C80.912 20.4287 80.9256 20.4605 80.9709 20.4605Z" fill="#1B2228"/>
<path d="M90.8548 18.6256V21.0449C90.8548 22.9206 90.9545 23.9626 91.1538 24.171C91.3622 24.3704 91.9059 24.47 92.7848 24.47C93.6547 24.47 94.2029 24.3341 94.4294 24.0623C94.6197 23.8357 94.7375 23.5639 94.7828 23.2468C94.8009 23.129 94.8417 23.0701 94.9051 23.0701C94.9595 23.0701 94.9867 23.138 94.9867 23.274C94.9867 23.7089 94.9187 24.162 94.7828 24.6331C94.7284 24.8234 94.6152 24.9412 94.443 24.9865C94.3977 24.9956 94.2255 25.0001 93.9265 25.0001C93.1744 25.0001 92.4178 24.9865 91.6567 24.9593C90.9046 24.9322 90.447 24.9186 90.2839 24.9186C90.2658 24.9186 90.08 24.9231 89.7267 24.9322C89.3733 24.9503 89.115 24.9593 88.9519 24.9593C88.8069 24.9593 88.7345 24.9231 88.7345 24.8506C88.7345 24.7962 88.7752 24.7691 88.8568 24.7691C88.9474 24.7691 89.0788 24.7509 89.2509 24.7147C89.4594 24.6694 89.5907 24.4202 89.6451 23.9671C89.6904 23.6137 89.7131 22.6306 89.7131 21.0177V18.6256C89.7131 16.9674 89.704 15.9888 89.6859 15.6897C89.6587 15.2548 89.4639 14.9965 89.1014 14.915C88.9746 14.8878 88.8205 14.8742 88.6393 14.8742C88.5668 14.8742 88.5306 14.847 88.5306 14.7927C88.5306 14.7202 88.6031 14.6839 88.7481 14.6839C89.0018 14.6839 89.328 14.693 89.7267 14.7111C90.1254 14.7202 90.3111 14.7247 90.2839 14.7247C90.2749 14.7247 90.4742 14.7202 90.882 14.7111C91.2988 14.693 91.5887 14.6839 91.7518 14.6839C91.8968 14.6839 91.9693 14.7202 91.9693 14.7927C91.9693 14.838 91.8878 14.8697 91.7247 14.8878C91.625 14.8969 91.5208 14.9059 91.412 14.915C91.0858 14.9694 90.9091 15.2276 90.882 15.6897C90.8638 15.9888 90.8548 16.9674 90.8548 18.6256Z" fill="#1B2228"/>
<path d="M104.213 23.804V21.4934C104.213 20.9407 104.177 20.5873 104.104 20.4333C104.041 20.2792 103.873 20.166 103.601 20.0935C103.501 20.0663 103.347 20.0527 103.139 20.0527C103.067 20.0527 103.03 20.0255 103.03 19.9711C103.03 19.8987 103.103 19.8624 103.248 19.8624C103.501 19.8624 103.828 19.8715 104.226 19.8896C104.625 19.8987 104.811 19.9032 104.784 19.9032C104.775 19.9032 104.951 19.8987 105.314 19.8896C105.685 19.8715 105.953 19.8624 106.116 19.8624C106.261 19.8624 106.333 19.8987 106.333 19.9711C106.333 20.0255 106.297 20.0527 106.224 20.0527C106.152 20.0527 106.039 20.0663 105.885 20.0935C105.576 20.1478 105.409 20.4061 105.382 20.8682C105.364 21.1672 105.354 21.6384 105.354 22.2818V23.804C105.354 24.1121 105.345 24.3024 105.327 24.3749C105.309 24.4383 105.259 24.4927 105.178 24.538C104.426 24.9457 103.465 25.1496 102.296 25.1496C100.43 25.1496 98.9391 24.6648 97.8246 23.6953C97.3716 23.3057 97 22.7801 96.7101 22.1187C96.3748 21.3847 96.2072 20.619 96.2072 19.8216C96.2072 18.7977 96.4337 17.8735 96.8868 17.0489C97.2855 16.324 97.8155 15.7577 98.477 15.3499C99.3922 14.7791 100.597 14.4937 102.092 14.4937C102.79 14.4937 103.483 14.5707 104.172 14.7247C104.462 14.7881 104.829 14.8334 105.273 14.8606C105.382 14.8697 105.436 14.9105 105.436 14.983C105.436 14.9467 105.418 15.1234 105.382 15.513C105.354 15.8936 105.341 16.3603 105.341 16.913C105.341 17.1033 105.3 17.1984 105.219 17.1984C105.164 17.1984 105.132 17.1305 105.123 16.9945C105.096 16.6412 105.001 16.3421 104.838 16.0975C104.648 15.8075 104.294 15.5583 103.778 15.3499C103.171 15.1143 102.459 14.9965 101.644 14.9965C100.457 14.9965 99.4873 15.2956 98.7353 15.8936C97.8382 16.6004 97.3897 17.7512 97.3897 19.3459C97.3897 20.1886 97.5709 20.9996 97.9333 21.7789C98.1961 22.3407 98.4951 22.7846 98.8304 23.1109C99.8271 24.0804 101.014 24.5652 102.391 24.5652C103.089 24.5652 103.606 24.47 103.941 24.2797C104.122 24.1801 104.213 24.0215 104.213 23.804Z" fill="#1B2228"/>
<path d="M109.477 21.0177V18.6256C109.477 16.9674 109.468 15.9888 109.45 15.6897C109.423 15.2548 109.228 14.9965 108.865 14.915C108.738 14.8878 108.584 14.8742 108.403 14.8742C108.331 14.8742 108.294 14.847 108.294 14.7927C108.294 14.7202 108.367 14.6839 108.512 14.6839C108.766 14.6839 109.092 14.693 109.491 14.7111C109.889 14.7202 110.075 14.7247 110.048 14.7247C111.933 14.7247 112.97 14.7202 113.16 14.7111C113.405 14.7021 113.6 14.6794 113.745 14.6432C113.763 14.6432 113.79 14.6341 113.826 14.616C113.872 14.5888 113.908 14.5752 113.935 14.5752C113.971 14.5752 113.989 14.616 113.989 14.6975C113.989 14.7247 113.976 14.8017 113.949 14.9286C113.921 15.0554 113.899 15.1914 113.881 15.3363C113.872 15.581 113.849 15.88 113.813 16.2334C113.795 16.3331 113.763 16.3829 113.718 16.3829C113.645 16.3829 113.609 16.324 113.609 16.2062C113.609 16.0069 113.582 15.8438 113.527 15.7169C113.419 15.4723 113.097 15.3182 112.562 15.2548C112.318 15.2276 111.697 15.214 110.7 15.214C110.646 15.214 110.619 15.2593 110.619 15.3499V19.1013C110.619 19.1919 110.646 19.2372 110.7 19.2372C111.933 19.2372 112.653 19.2281 112.861 19.21C113.197 19.1828 113.414 19.1149 113.514 19.0061C113.613 18.8974 113.677 18.843 113.704 18.843C113.749 18.843 113.772 18.8793 113.772 18.9518C113.772 18.9699 113.758 19.0514 113.731 19.1964C113.704 19.3686 113.681 19.5407 113.663 19.7129C113.627 20.0935 113.609 20.3789 113.609 20.5692C113.609 20.7504 113.577 20.841 113.514 20.841C113.45 20.841 113.419 20.8002 113.419 20.7187C113.419 20.5375 113.4 20.388 113.364 20.2702C113.283 19.9983 113.047 19.8398 112.657 19.7945C112.232 19.7491 111.584 19.7265 110.714 19.7265C110.65 19.7265 110.619 19.7582 110.619 19.8216V23.3419C110.637 23.8131 110.736 24.1166 110.918 24.2526C111.108 24.3885 111.534 24.4564 112.195 24.4564C112.83 24.4564 113.265 24.4066 113.5 24.3069C113.817 24.171 114.021 23.8448 114.112 23.3283C114.139 23.1924 114.18 23.1244 114.234 23.1244C114.288 23.1244 114.316 23.1924 114.316 23.3283C114.316 23.7451 114.257 24.1846 114.139 24.6467C114.094 24.8189 114.03 24.9186 113.949 24.9457C113.867 24.982 113.686 25.0001 113.405 25.0001C112.58 25.0001 111.81 24.9865 111.094 24.9593C110.388 24.9322 110.039 24.9186 110.048 24.9186C110.057 24.9186 109.876 24.9231 109.504 24.9322C109.142 24.9503 108.879 24.9593 108.716 24.9593C108.571 24.9593 108.498 24.9231 108.498 24.8506C108.498 24.7962 108.539 24.7691 108.621 24.7691C108.711 24.7691 108.843 24.7509 109.015 24.7147C109.223 24.6694 109.355 24.4202 109.409 23.9671C109.454 23.6137 109.477 22.6306 109.477 21.0177Z" fill="#1B2228"/>
<path d="M117.773 21.0177V18.6256C117.773 16.9674 117.764 15.9888 117.746 15.6897C117.718 15.2548 117.524 14.9965 117.161 14.915C117.034 14.8878 116.88 14.8742 116.699 14.8742C116.626 14.8742 116.59 14.847 116.59 14.7927C116.59 14.7202 116.663 14.6839 116.808 14.6839C117.061 14.6839 117.388 14.693 117.786 14.7111C118.185 14.7202 118.371 14.7247 118.344 14.7247C118.371 14.7247 118.602 14.7202 119.037 14.7111C119.481 14.693 119.784 14.6839 119.947 14.6839C121.053 14.6839 121.882 14.8833 122.435 15.282C123.06 15.735 123.373 16.3512 123.373 17.1305C123.373 18.2087 122.824 19.2553 121.728 20.2702C122.625 21.4119 123.137 22.0643 123.264 22.2274C123.78 22.8798 124.211 23.3872 124.555 23.7497C125.081 24.3115 125.633 24.6377 126.213 24.7283C126.385 24.7555 126.562 24.7691 126.743 24.7691C126.825 24.7691 126.866 24.7962 126.866 24.8506C126.866 24.9231 126.757 24.9593 126.539 24.9593H125.574C124.922 24.9593 124.437 24.8733 124.12 24.7011C123.857 24.5652 123.576 24.3205 123.277 23.9671C123.123 23.795 122.793 23.3736 122.285 22.7031C121.886 22.1504 121.393 21.4798 120.804 20.6915C120.749 20.6371 120.69 20.61 120.627 20.61L118.955 20.5828C118.892 20.5828 118.86 20.619 118.86 20.6915V21.0177C118.86 22.5853 118.883 23.5684 118.928 23.9671C118.982 24.4202 119.159 24.6694 119.458 24.7147C119.721 24.7509 119.925 24.7691 120.07 24.7691C120.142 24.7691 120.178 24.7962 120.178 24.8506C120.178 24.9231 120.106 24.9593 119.961 24.9593C119.653 24.9593 119.286 24.9503 118.86 24.9322C118.443 24.9231 118.253 24.9186 118.289 24.9186C117.664 24.9457 117.238 24.9593 117.012 24.9593C116.867 24.9593 116.794 24.9231 116.794 24.8506C116.794 24.7962 116.835 24.7691 116.916 24.7691C117.007 24.7691 117.138 24.7509 117.311 24.7147C117.519 24.6694 117.65 24.4202 117.705 23.9671C117.75 23.6137 117.773 22.6306 117.773 21.0177ZM118.86 15.3635V19.808C118.86 19.8805 118.892 19.9349 118.955 19.9711C119.2 20.1161 119.676 20.1886 120.382 20.1886C120.808 20.1886 121.148 20.1025 121.402 19.9304C121.954 19.5498 122.231 18.8521 122.231 17.8372C122.231 16.9855 122.018 16.3195 121.592 15.8392C121.175 15.359 120.604 15.1189 119.879 15.1189C119.454 15.1189 119.15 15.1461 118.969 15.2004C118.896 15.2276 118.86 15.282 118.86 15.3635Z" fill="#1B2228"/>
<path d="M129.161 18.6256V21.0177C129.161 22.5853 129.184 23.5684 129.229 23.9671C129.284 24.4202 129.46 24.6694 129.759 24.7147C130.022 24.7509 130.226 24.7691 130.371 24.7691C130.444 24.7691 130.48 24.7962 130.48 24.8506C130.48 24.9231 130.407 24.9593 130.262 24.9593C129.954 24.9593 129.587 24.9503 129.161 24.9322C128.745 24.9231 128.554 24.9186 128.59 24.9186C128.6 24.9186 128.418 24.9231 128.047 24.9322C127.684 24.9503 127.422 24.9593 127.258 24.9593C127.114 24.9593 127.041 24.9231 127.041 24.8506C127.041 24.7962 127.082 24.7691 127.163 24.7691C127.254 24.7691 127.385 24.7509 127.558 24.7147C127.766 24.6694 127.897 24.4202 127.952 23.9671C127.997 23.6137 128.02 22.6306 128.02 21.0177V18.6256C128.02 16.9674 128.011 15.9888 127.992 15.6897C127.965 15.2548 127.811 15.0011 127.53 14.9286C127.376 14.8923 127.236 14.8742 127.109 14.8742C127.036 14.8742 127 14.847 127 14.7927C127 14.7202 127.073 14.6839 127.218 14.6839C127.399 14.6839 127.675 14.693 128.047 14.7111C128.418 14.7202 128.6 14.7247 128.59 14.7247C128.581 14.7247 128.758 14.7202 129.121 14.7111C129.492 14.693 129.759 14.6839 129.922 14.6839C130.067 14.6839 130.14 14.7202 130.14 14.7927C130.14 14.847 130.104 14.8742 130.031 14.8742C129.959 14.8742 129.845 14.8878 129.691 14.915C129.383 14.9694 129.216 15.2276 129.189 15.6897C129.17 15.9888 129.161 16.9674 129.161 18.6256Z" fill="#1B2228"/>
<path d="M132.878 23.4642L135.963 15.0237C136.09 14.6703 136.19 14.4937 136.262 14.4937C136.335 14.4937 136.434 14.6568 136.561 14.983C137.34 17.0308 138.396 19.7627 139.728 23.1788C140.09 24.0849 140.512 24.5969 140.992 24.7147C141.146 24.7509 141.296 24.7691 141.441 24.7691C141.531 24.7691 141.577 24.7962 141.577 24.8506C141.577 24.9231 141.486 24.9593 141.305 24.9593C140.417 24.9593 139.705 24.9503 139.171 24.9322C138.899 24.9231 138.763 24.8914 138.763 24.837C138.763 24.7917 138.795 24.76 138.858 24.7419C138.994 24.7056 139.021 24.5833 138.94 24.3749L137.676 21.0313C137.648 20.9769 137.608 20.9498 137.553 20.9498H134.631C134.568 20.9498 134.522 20.986 134.495 21.0585L133.68 23.4642C133.553 23.8357 133.489 24.1393 133.489 24.3749C133.489 24.6377 133.662 24.7691 134.006 24.7691H134.142C134.232 24.7691 134.278 24.7962 134.278 24.8506C134.278 24.9231 134.21 24.9593 134.074 24.9593C133.947 24.9593 133.748 24.9503 133.476 24.9322C133.204 24.9231 133.05 24.9186 133.014 24.9186C133.005 24.9186 132.81 24.9231 132.429 24.9322C132.049 24.9503 131.732 24.9593 131.478 24.9593C131.306 24.9593 131.22 24.9231 131.22 24.8506C131.22 24.7962 131.26 24.7691 131.342 24.7691C131.469 24.7691 131.6 24.76 131.736 24.7419C132.207 24.6784 132.588 24.2526 132.878 23.4642ZM134.781 20.4605H137.377C137.431 20.4605 137.449 20.4287 137.431 20.3653L136.14 16.6955C136.104 16.5958 136.067 16.546 136.031 16.546C136.004 16.546 135.972 16.5958 135.936 16.6955L134.74 20.3653C134.722 20.4287 134.735 20.4605 134.781 20.4605Z" fill="#1B2228"/>
<path d="M143.713 16.6004L143.89 23.1109C143.899 23.5458 143.921 23.8448 143.958 24.0079C144.03 24.3975 144.184 24.6241 144.42 24.6875C144.61 24.7419 144.837 24.7691 145.099 24.7691C145.172 24.7691 145.208 24.7962 145.208 24.8506C145.208 24.9231 145.127 24.9593 144.964 24.9593C144.655 24.9593 144.334 24.9503 143.998 24.9322C143.672 24.9231 143.514 24.9186 143.523 24.9186C143.523 24.9186 143.364 24.9231 143.047 24.9322C142.739 24.9503 142.463 24.9593 142.218 24.9593C142.073 24.9593 142.001 24.9231 142.001 24.8506C142.001 24.7962 142.037 24.7691 142.109 24.7691C142.3 24.7691 142.49 24.7419 142.68 24.6875C142.879 24.6241 143.002 24.3704 143.047 23.9264C143.065 23.7904 143.074 23.4688 143.074 22.9613L143.088 15.1732C143.088 14.7202 143.138 14.4937 143.237 14.4937C143.283 14.4937 143.441 14.6386 143.713 14.9286C144.456 15.735 145.897 17.289 148.035 19.5906C148.978 20.6236 150.065 21.806 151.297 23.138L151.148 16.2334C151.139 15.7803 151.098 15.4677 151.025 15.2956C150.962 15.1143 150.831 15.0011 150.631 14.9558C150.441 14.9014 150.214 14.8742 149.952 14.8742C149.879 14.8742 149.843 14.8425 149.843 14.7791C149.843 14.7157 149.934 14.6839 150.115 14.6839C150.359 14.6839 150.654 14.693 150.998 14.7111C151.343 14.7202 151.519 14.7247 151.528 14.7247C151.546 14.7247 151.687 14.7202 151.95 14.7111C152.222 14.693 152.466 14.6839 152.684 14.6839C152.847 14.6839 152.928 14.7157 152.928 14.7791C152.928 14.8425 152.878 14.8742 152.779 14.8742C152.688 14.8742 152.579 14.8878 152.453 14.915C152.235 14.9603 152.095 15.069 152.031 15.2412C151.977 15.4043 151.95 15.6988 151.95 16.1247L151.923 24.0895C151.923 24.7328 151.882 25.0545 151.8 25.0545C151.728 25.0545 151.397 24.7645 150.808 24.1846C149.829 23.2151 148.647 21.9873 147.261 20.5012C146.019 19.1692 144.837 17.8689 143.713 16.6004Z" fill="#1B2228"/>
<path d="M81.7048 39.2202V38.0513C81.7048 37.571 81.6006 37.0953 81.3922 36.6241C81.3379 36.5154 80.9799 35.9219 80.3185 34.8436C79.6661 33.7653 79.2266 33.054 79.0001 32.7097C78.6829 32.2385 78.3749 31.9032 78.0758 31.7039C77.8584 31.5589 77.6635 31.4864 77.4914 31.4864C77.4008 31.4864 77.3555 31.4547 77.3555 31.3913C77.3555 31.3279 77.4144 31.2961 77.5322 31.2961C77.6318 31.2961 77.8765 31.3052 78.2661 31.3233C78.6648 31.3324 78.8687 31.3369 78.8778 31.3369C78.8778 31.3369 79.0137 31.3324 79.2855 31.3233C79.5664 31.3052 79.8111 31.2961 80.0195 31.2961C80.1373 31.2961 80.1962 31.3279 80.1962 31.3913C80.1962 31.4094 80.1327 31.4502 80.0059 31.5136C79.879 31.568 79.8156 31.6495 79.8156 31.7583C79.8156 31.8942 79.8745 32.0709 79.9923 32.2883C80.7897 33.7472 81.6233 35.1789 82.4932 36.5833C82.611 36.3296 82.987 35.65 83.6213 34.5446C84.174 33.566 84.5501 32.9136 84.7494 32.5874C84.9034 32.3336 84.9805 32.1026 84.9805 31.8942C84.9805 31.6858 84.908 31.5634 84.763 31.5272C84.6271 31.4819 84.5591 31.4321 84.5591 31.3777C84.5591 31.3233 84.6316 31.2961 84.7766 31.2961C84.9125 31.2961 85.0892 31.3052 85.3067 31.3233C85.5332 31.3324 85.6555 31.3369 85.6736 31.3369C85.6827 31.3369 85.8775 31.3324 86.2581 31.3233C86.6477 31.3052 86.8924 31.2961 86.9921 31.2961C87.1098 31.2961 87.1687 31.3233 87.1687 31.3777C87.1687 31.4502 87.1098 31.4864 86.9921 31.4864C86.7836 31.4864 86.5752 31.5498 86.3668 31.6767C86.1675 31.8036 85.9274 32.0346 85.6465 32.3699C85.429 32.6327 84.9714 33.344 84.2737 34.5038C83.585 35.6636 83.1773 36.3931 83.0504 36.6921C82.9145 37.0183 82.8466 37.4713 82.8466 38.0513V39.2202C82.8466 40.0175 82.8692 40.534 82.9145 40.7696C82.9689 41.1049 83.1456 41.2906 83.4446 41.3269C83.7074 41.3631 83.9112 41.3813 84.0562 41.3813C84.1287 41.3813 84.165 41.4084 84.165 41.4628C84.165 41.5353 84.0925 41.5715 83.9475 41.5715C83.6394 41.5715 83.2724 41.5625 82.8466 41.5444C82.4297 41.5353 82.2395 41.5308 82.2757 41.5308C82.2848 41.5308 82.1035 41.5353 81.732 41.5444C81.3696 41.5625 81.1068 41.5715 80.9437 41.5715C80.7987 41.5715 80.7262 41.5353 80.7262 41.4628C80.7262 41.4084 80.767 41.3813 80.8486 41.3813C80.9392 41.3813 81.0706 41.3631 81.2427 41.3269C81.4964 41.2725 81.6369 41.0233 81.6641 40.5793C81.6913 40.1897 81.7048 39.7366 81.7048 39.2202Z" fill="#1B2228"/>
<path d="M87.5398 36.4202C87.5398 35.1245 87.9656 33.9647 88.8174 32.9407C89.8232 31.7175 91.1824 31.1059 92.8949 31.1059C94.4535 31.1059 95.7266 31.5589 96.7142 32.465C97.7291 33.3983 98.2365 34.6442 98.2365 36.2028C98.2365 37.7613 97.7427 39.0661 96.755 40.1172C95.7311 41.2136 94.4172 41.7618 92.8134 41.7618C91.0918 41.7618 89.7462 41.1774 88.7766 40.0085C87.952 39.0117 87.5398 37.8157 87.5398 36.4202ZM88.831 36.0397C88.831 37.5982 89.2523 38.8622 90.095 39.8318C90.9015 40.7741 91.9299 41.2453 93.1804 41.2453C94.0774 41.2453 94.8567 40.9644 95.5181 40.4026C96.4605 39.5871 96.9317 38.314 96.9317 36.5833C96.9317 35.0248 96.5103 33.7789 95.6677 32.8456C94.8975 31.9938 93.9415 31.568 92.7998 31.568C91.6218 31.568 90.6749 31.9395 89.9591 32.6825C89.207 33.4799 88.831 34.5989 88.831 36.0397Z" fill="#1B2228"/>
<path d="M100.738 37.2222V35.2378C100.738 33.5796 100.729 32.6009 100.711 32.3019C100.684 31.867 100.489 31.6087 100.126 31.5272C99.9994 31.5 99.8454 31.4864 99.6642 31.4864C99.5917 31.4864 99.5554 31.4592 99.5554 31.4049C99.5554 31.3324 99.6279 31.2961 99.7729 31.2961C100.018 31.2961 100.339 31.3052 100.738 31.3233C101.137 31.3324 101.336 31.3369 101.336 31.3369C101.354 31.3369 101.54 31.3324 101.893 31.3233C102.256 31.3052 102.518 31.2961 102.682 31.2961C102.827 31.2961 102.899 31.3324 102.899 31.4049C102.899 31.4592 102.867 31.4864 102.804 31.4864C102.75 31.4864 102.632 31.5 102.45 31.5272C102.142 31.5725 101.975 31.8307 101.948 32.3019C101.929 32.6009 101.92 33.5796 101.92 35.2378V37.1406C101.92 38.7354 102.26 39.8544 102.94 40.4978C103.465 40.9961 104.149 41.2453 104.992 41.2453C105.88 41.2453 106.587 40.9237 107.112 40.2803C107.647 39.6279 107.914 38.5134 107.914 36.9367V35.2378C107.914 33.5796 107.905 32.6009 107.887 32.3019C107.86 31.867 107.665 31.6087 107.303 31.5272C107.176 31.5 107.022 31.4864 106.841 31.4864C106.768 31.4864 106.732 31.4592 106.732 31.4049C106.732 31.3324 106.804 31.2961 106.949 31.2961C107.194 31.2961 107.498 31.3052 107.86 31.3233C108.232 31.3324 108.408 31.3369 108.39 31.3369C108.399 31.3369 108.549 31.3324 108.839 31.3233C109.138 31.3052 109.369 31.2961 109.532 31.2961C109.677 31.2961 109.749 31.3324 109.749 31.4049C109.749 31.4592 109.709 31.4864 109.627 31.4864C109.545 31.4864 109.437 31.5 109.301 31.5272C108.993 31.5906 108.825 31.8489 108.798 32.3019C108.78 32.6009 108.771 33.5796 108.771 35.2378V36.6921C108.771 38.6584 108.354 40.013 107.52 40.756C106.768 41.4266 105.835 41.7618 104.72 41.7618C103.533 41.7618 102.6 41.4401 101.92 40.7968C101.132 40.0447 100.738 38.8532 100.738 37.2222Z" fill="#1B2228"/>
<path d="M115.704 31.8806V37.6299C115.704 39.1975 115.726 40.1806 115.772 40.5793C115.826 41.0324 116.003 41.2816 116.302 41.3269C116.564 41.3631 116.768 41.3813 116.913 41.3813C116.986 41.3813 117.022 41.4084 117.022 41.4628C117.022 41.5353 116.949 41.5715 116.804 41.5715C116.496 41.5715 116.129 41.5625 115.704 41.5444C115.287 41.5353 115.096 41.5308 115.133 41.5308C115.142 41.5308 114.961 41.5353 114.589 41.5444C114.227 41.5625 113.964 41.5715 113.801 41.5715C113.656 41.5715 113.583 41.5353 113.583 41.4628C113.583 41.4084 113.624 41.3813 113.706 41.3813C113.796 41.3813 113.928 41.3631 114.1 41.3269C114.308 41.2816 114.44 41.0324 114.494 40.5793C114.539 40.2259 114.562 39.2428 114.562 37.6299V31.8806L112.55 31.9078C112.197 31.9168 111.943 31.9349 111.789 31.9621C111.499 32.0256 111.291 32.1524 111.164 32.3427C111.11 32.4514 111.055 32.5602 111.001 32.6689C110.919 32.8229 110.851 32.9 110.797 32.9C110.752 32.9 110.729 32.8592 110.729 32.7776C110.729 32.533 110.829 32.0618 111.028 31.3641C111.073 31.1919 111.119 31.1059 111.164 31.1059C111.182 31.1059 111.25 31.133 111.368 31.1874C111.486 31.2327 111.617 31.2599 111.762 31.269C112.269 31.3143 112.627 31.3369 112.836 31.3369H117.933C118.286 31.3369 118.603 31.3143 118.884 31.269C119.174 31.2236 119.305 31.201 119.278 31.201C119.324 31.201 119.346 31.2554 119.346 31.3641C119.346 31.5181 119.337 31.799 119.319 32.2068C119.31 32.6145 119.305 32.832 119.305 32.8592C119.305 32.977 119.274 33.0359 119.21 33.0359C119.156 33.0359 119.12 32.9589 119.102 32.8048L119.088 32.6553C119.043 32.1751 118.485 31.9259 117.416 31.9078L115.704 31.8806Z" fill="#1B2228"/>
<path d="M130.415 35.2378V37.6299C130.415 39.1975 130.438 40.1806 130.483 40.5793C130.538 41.0324 130.714 41.2816 131.013 41.3269C131.276 41.3631 131.48 41.3813 131.625 41.3813C131.698 41.3813 131.734 41.4084 131.734 41.4628C131.734 41.5353 131.661 41.5715 131.516 41.5715C131.208 41.5715 130.841 41.5625 130.415 41.5444C129.999 41.5353 129.808 41.5308 129.845 41.5308C129.854 41.5308 129.672 41.5353 129.301 41.5444C128.938 41.5625 128.676 41.5715 128.513 41.5715C128.368 41.5715 128.295 41.5353 128.295 41.4628C128.295 41.4084 128.336 41.3813 128.417 41.3813C128.508 41.3813 128.639 41.3631 128.812 41.3269C129.02 41.2816 129.151 41.0324 129.206 40.5793C129.251 40.2259 129.274 39.2428 129.274 37.6299V36.2028C129.274 36.1484 129.247 36.1212 129.192 36.1212H123.429C123.375 36.1212 123.348 36.1484 123.348 36.2028V37.6299C123.348 39.1975 123.37 40.1806 123.416 40.5793C123.47 41.0324 123.647 41.2816 123.946 41.3269C124.208 41.3631 124.412 41.3813 124.557 41.3813C124.63 41.3813 124.666 41.4084 124.666 41.4628C124.666 41.5353 124.594 41.5715 124.449 41.5715C124.141 41.5715 123.774 41.5625 123.348 41.5444C122.931 41.5353 122.741 41.5308 122.777 41.5308C122.786 41.5308 122.605 41.5353 122.233 41.5444C121.871 41.5625 121.608 41.5715 121.445 41.5715C121.3 41.5715 121.227 41.5353 121.227 41.4628C121.227 41.4084 121.268 41.3813 121.35 41.3813C121.44 41.3813 121.572 41.3631 121.744 41.3269C121.952 41.2816 122.084 41.0324 122.138 40.5793C122.183 40.2259 122.206 39.2428 122.206 37.6299V35.2378C122.206 33.5796 122.197 32.6009 122.179 32.3019C122.152 31.867 121.957 31.6087 121.594 31.5272C121.467 31.5 121.313 31.4864 121.132 31.4864C121.06 31.4864 121.023 31.4592 121.023 31.4049C121.023 31.3324 121.096 31.2961 121.241 31.2961C121.495 31.2961 121.821 31.3052 122.22 31.3233C122.618 31.3324 122.804 31.3369 122.777 31.3369C122.768 31.3369 122.944 31.3324 123.307 31.3233C123.678 31.3052 123.946 31.2961 124.109 31.2961C124.254 31.2961 124.326 31.3324 124.326 31.4049C124.326 31.4592 124.29 31.4864 124.218 31.4864C124.145 31.4864 124.032 31.5 123.878 31.5272C123.57 31.5816 123.402 31.8398 123.375 32.3019C123.357 32.6009 123.348 33.5796 123.348 35.2378V35.5232C123.348 35.5776 123.375 35.6047 123.429 35.6047H129.192C129.247 35.6047 129.274 35.5776 129.274 35.5232V35.2378C129.274 33.5796 129.265 32.6009 129.247 32.3019C129.219 31.867 129.025 31.6087 128.662 31.5272C128.535 31.5 128.381 31.4864 128.2 31.4864C128.127 31.4864 128.091 31.4592 128.091 31.4049C128.091 31.3324 128.164 31.2961 128.309 31.2961C128.562 31.2961 128.889 31.3052 129.287 31.3233C129.686 31.3324 129.872 31.3369 129.845 31.3369C129.835 31.3369 130.012 31.3324 130.375 31.3233C130.746 31.3052 131.013 31.2961 131.177 31.2961C131.322 31.2961 131.394 31.3324 131.394 31.4049C131.394 31.4592 131.358 31.4864 131.285 31.4864C131.213 31.4864 131.1 31.5 130.945 31.5272C130.637 31.5816 130.47 31.8398 130.443 32.3019C130.424 32.6009 130.415 33.5796 130.415 35.2378Z" fill="#1B2228"/>
<path d="M79.068 56.6886L82.1534 48.2481C82.2802 47.8947 82.3799 47.718 82.4524 47.718C82.5249 47.718 82.6246 47.8811 82.7514 48.2074C83.5307 50.2552 84.5863 52.9871 85.9183 56.4032C86.2808 57.3093 86.7021 57.8213 87.1823 57.9391C87.3364 57.9753 87.4859 57.9934 87.6309 57.9934C87.7215 57.9934 87.7668 58.0206 87.7668 58.075C87.7668 58.1475 87.6762 58.1837 87.495 58.1837C86.607 58.1837 85.8956 58.1747 85.361 58.1566C85.0892 58.1475 84.9533 58.1158 84.9533 58.0614C84.9533 58.0161 84.985 57.9844 85.0484 57.9663C85.1843 57.93 85.2115 57.8077 85.13 57.5993L83.8659 54.2557C83.8388 54.2013 83.798 54.1742 83.7436 54.1742H80.8214C80.7579 54.1742 80.7126 54.2104 80.6855 54.2829L79.87 56.6886C79.7431 57.0601 79.6797 57.3637 79.6797 57.5993C79.6797 57.8621 79.8518 57.9934 80.1962 57.9934H80.3321C80.4227 57.9934 80.468 58.0206 80.468 58.075C80.468 58.1475 80.4 58.1837 80.2641 58.1837C80.1373 58.1837 79.9379 58.1747 79.6661 58.1566C79.3942 58.1475 79.2402 58.143 79.204 58.143C79.1949 58.143 79.0001 58.1475 78.6195 58.1566C78.2389 58.1747 77.9218 58.1837 77.6681 58.1837C77.4959 58.1837 77.4098 58.1475 77.4098 58.075C77.4098 58.0206 77.4506 57.9934 77.5322 57.9934C77.659 57.9934 77.7904 57.9844 77.9263 57.9663C78.3975 57.9028 78.7781 57.477 79.068 56.6886ZM80.9709 53.6848H83.5669C83.6213 53.6848 83.6394 53.6531 83.6213 53.5897L82.3301 49.9199C82.2938 49.8202 82.2576 49.7704 82.2213 49.7704C82.1941 49.7704 82.1624 49.8202 82.1262 49.9199L80.9301 53.5897C80.912 53.6531 80.9256 53.6848 80.9709 53.6848Z" fill="#1B2228"/>
<path d="M90.6645 58.374C89.9487 58.374 89.3416 58.2517 88.8432 58.007C88.7073 57.9436 88.6393 57.7715 88.6393 57.4906C88.6393 56.7113 88.6665 56.1948 88.7209 55.9411C88.739 55.8686 88.7707 55.8324 88.816 55.8324C88.8794 55.8324 88.9112 55.8822 88.9112 55.9819C88.9112 56.1812 88.9247 56.3488 88.9519 56.4848C89.1422 57.409 89.8127 57.8711 90.9635 57.8711C91.5797 57.8711 92.069 57.6763 92.4314 57.2867C92.7486 56.9514 92.9071 56.5437 92.9071 56.0634C92.9071 55.6013 92.7939 55.2026 92.5673 54.8673C92.3499 54.523 91.9421 54.1062 91.3441 53.6169L90.7325 53.114C90.0529 52.5522 89.5772 52.0266 89.3053 51.5373C89.0788 51.1296 88.9655 50.672 88.9655 50.1646C88.9655 49.4306 89.2192 48.8416 89.7267 48.3976C90.2341 47.9446 90.9182 47.718 91.779 47.718C92.223 47.718 92.6444 47.7634 93.0431 47.854C93.2424 47.8993 93.401 47.9219 93.5188 47.9219C93.6094 47.9219 93.6547 47.9536 93.6547 48.0171C93.6547 47.9718 93.6456 48.1077 93.6275 48.4248C93.6094 48.7329 93.6003 49.0772 93.6003 49.4578C93.6003 49.6662 93.5686 49.7704 93.5052 49.7704C93.4418 49.7704 93.4055 49.7115 93.3964 49.5937C93.3693 49.3038 93.3104 49.0772 93.2198 48.9141C92.957 48.4339 92.3907 48.1938 91.5208 48.1938C91.0405 48.1938 90.6418 48.3387 90.3247 48.6287C90.0076 48.9096 89.849 49.2902 89.849 49.7704C89.849 50.16 89.9623 50.5134 90.1888 50.8306C90.4153 51.1386 90.8548 51.5464 91.5072 52.0538L91.8878 52.3529C92.658 52.96 93.188 53.5127 93.478 54.0111C93.7408 54.455 93.8722 54.967 93.8722 55.5469C93.8722 56.5074 93.4871 57.2595 92.7169 57.8032C92.1732 58.1837 91.4891 58.374 90.6645 58.374Z" fill="#1B2228"/>
<path d="M98.4161 58.374C97.7002 58.374 97.0931 58.2517 96.5948 58.007C96.4588 57.9436 96.3909 57.7715 96.3909 57.4906C96.3909 56.7113 96.4181 56.1948 96.4724 55.9411C96.4906 55.8686 96.5223 55.8324 96.5676 55.8324C96.631 55.8324 96.6627 55.8822 96.6627 55.9819C96.6627 56.1812 96.6763 56.3488 96.7035 56.4848C96.8938 57.409 97.5643 57.8711 98.7151 57.8711C99.3312 57.8711 99.8206 57.6763 100.183 57.2867C100.5 56.9514 100.659 56.5437 100.659 56.0634C100.659 55.6013 100.545 55.2026 100.319 54.8673C100.101 54.523 99.6937 54.1062 99.0957 53.6169L98.484 53.114C97.8044 52.5522 97.3287 52.0266 97.0569 51.5373C96.8304 51.1296 96.7171 50.672 96.7171 50.1646C96.7171 49.4306 96.9708 48.8416 97.4782 48.3976C97.9857 47.9446 98.6698 47.718 99.5306 47.718C99.9746 47.718 100.396 47.7634 100.795 47.854C100.994 47.8993 101.153 47.9219 101.27 47.9219C101.361 47.9219 101.406 47.9536 101.406 48.0171C101.406 47.9718 101.397 48.1077 101.379 48.4248C101.361 48.7329 101.352 49.0772 101.352 49.4578C101.352 49.6662 101.32 49.7704 101.257 49.7704C101.193 49.7704 101.157 49.7115 101.148 49.5937C101.121 49.3038 101.062 49.0772 100.971 48.9141C100.709 48.4339 100.142 48.1938 99.2724 48.1938C98.7921 48.1938 98.3934 48.3387 98.0763 48.6287C97.7591 48.9096 97.6006 49.2902 97.6006 49.7704C97.6006 50.16 97.7138 50.5134 97.9404 50.8306C98.1669 51.1386 98.6064 51.5464 99.2588 52.0538L99.6393 52.3529C100.41 52.96 100.94 53.5127 101.23 54.0111C101.492 54.455 101.624 54.967 101.624 55.5469C101.624 56.5074 101.239 57.2595 100.468 57.8032C99.9248 58.1837 99.2406 58.374 98.4161 58.374Z" fill="#1B2228"/>
<path d="M103.667 53.0324C103.667 51.7367 104.093 50.5769 104.944 49.5529C105.95 48.3297 107.309 47.718 109.022 47.718C110.58 47.718 111.854 48.1711 112.841 49.0772C113.856 50.0105 114.363 51.2564 114.363 52.815C114.363 54.3735 113.87 55.6783 112.882 56.7294C111.858 57.8258 110.544 58.374 108.94 58.374C107.219 58.374 105.873 57.7896 104.904 56.6207C104.079 55.6239 103.667 54.4279 103.667 53.0324ZM104.958 52.6519C104.958 54.2104 105.379 55.4744 106.222 56.444C107.028 57.3863 108.057 57.8575 109.307 57.8575C110.204 57.8575 110.984 57.5766 111.645 57.0148C112.587 56.1993 113.059 54.9262 113.059 53.1955C113.059 51.637 112.637 50.3911 111.795 49.4578C111.024 48.606 110.068 48.1802 108.927 48.1802C107.749 48.1802 106.802 48.5517 106.086 49.2947C105.334 50.0921 104.958 51.2111 104.958 52.6519Z" fill="#1B2228"/>
<path d="M122.234 58.374C120.331 58.374 118.831 57.8847 117.735 56.9061C116.647 55.9184 116.104 54.5774 116.104 52.8829C116.104 52.3121 116.208 51.7322 116.416 51.1432C116.679 50.373 117.082 49.716 117.626 49.1724C118.596 48.2028 119.977 47.718 121.772 47.718C122.496 47.718 123.153 47.7724 123.742 47.8811C124.368 47.9989 124.83 48.0669 125.129 48.085C125.247 48.0941 125.305 48.1439 125.305 48.2345C125.305 48.2617 125.296 48.3478 125.278 48.4928C125.26 48.6378 125.247 48.8054 125.237 48.9957C125.228 49.3944 125.215 49.861 125.197 50.3956C125.188 50.5859 125.147 50.6811 125.074 50.6811C125.002 50.6811 124.966 50.5859 124.966 50.3956C124.966 49.7976 124.775 49.3355 124.395 49.0093C123.788 48.4928 122.882 48.2345 121.676 48.2345C120.281 48.2345 119.239 48.5653 118.55 49.2267C117.735 50.0151 117.327 51.1975 117.327 52.7742C117.327 54.1153 117.78 55.2706 118.686 56.2401C119.638 57.2459 120.82 57.7488 122.234 57.7488C123.375 57.7488 124.164 57.5223 124.599 57.0692C124.843 56.8155 125.011 56.4349 125.102 55.9275C125.129 55.7916 125.174 55.7236 125.237 55.7236C125.301 55.7236 125.333 55.7916 125.333 55.9275C125.333 56 125.301 56.2446 125.237 56.6615C125.165 57.1326 125.097 57.4679 125.034 57.6672C124.979 57.8575 124.861 57.9889 124.68 58.0614C124.173 58.2698 123.357 58.374 122.234 58.374Z" fill="#1B2228"/>
<path d="M129.732 51.85V54.2421C129.732 55.8097 129.755 56.7928 129.8 57.1915C129.854 57.6446 130.031 57.8938 130.33 57.9391C130.593 57.9753 130.797 57.9934 130.942 57.9934C131.014 57.9934 131.051 58.0206 131.051 58.075C131.051 58.1475 130.978 58.1837 130.833 58.1837C130.525 58.1837 130.158 58.1747 129.732 58.1566C129.315 58.1475 129.125 58.143 129.161 58.143C129.17 58.143 128.989 58.1475 128.618 58.1566C128.255 58.1747 127.992 58.1837 127.829 58.1837C127.684 58.1837 127.612 58.1475 127.612 58.075C127.612 58.0206 127.653 57.9934 127.734 57.9934C127.825 57.9934 127.956 57.9753 128.128 57.9391C128.337 57.8938 128.468 57.6446 128.522 57.1915C128.568 56.8381 128.59 55.855 128.59 54.2421V51.85C128.59 50.1918 128.581 49.2131 128.563 48.9141C128.536 48.4792 128.382 48.2255 128.101 48.153C127.947 48.1167 127.807 48.0986 127.68 48.0986C127.607 48.0986 127.571 48.0714 127.571 48.0171C127.571 47.9446 127.643 47.9083 127.788 47.9083C127.97 47.9083 128.246 47.9174 128.618 47.9355C128.989 47.9446 129.17 47.9491 129.161 47.9491C129.152 47.9491 129.329 47.9446 129.691 47.9355C130.063 47.9174 130.33 47.9083 130.493 47.9083C130.638 47.9083 130.711 47.9446 130.711 48.0171C130.711 48.0714 130.674 48.0986 130.602 48.0986C130.529 48.0986 130.416 48.1122 130.262 48.1394C129.954 48.1938 129.786 48.452 129.759 48.9141C129.741 49.2131 129.732 50.1918 129.732 51.85Z" fill="#1B2228"/>
<path d="M133.448 56.6886L136.534 48.2481C136.661 47.8947 136.76 47.718 136.833 47.718C136.905 47.718 137.005 47.8811 137.132 48.2074C137.911 50.2552 138.967 52.9871 140.299 56.4032C140.661 57.3093 141.083 57.8213 141.563 57.9391C141.717 57.9753 141.866 57.9934 142.011 57.9934C142.102 57.9934 142.147 58.0206 142.147 58.075C142.147 58.1475 142.057 58.1837 141.875 58.1837C140.987 58.1837 140.276 58.1747 139.742 58.1566C139.47 58.1475 139.334 58.1158 139.334 58.0614C139.334 58.0161 139.365 57.9844 139.429 57.9663C139.565 57.93 139.592 57.8077 139.51 57.5993L138.246 54.2557C138.219 54.2013 138.178 54.1742 138.124 54.1742H135.202C135.138 54.1742 135.093 54.2104 135.066 54.2829L134.25 56.6886C134.124 57.0601 134.06 57.3637 134.06 57.5993C134.06 57.8621 134.232 57.9934 134.577 57.9934H134.713C134.803 57.9934 134.848 58.0206 134.848 58.075C134.848 58.1475 134.78 58.1837 134.645 58.1837C134.518 58.1837 134.318 58.1747 134.047 58.1566C133.775 58.1475 133.621 58.143 133.584 58.143C133.575 58.143 133.381 58.1475 133 58.1566C132.619 58.1747 132.302 58.1837 132.049 58.1837C131.876 58.1837 131.79 58.1475 131.79 58.075C131.79 58.0206 131.831 57.9934 131.913 57.9934C132.039 57.9934 132.171 57.9844 132.307 57.9663C132.778 57.9028 133.159 57.477 133.448 56.6886ZM135.351 53.6848H137.947C138.002 53.6848 138.02 53.6531 138.002 53.5897L136.711 49.9199C136.674 49.8202 136.638 49.7704 136.602 49.7704C136.575 49.7704 136.543 49.8202 136.507 49.9199L135.311 53.5897C135.292 53.6531 135.306 53.6848 135.351 53.6848Z" fill="#1B2228"/>
<path d="M146.989 48.4928V54.2421C146.989 55.8097 147.011 56.7928 147.057 57.1915C147.111 57.6446 147.288 57.8938 147.587 57.9391C147.849 57.9753 148.053 57.9934 148.198 57.9934C148.271 57.9934 148.307 58.0206 148.307 58.075C148.307 58.1475 148.235 58.1837 148.09 58.1837C147.781 58.1837 147.414 58.1747 146.989 58.1566C146.572 58.1475 146.381 58.143 146.418 58.143C146.427 58.143 146.246 58.1475 145.874 58.1566C145.512 58.1747 145.249 58.1837 145.086 58.1837C144.941 58.1837 144.868 58.1475 144.868 58.075C144.868 58.0206 144.909 57.9934 144.991 57.9934C145.081 57.9934 145.213 57.9753 145.385 57.9391C145.593 57.8938 145.725 57.6446 145.779 57.1915C145.824 56.8381 145.847 55.855 145.847 54.2421V48.4928L143.835 48.52C143.482 48.529 143.228 48.5471 143.074 48.5743C142.784 48.6378 142.576 48.7646 142.449 48.9549C142.395 49.0636 142.34 49.1724 142.286 49.2811C142.204 49.4351 142.136 49.5122 142.082 49.5122C142.037 49.5122 142.014 49.4714 142.014 49.3898C142.014 49.1452 142.114 48.674 142.313 47.9763C142.358 47.8041 142.404 47.718 142.449 47.718C142.467 47.718 142.535 47.7452 142.653 47.7996C142.771 47.8449 142.902 47.8721 143.047 47.8811C143.554 47.9265 143.912 47.9491 144.121 47.9491H149.218C149.571 47.9491 149.888 47.9265 150.169 47.8811C150.459 47.8358 150.59 47.8132 150.563 47.8132C150.609 47.8132 150.631 47.8676 150.631 47.9763C150.631 48.1303 150.622 48.4112 150.604 48.819C150.595 49.2267 150.59 49.4442 150.59 49.4714C150.59 49.5892 150.559 49.6481 150.495 49.6481C150.441 49.6481 150.405 49.5711 150.387 49.417L150.373 49.2675C150.328 48.7873 149.77 48.5381 148.701 48.52L146.989 48.4928Z" fill="#1B2228"/>
<path d="M154.633 51.85V54.2421C154.633 55.8097 154.655 56.7928 154.701 57.1915C154.755 57.6446 154.932 57.8938 155.231 57.9391C155.494 57.9753 155.697 57.9934 155.842 57.9934C155.915 57.9934 155.951 58.0206 155.951 58.075C155.951 58.1475 155.879 58.1837 155.734 58.1837C155.426 58.1837 155.059 58.1747 154.633 58.1566C154.216 58.1475 154.026 58.143 154.062 58.143C154.071 58.143 153.89 58.1475 153.518 58.1566C153.156 58.1747 152.893 58.1837 152.73 58.1837C152.585 58.1837 152.512 58.1475 152.512 58.075C152.512 58.0206 152.553 57.9934 152.635 57.9934C152.725 57.9934 152.857 57.9753 153.029 57.9391C153.237 57.8938 153.369 57.6446 153.423 57.1915C153.468 56.8381 153.491 55.855 153.491 54.2421V51.85C153.491 50.1918 153.482 49.2131 153.464 48.9141C153.437 48.4792 153.283 48.2255 153.002 48.153C152.848 48.1167 152.707 48.0986 152.58 48.0986C152.508 48.0986 152.472 48.0714 152.472 48.0171C152.472 47.9446 152.544 47.9083 152.689 47.9083C152.87 47.9083 153.147 47.9174 153.518 47.9355C153.89 47.9446 154.071 47.9491 154.062 47.9491C154.053 47.9491 154.229 47.9446 154.592 47.9355C154.963 47.9174 155.231 47.9083 155.394 47.9083C155.539 47.9083 155.611 47.9446 155.611 48.0171C155.611 48.0714 155.575 48.0986 155.503 48.0986C155.43 48.0986 155.317 48.1122 155.163 48.1394C154.855 48.1938 154.687 48.452 154.66 48.9141C154.642 49.2131 154.633 50.1918 154.633 51.85Z" fill="#1B2228"/>
<path d="M157.928 53.0324C157.928 51.7367 158.354 50.5769 159.205 49.5529C160.211 48.3297 161.57 47.718 163.283 47.718C164.841 47.718 166.115 48.1711 167.102 49.0772C168.117 50.0105 168.624 51.2564 168.624 52.815C168.624 54.3735 168.131 55.6783 167.143 56.7294C166.119 57.8258 164.805 58.374 163.201 58.374C161.48 58.374 160.134 57.7896 159.165 56.6207C158.34 55.6239 157.928 54.4279 157.928 53.0324ZM159.219 52.6519C159.219 54.2104 159.64 55.4744 160.483 56.444C161.289 57.3863 162.318 57.8575 163.568 57.8575C164.465 57.8575 165.245 57.5766 165.906 57.0148C166.849 56.1993 167.32 54.9262 167.32 53.1955C167.32 51.637 166.898 50.3911 166.056 49.4578C165.285 48.606 164.329 48.1802 163.188 48.1802C162.01 48.1802 161.063 48.5517 160.347 49.2947C159.595 50.0921 159.219 51.2111 159.219 52.6519Z" fill="#1B2228"/>
<path d="M172.105 49.8248L172.281 56.3352C172.29 56.7702 172.313 57.0692 172.349 57.2323C172.422 57.6219 172.576 57.8485 172.811 57.9119C173.002 57.9663 173.228 57.9934 173.491 57.9934C173.563 57.9934 173.6 58.0206 173.6 58.075C173.6 58.1475 173.518 58.1837 173.355 58.1837C173.047 58.1837 172.725 58.1747 172.39 58.1566C172.064 58.1475 171.905 58.143 171.914 58.143C171.914 58.143 171.756 58.1475 171.439 58.1566C171.13 58.1747 170.854 58.1837 170.609 58.1837C170.464 58.1837 170.392 58.1475 170.392 58.075C170.392 58.0206 170.428 57.9934 170.501 57.9934C170.691 57.9934 170.881 57.9663 171.072 57.9119C171.271 57.8485 171.393 57.5948 171.439 57.1508C171.457 57.0148 171.466 56.6932 171.466 56.1857L171.479 48.3976C171.479 47.9446 171.529 47.718 171.629 47.718C171.674 47.718 171.833 47.863 172.105 48.153C172.848 48.9594 174.288 50.5134 176.427 52.815C177.369 53.8479 178.456 55.0304 179.689 56.3624L179.539 49.4578C179.53 49.0047 179.489 48.6921 179.417 48.52C179.353 48.3387 179.222 48.2255 179.023 48.1802C178.832 48.1258 178.606 48.0986 178.343 48.0986C178.271 48.0986 178.234 48.0669 178.234 48.0035C178.234 47.94 178.325 47.9083 178.506 47.9083C178.751 47.9083 179.045 47.9174 179.39 47.9355C179.734 47.9446 179.911 47.9491 179.92 47.9491C179.938 47.9491 180.078 47.9446 180.341 47.9355C180.613 47.9174 180.858 47.9083 181.075 47.9083C181.238 47.9083 181.32 47.94 181.32 48.0035C181.32 48.0669 181.27 48.0986 181.17 48.0986C181.08 48.0986 180.971 48.1122 180.844 48.1394C180.627 48.1847 180.486 48.2934 180.423 48.4656C180.368 48.6287 180.341 48.9232 180.341 49.3491L180.314 57.3139C180.314 57.9572 180.273 58.2789 180.192 58.2789C180.119 58.2789 179.788 57.9889 179.199 57.409C178.221 56.4394 177.038 55.2117 175.652 53.7256C174.411 52.3936 173.228 51.0933 172.105 49.8248Z" fill="#1B2228"/>
</svg>