<svg width="169" height="68" viewBox="0 0 169 68" fill="none" xmlns="http://www.w3.org/2000/svg">
<path d="M86.1937 13.1988H79.7199C78.8337 13.1958 77.9826 13.533 77.3533 14.1363C76.724 14.7395 76.3679 15.5597 76.3633 16.4166V32.0539H80.0409V17.7602C80.0409 17.4767 80.157 17.2047 80.3637 17.0037C80.5705 16.8027 80.8511 16.6891 81.1442 16.6876H84.7927C85.0864 16.6891 85.3676 16.8025 85.5752 17.0034C85.7829 17.2042 85.9003 17.4762 85.9018 17.7602V19.7642H89.5619V16.4166C89.5596 15.9913 89.4706 15.5707 89.3001 15.1787C89.1295 14.7867 88.8807 14.4311 88.5678 14.1322C88.255 13.8334 87.8842 13.5971 87.4769 13.4369C87.0695 13.2767 86.6334 13.1958 86.1937 13.1988Z" fill="#1B2228"/>
<path d="M102.252 25.3699C103.136 25.3655 103.984 25.0243 104.609 24.4205C105.234 23.8168 105.586 22.9995 105.589 22.1465V16.4166C105.589 15.994 105.503 15.5756 105.335 15.1852C105.167 14.7948 104.922 14.44 104.612 14.1412C104.302 13.8424 103.934 13.6054 103.529 13.4437C103.124 13.282 102.69 13.1988 102.252 13.1988H95.7576C94.8688 13.1957 94.015 13.5329 93.3837 14.1362C92.7524 14.7395 92.3953 15.5596 92.3906 16.4166V28.8361C92.3953 29.6931 92.7524 30.5132 93.3837 31.1165C94.015 31.7198 94.8688 32.0569 95.7576 32.0539H102.252C103.137 32.0539 103.986 31.7149 104.612 31.1115C105.238 30.508 105.589 29.6895 105.589 28.8361V27.0071H101.941V27.4926C101.94 27.776 101.822 28.0474 101.613 28.2474C101.405 28.4473 101.123 28.5595 100.829 28.5595H97.1747C96.8806 28.5595 96.5985 28.4473 96.3901 28.2474C96.1816 28.0474 96.0637 27.776 96.0621 27.4926V25.3699H102.252ZM96.0446 17.7545C96.0461 17.471 96.164 17.1996 96.3725 16.9997C96.581 16.7998 96.8631 16.6875 97.1571 16.6875H100.811C101.105 16.6875 101.387 16.7998 101.596 16.9997C101.804 17.1996 101.922 17.471 101.924 17.7545V20.7803C101.924 21.0648 101.806 21.3376 101.598 21.5388C101.389 21.7399 101.106 21.8529 100.811 21.8529H97.1571C96.8804 21.8543 96.613 21.7561 96.4073 21.5776C96.2016 21.3991 96.0722 21.1531 96.0446 20.8876V17.7545Z" fill="#1B2228"/>
<path d="M111.54 32.0539H117.573C118.395 32.0524 119.183 31.7129 119.764 31.1098C120.345 30.5066 120.672 29.689 120.674 28.8361V24.9352H117.269V27.4925C117.269 27.776 117.16 28.048 116.968 28.249C116.775 28.4499 116.514 28.5636 116.24 28.5651H112.868C112.728 28.572 112.588 28.5493 112.456 28.4986C112.325 28.4478 112.205 28.37 112.103 28.2698C112.002 28.1696 111.92 28.049 111.865 27.9155C111.809 27.7819 111.78 27.638 111.78 27.4925V19.7924H117.638V16.2754H111.829V13.1987H108.418V28.8361C108.418 29.2606 108.499 29.6808 108.656 30.0727C108.813 30.4646 109.044 30.8203 109.334 31.1194C109.624 31.4185 109.968 31.6551 110.347 31.8154C110.726 31.9758 111.131 32.0569 111.54 32.0539Z" fill="#1B2228"/>
<path d="M127.849 17.7601C127.849 17.4757 127.957 17.2028 128.151 17.0017C128.344 16.8005 128.606 16.6875 128.88 16.6875H132.267C132.54 16.6875 132.803 16.8005 132.996 17.0017C133.189 17.2028 133.298 17.4757 133.298 17.7601V19.7642H136.701V16.4166C136.697 15.5606 136.367 14.7413 135.783 14.1382C135.199 13.5351 134.409 13.1972 133.586 13.1988H127.566C126.742 13.1957 125.951 13.5329 125.366 14.1362C124.781 14.7395 124.45 15.5596 124.445 16.4166V32.0539H127.849V17.7601Z" fill="#1B2228"/>
<path d="M149.604 13.1991H143.566C142.745 13.2005 141.957 13.5402 141.377 14.1435C140.797 14.7468 140.471 15.5643 140.471 16.4167V28.8359C140.471 29.6883 140.797 30.5059 141.377 31.1092C141.957 31.7125 142.745 32.0521 143.566 32.0536H149.604C150.014 32.0597 150.421 31.9807 150.801 31.8214C151.181 31.6621 151.526 31.4257 151.817 31.126C152.108 30.8263 152.338 30.4694 152.494 30.0761C152.651 29.6829 152.729 29.2612 152.727 28.8359V16.4167C152.729 15.9914 152.651 15.5698 152.494 15.1765C152.338 14.7833 152.108 14.4264 151.817 14.1267C151.526 13.827 151.181 13.5906 150.801 13.4313C150.421 13.272 150.014 13.193 149.604 13.1991ZM149.343 27.4642C149.346 27.6069 149.321 27.7488 149.271 27.8816C149.22 28.0143 149.144 28.1352 149.048 28.2372C148.952 28.3392 148.837 28.4203 148.71 28.4756C148.583 28.5309 148.447 28.5594 148.309 28.5593H144.937C144.799 28.5594 144.663 28.5309 144.537 28.4755C144.41 28.4201 144.296 28.339 144.2 28.2369C144.104 28.1348 144.029 28.0139 143.979 27.8811C143.929 27.7484 143.905 27.6066 143.909 27.4642V17.7829C143.904 17.6386 143.927 17.4948 143.977 17.3598C144.026 17.2249 144.101 17.1014 144.196 16.9965C144.292 16.8915 144.407 16.8072 144.534 16.7484C144.661 16.6896 144.798 16.6575 144.937 16.6538H148.337C148.616 16.6683 148.879 16.7937 149.071 17.0038C149.263 17.214 149.371 17.493 149.37 17.7829L149.343 27.4642Z" fill="#1B2228"/>
<path d="M85.9219 50.0722C85.9236 50.2152 85.8952 50.3571 85.8385 50.4892C85.7818 50.6213 85.6979 50.7408 85.5919 50.8406C85.4859 50.9404 85.36 51.0184 85.2219 51.0698C85.0838 51.1211 84.9363 51.1449 84.7885 51.1395H81.1368C80.9891 51.1441 80.842 51.1198 80.7043 51.0681C80.5665 51.0165 80.441 50.9385 80.3352 50.8388C80.2294 50.7392 80.1454 50.6199 80.0884 50.4882C80.0314 50.3565 80.0024 50.215 80.0033 50.0722L80.0442 35.825H76.3633V51.4614C76.3648 52.3146 76.7162 53.1324 77.3404 53.7357C77.9647 54.3391 78.8108 54.6787 79.6936 54.6802H86.2024C87.0893 54.6832 87.9412 54.3459 88.5711 53.7424C89.2009 53.1389 89.5573 52.3186 89.5619 51.4614V47.5593H85.9219V50.0722Z" fill="#1B2228"/>
<path d="M102.252 47.9962C103.14 47.9917 103.991 47.6473 104.617 47.0388C105.243 46.4302 105.592 45.6071 105.589 44.7501V39.0428C105.588 38.1898 105.236 37.3722 104.61 36.7691C103.984 36.166 103.136 35.8265 102.252 35.825H95.7576C94.8688 35.822 94.015 36.1591 93.3837 36.7624C92.7524 37.3657 92.3953 38.1858 92.3906 39.0428V51.4623C92.3953 52.3193 92.7524 53.1394 93.3837 53.7427C94.015 54.346 94.8688 54.6832 95.7576 54.6802H102.252C103.136 54.6787 103.984 54.3392 104.61 53.736C105.236 53.1329 105.588 52.3153 105.589 51.4623V49.6389H101.941V50.1188C101.941 50.4032 101.824 50.6761 101.615 50.8772C101.407 51.0784 101.124 51.1914 100.829 51.1914H97.1747C96.8796 51.1914 96.5966 51.0784 96.388 50.8772C96.1793 50.6761 96.0621 50.4032 96.0621 50.1188V47.9962H102.252ZM96.0445 40.3863C96.0445 40.1019 96.1618 39.8291 96.3704 39.6279C96.5791 39.4268 96.8621 39.3137 97.1571 39.3137H100.811C101.106 39.3137 101.389 39.4268 101.598 39.6279C101.806 39.8291 101.924 40.1019 101.924 40.3863V43.4122C101.922 43.6957 101.804 43.9671 101.596 44.167C101.387 44.3669 101.105 44.4792 100.811 44.4792H97.1571C96.8804 44.4805 96.613 44.3823 96.4073 44.2038C96.2015 44.0253 96.0722 43.7793 96.0445 43.5138V40.3863Z" fill="#1B2228"/>
<path d="M118.279 35.825H111.779C110.891 35.8235 110.039 36.1614 109.409 36.7647C108.779 37.368 108.423 38.1875 108.418 39.0437V54.6802H112.066V40.3821C112.068 40.098 112.185 39.8259 112.394 39.625C112.602 39.4241 112.884 39.3106 113.179 39.3091H116.833C117.127 39.3106 117.409 39.4241 117.618 39.625C117.826 39.8259 117.944 40.098 117.945 40.3821V54.6802H121.617V39.0437C121.612 38.1914 121.259 37.3753 120.634 36.7726C120.009 36.17 119.163 35.8294 118.279 35.825Z" fill="#1B2228"/>
<path d="M133.598 35.825H127.57C126.745 35.822 125.953 36.1592 125.367 36.7627C124.781 37.3662 124.45 38.1866 124.445 39.0437V42.7312C124.442 43.237 124.581 43.7328 124.847 44.1566C125.113 44.5804 125.493 44.9134 125.94 45.1142L132.071 47.8756C132.44 48.0391 132.755 48.3123 132.975 48.6609C133.195 49.0095 133.312 49.418 133.31 49.8351V50.0948C133.31 50.3784 133.202 50.6505 133.009 50.8515C132.817 51.0526 132.556 51.1663 132.283 51.1677H128.891C128.618 51.1663 128.357 51.0526 128.165 50.8515C127.972 50.6505 127.864 50.3784 127.864 50.0948V47.5593H124.451V51.4614C124.455 52.3186 124.787 53.1389 125.373 53.7424C125.958 54.3459 126.751 54.6832 127.576 54.6802H133.603C134.424 54.6787 135.212 54.3391 135.792 53.7357C136.373 53.1324 136.7 52.3146 136.701 51.4614V47.8812C136.703 47.3794 136.562 46.8881 136.296 46.4692C136.03 46.0503 135.651 45.7223 135.207 45.5264L129.109 42.7651C128.737 42.5957 128.422 42.3174 128.201 41.9642C127.98 41.6111 127.863 41.1986 127.864 40.7773V40.3821C127.864 40.0985 127.972 39.8264 128.165 39.6254C128.357 39.4243 128.618 39.3106 128.891 39.3091H132.288C132.561 39.3106 132.822 39.4243 133.015 39.6254C133.207 39.8264 133.315 40.0985 133.315 40.3821V42.415H136.701V39.0268C136.697 38.1751 136.368 37.3599 135.786 36.7597C135.204 36.1596 134.418 35.8235 133.598 35.825Z" fill="#1B2228"/>
<path d="M149.627 47.9962C150.453 47.9917 151.243 47.6473 151.824 47.0388C152.405 46.4302 152.729 45.6071 152.727 44.7501V39.0428C152.725 38.1898 152.398 37.3722 151.817 36.7691C151.236 36.166 150.449 35.8265 149.627 35.825H143.597C142.772 35.822 141.979 36.1591 141.393 36.7624C140.807 37.3657 140.475 38.1858 140.471 39.0428V51.4623C140.475 52.3193 140.807 53.1394 141.393 53.7427C141.979 54.346 142.772 54.6832 143.597 54.6802H149.627C150.449 54.6787 151.236 54.3392 151.817 53.736C152.398 53.1329 152.725 52.3153 152.727 51.4623V49.6389H149.339V50.1188C149.339 50.4023 149.231 50.6742 149.038 50.8752C148.846 51.0762 148.584 51.1899 148.311 51.1914H144.913C144.64 51.1899 144.378 51.0764 144.184 50.8756C143.991 50.6748 143.881 50.4028 143.88 50.1188V47.9962H149.627ZM143.88 40.3863C143.881 40.1023 143.991 39.8304 144.184 39.6295C144.378 39.4287 144.64 39.3152 144.913 39.3137H148.311C148.584 39.3152 148.846 39.4289 149.038 39.6299C149.231 39.8309 149.339 40.1028 149.339 40.3863V43.4122C149.339 43.6952 149.231 43.9666 149.038 44.1667C148.845 44.3667 148.584 44.4792 148.311 44.4792H144.913C144.656 44.4792 144.409 44.3806 144.218 44.2024C144.027 44.0241 143.907 43.7788 143.88 43.5138V40.3863Z" fill="#1B2228"/>
<path d="M168.753 42.426V39.0408C168.753 38.1879 168.402 37.37 167.776 36.7669C167.15 36.1638 166.302 35.825 165.417 35.825H158.926C158.038 35.822 157.184 36.1589 156.553 36.7619C155.922 37.3648 155.565 38.1844 155.561 39.0408V42.7419C155.557 43.2473 155.707 43.7426 155.993 44.166C156.28 44.5894 156.689 44.9222 157.17 45.1228L163.772 47.8817C164.17 48.045 164.509 48.318 164.746 48.6663C164.984 49.0146 165.109 49.4227 165.107 49.8394V50.0989C165.107 50.3823 164.991 50.6541 164.783 50.8549C164.576 51.0558 164.295 51.1694 164.001 51.1709H160.337C160.042 51.1694 159.76 51.056 159.552 50.8553C159.344 50.6546 159.226 50.3828 159.225 50.0989V47.5657H155.555V51.4643C155.559 52.3207 155.916 53.1403 156.547 53.7433C157.178 54.3462 158.032 54.6832 158.92 54.6802H165.411C166.296 54.6787 167.143 54.3394 167.769 53.7366C168.394 53.1338 168.746 52.3167 168.747 51.4643V47.8873C168.75 47.3858 168.599 46.8947 168.312 46.4759C168.026 46.0572 167.617 45.7297 167.138 45.5347L160.565 42.7758C160.166 42.6054 159.827 42.327 159.589 41.9745C159.351 41.6219 159.225 41.2104 159.225 40.7898V40.3949C159.226 40.1111 159.344 39.8393 159.552 39.6385C159.76 39.4378 160.042 39.3244 160.337 39.3229H163.995C164.289 39.3244 164.57 39.438 164.777 39.6389C164.985 39.8398 165.101 40.1116 165.101 40.3949V42.426H168.753Z" fill="#1B2228"/>
<path d="M57.1269 9.93402C51.6507 4.38372 44.4462 0.93052 36.7408 0.162722C29.0355 -0.605075 21.306 1.36003 14.8692 5.72325C8.43236 10.0865 3.68641 16.5779 1.43987 24.0916C-0.806677 31.6053 -0.414841 39.6764 2.54865 46.93C5.51214 54.1836 10.8639 60.1708 17.6923 63.8717C24.5206 67.5727 32.4031 68.7583 39.9968 67.2267C47.5905 65.6951 54.4256 61.5409 59.3378 55.472C64.2499 49.403 66.9351 41.7947 66.936 33.9432C66.9417 29.4832 66.0781 25.0661 64.3947 20.9457C62.7113 16.8254 60.2414 13.0831 57.1269 9.93402ZM23.31 19.3905C23.3122 18.729 23.4432 18.0745 23.6956 17.4646C23.9479 16.8546 24.3166 16.3012 24.7804 15.8362C25.2442 15.3711 25.7941 15.0035 26.3984 14.7546C27.0027 14.5056 27.6495 14.3802 28.3018 14.3854H38.4317C39.1057 14.3847 39.7732 14.5186 40.3962 14.7795C41.0192 15.0403 41.5854 15.4231 42.0625 15.9059C42.5396 16.3886 42.9183 16.962 43.1769 17.5932C43.4355 18.2243 43.569 18.901 43.5698 19.5845V24.3898C43.5698 24.4433 43.5492 24.4947 43.5124 24.5331C43.4756 24.5714 43.4255 24.5937 43.3728 24.5952H38.6905C38.6368 24.5952 38.5853 24.5736 38.5473 24.535C38.5093 24.4965 38.4879 24.4443 38.4879 24.3898V21.8273C38.4864 21.2032 38.2409 20.6052 37.8052 20.1644C37.3695 19.7236 36.7791 19.4761 36.1637 19.4761H30.733C30.4297 19.4746 30.1292 19.5338 29.8486 19.6505C29.5681 19.7671 29.313 19.9388 29.0981 20.1557C28.8832 20.3726 28.7126 20.6304 28.5962 20.9143C28.4798 21.1983 28.4199 21.5027 28.4199 21.8102V24.3726C28.4207 24.3994 28.4162 24.4259 28.4066 24.4508C28.3971 24.4757 28.3827 24.4984 28.3643 24.5176C28.3459 24.5367 28.324 24.552 28.2997 24.5624C28.2754 24.5728 28.2493 24.5781 28.223 24.5781H23.5013C23.4476 24.5781 23.3961 24.5564 23.3581 24.5179C23.3201 24.4794 23.2987 24.4271 23.2987 24.3726L23.31 19.3905ZM55.236 42.8746C55.2345 44.3262 54.6656 45.718 53.654 46.745C52.6423 47.7719 51.2704 48.3503 49.839 48.3533H45.8996C45.8735 48.3541 45.8476 48.3495 45.8233 48.3397C45.7991 48.33 45.7771 48.3153 45.7586 48.2966C45.7402 48.2779 45.7257 48.2555 45.7161 48.2309C45.7064 48.2064 45.7019 48.18 45.7027 48.1536V43.1429C45.7019 43.1162 45.7065 43.0896 45.716 43.0647C45.7256 43.0398 45.74 43.0171 45.7583 42.9979C45.7767 42.9788 45.7986 42.9635 45.8229 42.9531C45.8472 42.9427 45.8733 42.9374 45.8996 42.9374H47.481C48.1268 42.9359 48.7458 42.6751 49.2025 42.212C49.6591 41.7489 49.9163 41.1212 49.9178 40.4663V34.6623C49.9134 34.0088 49.655 33.3835 49.1989 32.922C48.7427 32.4604 48.1254 32.1999 47.481 32.1969H43.8118C43.7859 32.1976 43.7604 32.2035 43.7368 32.2143C43.7132 32.225 43.6919 32.2403 43.6741 32.2594C43.6563 32.2785 43.6424 32.3009 43.6332 32.3255C43.624 32.35 43.6196 32.3761 43.6204 32.4023V43.0801C43.6189 43.8815 43.436 44.6718 43.0858 45.3902C42.7355 46.1085 42.2272 46.7357 41.6001 47.2233C41.4238 47.3672 41.2355 47.4951 41.0373 47.6057C40.6804 47.8155 40.3032 47.9876 39.9118 48.1193C39.4087 48.2769 38.885 48.3558 38.3585 48.3533H28.4987C27.9687 48.3537 27.4416 48.2748 26.9342 48.1193C26.8018 48.0784 26.6721 48.0288 26.5459 47.971C26.2959 47.8665 26.0533 47.7445 25.8199 47.6057C25.7201 47.555 25.6258 47.4938 25.5386 47.4231L25.2853 47.2348C24.6559 46.7459 24.1455 46.1172 23.7933 45.3969C23.441 44.6766 23.2565 43.884 23.2537 43.0801V32.4023C23.2537 32.3488 23.2332 32.2974 23.1964 32.2591C23.1596 32.2207 23.1095 32.1984 23.0567 32.1969H19.3875C18.7465 32.2058 18.1344 32.4688 17.6821 32.9295C17.2299 33.3903 16.9734 34.0122 16.9676 34.6623V40.4663C16.9705 41.1208 17.2282 41.7475 17.6846 42.2103C18.1409 42.6731 18.759 42.9344 19.4044 42.9374H20.9858C21.04 42.9374 21.0921 42.9589 21.131 42.9972C21.1699 43.0356 21.1925 43.0879 21.194 43.1429V48.1536C21.1932 48.1806 21.1873 48.2071 21.1764 48.2318C21.1656 48.2564 21.15 48.2787 21.1307 48.2972C21.1113 48.3158 21.0886 48.3303 21.0637 48.3399C21.0389 48.3495 21.0124 48.3541 20.9858 48.3533H17.0801C15.6473 48.3533 14.2731 47.7761 13.2599 46.7487C12.2467 45.7212 11.6775 44.3277 11.6775 42.8746V32.0314C11.673 31.3353 11.8044 30.6451 12.064 30.0007C12.3236 29.3563 12.7064 28.7703 13.1902 28.2765C13.6741 27.7826 14.2494 27.3907 14.8832 27.1233C15.517 26.8559 16.1967 26.7182 16.8831 26.7182H50.0866C51.4678 26.7348 52.786 27.3067 53.7515 28.3083C54.7171 29.3099 55.251 30.6593 55.236 32.0599V42.8746Z" fill="#1B2228"/>
<rect x="28.2832" y="32.0537" width="10.3704" height="11.3131" rx="3" fill="#1B2228"/>
</svg>