<svg width="240" height="66" viewBox="0 0 240 66" fill="none" xmlns="http://www.w3.org/2000/svg">
<path d="M80.1375 26.3973V21.3836H98.6735C99.0722 21.4275 99.4756 21.3868 99.8575 21.2644C100.239 21.1419 100.591 20.9404 100.89 20.6729C101.188 20.4054 101.427 20.078 101.591 19.712C101.755 19.346 101.839 18.9497 101.839 18.5488C101.839 18.148 101.755 17.7517 101.591 17.3857C101.427 17.0197 101.188 16.6923 100.89 16.4248C100.591 16.1573 100.239 15.9558 99.8575 15.8333C99.4756 15.7108 99.0722 15.6702 98.6735 15.714H87.9959C85.911 15.714 83.9114 14.8862 82.4372 13.4128C80.9629 11.9393 80.1346 9.94083 80.1346 7.85702C80.1346 5.77321 80.9629 3.77475 82.4372 2.30127C83.9114 0.827792 85.911 0 87.9959 0H106.532V5.01366H87.9959C87.5956 4.96606 87.1897 5.00381 86.805 5.12439C86.4203 5.24497 86.0655 5.44566 85.7641 5.71323C85.4626 5.98081 85.2213 6.30919 85.0561 6.67674C84.8908 7.04429 84.8054 7.44267 84.8054 7.84562C84.8054 8.24856 84.8908 8.64693 85.0561 9.01448C85.2213 9.38203 85.4626 9.71041 85.7641 9.97799C86.0655 10.2456 86.4203 10.4463 86.805 10.5668C87.1897 10.6874 87.5956 10.7252 87.9959 10.6776H98.6792C100.762 10.6776 102.759 11.5045 104.232 12.9763C105.705 14.4482 106.532 16.4445 106.532 18.526C106.532 20.6076 105.705 22.6039 104.232 24.0757C102.759 25.5476 100.762 26.3745 98.6792 26.3745L80.1375 26.3973Z" fill="#1B2228"/>
<path d="M196.564 0H183.838V26.3802H188.65V5.00688H196.564C198.648 5.02034 200.644 5.88501 202.118 7.41355C203.592 8.94208 204.426 11.0114 204.439 13.173C204.421 15.3348 203.593 17.4046 202.129 18.944C201.399 19.7033 200.532 20.3057 199.577 20.7167C198.622 21.1277 197.598 21.3392 196.564 21.3391H193.501V26.3973H196.564C199.94 26.3973 203.177 25.0067 205.564 22.5315C207.951 20.0563 209.292 16.6992 209.292 13.1987C209.292 9.69816 207.951 6.34102 205.564 3.86579C203.177 1.39056 199.94 0 196.564 0Z" fill="#1B2228"/>
<path d="M147.071 9.42773H142.357V26.3974H147.071V9.42773Z" fill="#1B2228"/>
<path d="M147.071 0H142.357V5.65657H147.071V0Z" fill="#1B2228"/>
<path d="M213.064 26.3919V13.5337C213.136 10.1705 214.558 6.96866 217.026 4.61489C219.493 2.26112 222.809 0.942871 226.263 0.942871C229.717 0.942871 233.033 2.26112 235.5 4.61489C237.968 6.96866 239.39 10.1705 239.462 13.5337V26.3974H234.443V13.5281C234.443 11.4159 233.581 9.39021 232.048 7.89665C230.514 6.4031 228.435 5.56403 226.266 5.56403C224.097 5.56403 222.018 6.4031 220.484 7.89665C218.951 9.39021 218.089 11.4159 218.089 13.5281V26.3919H213.064Z" fill="#1B2228"/>
<path d="M230.034 13.1987H222.492V17.9125H230.034V13.1987Z" fill="#1B2228"/>
<path d="M162.155 57.1042V62.2222H143.584C142.556 62.2222 141.538 62.015 140.589 61.6123C139.639 61.2095 138.777 60.6193 138.05 59.8752C137.323 59.131 136.747 58.2476 136.354 57.2754C135.96 56.3032 135.758 55.2611 135.758 54.2088C135.758 53.1564 135.96 52.1144 136.354 51.1422C136.747 50.1699 137.323 49.2865 138.05 48.5424C138.777 47.7983 139.639 47.208 140.589 46.8053C141.538 46.4026 142.556 46.1953 143.584 46.1953H152.084V51.3134H143.584C143.202 51.2958 142.821 51.3576 142.463 51.4951C142.106 51.6325 141.779 51.8427 141.503 52.113C141.227 52.3833 141.007 52.7082 140.857 53.0679C140.707 53.4276 140.629 53.8147 140.629 54.2059C140.629 54.597 140.707 54.9842 140.857 55.3439C141.007 55.7036 141.227 56.0284 141.503 56.2987C141.779 56.569 142.106 56.7792 142.463 56.9167C142.821 57.0541 143.202 57.1159 143.584 57.0983L162.155 57.1042Z" fill="#1B2228"/>
<path d="M162.155 35.825H135.758V40.5388H162.155V35.825Z" fill="#1B2228"/>
<path d="M162.155 46.1953H156.498V51.8519H162.155V46.1953Z" fill="#1B2228"/>
<path d="M86.7333 45.2524H82.0195V62.2221H86.7333V45.2524Z" fill="#1B2228"/>
<path d="M86.7333 35.825H82.0195V41.4815H86.7333V35.825Z" fill="#1B2228"/>
<path d="M193.266 57.1665V62.2223H180.054C176.557 62.2223 173.203 60.8317 170.731 58.3565C168.258 55.8812 166.869 52.5241 166.869 49.0236C166.869 45.5231 168.258 42.166 170.731 39.6908C173.203 37.2155 176.557 35.825 180.054 35.825H183.223V40.818H180.054C178.981 40.8189 177.92 41.0317 176.93 41.4439C175.94 41.8561 175.041 42.4598 174.285 43.2203C172.787 44.7657 171.95 46.8357 171.954 48.9894C171.947 50.0593 172.151 51.1201 172.555 52.1108C172.959 53.1015 173.554 54.0025 174.307 54.7623C175.059 55.5221 175.954 56.1256 176.941 56.5382C177.927 56.9507 178.985 57.1642 180.054 57.1665H193.266Z" fill="#1B2228"/>
<path d="M193.266 35.825H187.609V40.5388H193.266V35.825Z" fill="#1B2228"/>
<path d="M115.018 62.2166V40.8451C115.019 39.5142 115.527 38.2381 116.431 37.297C117.335 36.3559 118.561 35.8265 119.839 35.825H130.102V40.8451H119.768L119.855 62.2223L115.018 62.2166Z" fill="#1B2228"/>
<path d="M115.017 35.825H104.646V40.5388H115.017V35.825Z" fill="#1B2228"/>
<path d="M222.491 35.825H217.777V62.2223H222.491V35.825Z" fill="#1B2228"/>
<path d="M196.094 62.2222V51.2172C196.094 49.8873 196.615 48.6118 197.542 47.6703C198.469 46.7288 199.727 46.1984 201.04 46.1953H217.777V51.3221H201.034L201.121 62.2222H196.094Z" fill="#1B2228"/>
<path d="M201.75 35.825H196.094V47.1381H201.75V35.825Z" fill="#1B2228"/>
<path d="M101.819 46.1953H93.334V51.8519H101.819V46.1953Z" fill="#1B2228"/>
<path d="M157.65 10.8215H162.154V15.8327H157.65V26.3973H152.727V0H157.65V10.8215Z" fill="#1B2228"/>
<path d="M178.182 0C178.181 4.24315 176.561 8.31268 173.678 11.3168C170.794 14.321 166.883 16.0147 162.8 16.0269H157.441V10.9597H162.534C163.218 10.9609 163.901 10.8913 164.572 10.752C166.821 10.2822 168.863 9.06717 170.391 7.28917C172.126 5.28983 173.084 2.69202 173.079 0H178.182Z" fill="#1B2228"/>
<path d="M178.181 21.0235V26.3972H173.447V21.2741C173.461 18.5559 172.452 15.9384 170.633 13.9737C169.128 12.3321 167.143 11.2462 164.982 10.8831C167.166 10.4299 169.149 9.25754 170.633 7.54199C172.072 8.39403 173.367 9.4831 174.466 10.7662C176.877 13.6009 178.199 17.2502 178.181 21.0235Z" fill="#1B2228"/>
<path d="M116.169 10.8215H120.674V15.8327H116.169V26.3973H111.246V0H116.169V10.8215Z" fill="#1B2228"/>
<path d="M137.642 0C137.641 4.24714 135.946 8.32015 132.93 11.325C129.914 14.3298 125.823 16.0208 121.555 16.0269H115.959V10.9597H121.277C121.992 10.9609 122.704 10.8913 123.405 10.752C125.754 10.2822 127.887 9.06717 129.483 7.28917C131.294 5.28983 132.295 2.69202 132.29 0H137.642Z" fill="#1B2228"/>
<path d="M137.643 21.0235V26.3972H132.586V21.2741C132.589 18.5504 131.497 15.9322 129.539 13.9737C127.931 12.3321 125.81 11.2462 123.502 10.8831C125.835 10.4299 127.953 9.25754 129.539 7.54199C131.076 8.39403 132.46 9.4831 133.634 10.7662C136.225 13.5952 137.652 17.2451 137.643 21.0235Z" fill="#1B2228"/>
<path d="M35.5667 16.0241C37.6544 15.9685 39.6379 15.1002 41.0948 13.604C42.5517 12.1077 43.367 10.1019 43.367 8.01347C43.367 5.92508 42.5517 3.9192 41.0948 2.42297C39.6379 0.926744 37.6544 0.0583881 35.5667 0.00283577C34.4968 -0.0256344 33.432 0.160511 32.4353 0.550282C31.4385 0.940052 30.5299 1.52555 29.7631 2.27222C28.9962 3.0189 28.3868 3.91161 27.9706 4.89768C27.5545 5.88374 27.3401 6.94318 27.3401 8.01347C27.3401 9.08375 27.5545 10.1432 27.9706 11.1293C28.3868 12.1153 28.9962 13.008 29.7631 13.7547C30.5299 14.5014 31.4385 15.0869 32.4353 15.4767C33.432 15.8664 34.4968 16.0526 35.5667 16.0241Z" fill="#1B2228"/>
<path d="M63.4607 32.3823C62.1777 32.2658 60.8861 32.4681 59.6963 32.9718C58.5064 33.4756 57.4536 34.2659 56.6277 35.2752C55.7627 36.3098 54.6868 37.139 53.4752 37.7046C52.2636 38.2703 50.9456 38.5588 49.6134 38.55H48.5312C47.1901 38.5354 45.8677 38.2266 44.6536 37.6447C43.4395 37.0627 42.3621 36.2211 41.4942 35.1768C40.7475 34.2937 39.8227 33.5858 38.7832 33.1015C37.7437 32.6172 36.614 32.3679 35.4715 32.3707C34.7238 32.3689 33.9798 32.4761 33.2618 32.6889C32.824 32.8131 32.3604 32.806 31.9264 32.6686C31.4924 32.5311 31.1063 32.269 30.8141 31.9137L29.6017 30.4556C29.2515 30.095 29.0143 29.6362 28.9205 29.1374C28.8267 28.6387 28.8804 28.1228 29.0747 27.6553L29.1087 27.5917C29.2967 27.1732 29.5985 26.8187 29.9782 26.5704C30.3579 26.3222 30.7995 26.1907 31.2504 26.1915H35.9757C37.3086 26.1834 38.6272 26.4722 39.8396 27.0378C41.052 27.6033 42.1291 28.4321 42.9957 29.4663C44.0501 30.7417 45.4618 31.6568 47.0408 32.0882C48.6198 32.5197 50.2903 32.4469 51.8276 31.8797C53.3649 31.3124 54.6951 30.2779 55.6393 28.9154C56.5835 27.5529 57.0963 25.9277 57.1088 24.2586C57.1212 22.5895 56.6327 20.9565 55.7089 19.5795C54.7852 18.2024 53.4705 17.1474 51.9419 16.5563C50.4133 15.9652 48.744 15.8664 47.1587 16.2733C45.5735 16.6801 44.1483 17.5731 43.075 18.832C42.2083 19.8761 41.1319 20.7177 39.9187 21.2997C38.7056 21.8817 37.384 22.1905 36.0437 22.2051H34.9672C33.633 22.213 32.3131 21.9235 31.0997 21.3569C29.8863 20.7903 28.8085 19.9603 27.9416 18.9246C27.0736 17.877 25.9612 17.0695 24.7071 16.5767C23.4529 16.0839 22.0975 15.9216 20.7657 16.1049C19.4339 16.2881 18.1688 16.811 17.0872 17.6252C16.0055 18.4394 15.1421 19.5187 14.5766 20.7636C14.0111 22.0084 13.7619 23.3786 13.8518 24.7478C13.9417 26.117 14.3679 27.4409 15.091 28.5975C15.8142 29.7541 16.811 30.7061 17.9894 31.3655C19.1679 32.025 20.49 32.3707 21.8338 32.3707C22.574 32.3722 23.3105 32.265 24.0208 32.0525C24.4553 31.9324 24.9144 31.9416 25.3441 32.0789C25.7737 32.2163 26.1559 32.4761 26.4458 32.8278L27.6866 34.3148C28.0368 34.6754 28.2739 35.1342 28.3678 35.633C28.4616 36.1317 28.4079 36.6476 28.2135 37.1151V37.144C28.0258 37.5632 27.7242 37.9185 27.3446 38.1677C26.9649 38.4169 26.5232 38.5496 26.0718 38.55H21.2785C19.9374 38.5354 18.615 38.2266 17.4009 37.6447C16.1868 37.0627 15.1094 36.2211 14.2416 35.1768C13.4936 34.2952 12.5686 33.5883 11.5294 33.1041C10.4902 32.62 9.36107 32.3698 8.21879 32.3707C7.14991 32.3417 6.08615 32.5316 5.09031 32.9292C4.09447 33.3269 3.18673 33.9242 2.42065 34.686C1.65458 35.4477 1.04571 36.3584 0.629954 37.3644C0.214204 38.3704 0 39.4513 0 40.5432C0 41.6351 0.214204 42.7159 0.629954 43.7219C1.04571 44.7279 1.65458 45.6386 2.42065 46.4004C3.18673 47.1621 4.09447 47.7594 5.09031 48.1571C6.08615 48.5547 7.14991 48.7446 8.21879 48.7156C9.36107 48.7165 10.4902 48.4664 11.5294 47.9822C12.5686 47.498 13.4936 46.7911 14.2416 45.9095C15.1059 44.8642 16.1799 44.0206 17.391 43.4357C18.6021 42.8508 19.922 42.5382 21.2615 42.519H22.3947C23.7349 42.534 25.0564 42.843 26.2695 43.4249C27.4826 44.0069 28.5591 44.8483 29.426 45.8921C30.1748 46.7742 31.1008 47.4813 32.141 47.9655C33.1812 48.4497 34.3113 48.6996 35.4545 48.6982C36.597 48.701 37.7267 48.4518 38.7662 47.9674C39.8057 47.4831 40.7305 46.7752 41.4772 45.8921C42.3469 44.8456 43.4271 44.0027 44.6443 43.4207C45.8615 42.8386 47.1872 42.5311 48.5312 42.519H53.3245C53.7752 42.5188 54.2165 42.6507 54.5961 42.8988C54.9757 43.147 55.2777 43.5011 55.4662 43.9192V43.977C55.6596 44.396 55.7315 44.8628 55.6733 45.3221C55.615 45.7815 55.4291 46.2142 55.1376 46.569L53.7438 48.2469C53.453 48.6024 53.0679 48.8646 52.6347 49.0022C52.2016 49.1397 51.7387 49.1466 51.3018 49.0222C50.5857 48.8097 49.8435 48.7026 49.0978 48.704C47.9547 48.703 46.8247 48.9531 45.7846 49.4372C44.7444 49.9214 43.8184 50.6283 43.0693 51.5101C42.2027 52.5542 41.1262 53.3958 39.913 53.9778C38.6999 54.5598 37.3783 54.8686 36.038 54.8832H34.9559C33.6232 54.8913 32.305 54.602 31.0934 54.0353C29.8817 53.4686 28.806 52.6384 27.9416 51.6027C26.8876 50.3248 25.4755 49.4073 23.8954 48.9738C22.3153 48.5403 20.6431 48.6116 19.1039 49.178C17.5646 49.7445 16.2323 50.779 15.2863 52.1421C14.3403 53.5053 13.826 55.1317 13.8126 56.8024C13.7993 58.4731 14.2875 60.1079 15.2116 61.4866C16.1357 62.8654 17.4513 63.9219 18.9813 64.514C20.5112 65.106 22.1821 65.2051 23.7689 64.798C25.3557 64.3909 26.7823 63.4971 27.8566 62.2369C28.7953 61.1623 29.9484 60.3053 31.2384 59.7235C32.5284 59.1417 33.9254 58.8485 35.3355 58.8638H35.6698C37.0932 58.8801 38.4976 59.2004 39.7925 59.8043C41.0874 60.4081 42.2441 61.2821 43.1883 62.37C44.1388 63.4399 45.3502 64.2334 46.6988 64.6694C48.0475 65.1054 49.4852 65.1685 50.8655 64.8521C52.3335 64.5224 53.6795 63.7737 54.7467 62.693C55.814 61.6123 56.5587 60.2443 56.894 58.7481C57.2982 56.9536 57.0986 55.0723 56.3274 53.4078C56.14 52.9879 56.0751 52.5218 56.1404 52.0651C56.2057 51.6085 56.3985 51.1808 56.6957 50.8332L57.9195 49.3694C58.2066 48.958 58.6078 48.644 59.0713 48.4676C59.5348 48.2913 60.0395 48.2608 60.5201 48.38C61.2343 48.5925 61.9746 48.6996 62.7185 48.6982C64.7764 48.6937 66.7536 47.8801 68.2396 46.4263C69.7256 44.9725 70.6064 42.9901 70.699 40.8907C70.7915 38.7914 70.0889 36.7362 68.7368 35.1519C67.3848 33.5675 65.4872 32.5757 63.438 32.3823H63.4607Z" fill="#1B2228"/>
</svg>